SplineFontDB: 3.2
FontName: SeriousShannsBold
FullName: Serious Shanns Bold
FamilyName: Serious Shanns Bold
Weight: Bold
Copyright: https://github.com/kaBeech/serious-shanns/blob/main/LICENSE
Version: 6.0.0
ItalicAngle: 0
UnderlinePosition: 0
UnderlineWidth: 0
Ascent: 800
Descent: 200
InvalidEm: 0
sfntRevision: 0x00003333
LayerCount: 2
Layer: 0 0 "Back" 1
Layer: 1 0 "Fore" 0
XUID: [1021 45 630387186 1689187]
StyleMap: 0x0040
FSType: 4
OS2Version: 3
OS2_WeightWidthSlopeOnly: 0
OS2_UseTypoMetrics: 0
CreationTime: 1532631502
ModificationTime: 315532800
PfmFamily: 81
TTFWeight: 700
TTFWidth: 5
LineGap: 0
VLineGap: 0
Panose: 0 0 0 0 0 0 0 0 0 0
OS2TypoAscent: 613
OS2TypoAOffset: 0
OS2TypoDescent: -188
OS2TypoDOffset: 0
OS2TypoLinegap: 98
OS2WinAscent: 778
OS2WinAOffset: 0
OS2WinDescent: 308
OS2WinDOffset: 0
HheadAscent: 796
HheadAOffset: 0
HheadDescent: -317
HheadDOffset: 0
OS2SubXSize: 317
OS2SubYSize: 293
OS2SubXOff: 0
OS2SubYOff: 37
OS2SupXSize: 317
OS2SupYSize: 293
OS2SupXOff: 0
OS2SupYOff: 171
OS2StrikeYSize: 0
OS2StrikeYPos: 132
OS2CapHeight: 576
OS2XHeight: 485
OS2Vendor: 'NONE'
OS2CodePages: 00000001.00000000
OS2UnicodeRanges: 00000001.00000000.00000000.00000000
MarkAttachClasses: 1
DEI: 91125
LangName: 1033 "" "" "Normal" "" "" "Version 0.2.0"
Encoding: UnicodeBmp
Compacted: 1
UnicodeInterp: none
NameList: AGL For New Fonts
DisplaySize: -48
AntiAlias: 1
FitToEm: 0
WinInfo: 0 16 14
BeginPrivate: 9
BlueValues 32 [-39 -6 502 523 708 718 765 769]
OtherBlues 11 [-297 -287]
BlueScale 9 0.0291667
BlueShift 1 2
StdHW 5 [110]
StdVW 5 [128]
StemSnapH 5 [110]
StemSnapV 9 [128 134]
ForceBold 4 true
EndPrivate
BeginChars: 65537 105

StartChar: .notdef
Encoding: 65536 -1 0
Width: 620
GlyphClass: 1
Flags: W
HStem: -280 78<162 458> 683 78<162 458>
VStem: 84 78<-202 683> 458 78<-202 683>
LayerCount: 2
Fore
SplineSet
84 -280 m 1
 84 761 l 1
 536 761 l 1
 536 -280 l 1
 84 -280 l 1
162 683 m 1
 162 -202 l 1
 458 -202 l 1
 458 683 l 1
 162 683 l 1
EndSplineSet
EndChar

StartChar: exclam
Encoding: 33 33 1
Width: 620
GlyphClass: 2
Flags: W
HStem: -37.002 179.001<253.347 370.352>
VStem: 216.481 187.037<-3.98231 106.918> 250.479 122.001<248.311 379.795> 258.479 115.001<294.405 784.434>
LayerCount: 2
Fore
SplineSet
380.479492188 738 m 0x90
 380.479492188 732 379.147460938 694.665039062 376.48046875 625.998046875 c 0
 374.48046875 557.331054688 373.48046875 502.331054688 373.48046875 460.998046875 c 0
 373.48046875 441.665039062 373.813476562 421.33203125 374.48046875 399.999023438 c 0
 375.147460938 379.33203125 375.48046875 361.33203125 375.48046875 345.999023438 c 0
 375.48046875 330.666015625 374.813476562 320.333007812 373.48046875 315 c 0x90
 372.813476562 309.666992188 372.48046875 302.666992188 372.48046875 294 c 0xa0
 372.48046875 285.333007812 372.813476562 277.333007812 373.48046875 270 c 0x90
 371.48046875 251.333007812 364.147460938 237 351.48046875 227 c 0
 340.147460938 217.666992188 326.48046875 212.666992188 310.48046875 212 c 2
 306.48046875 212 l 2
 289.813476562 212 276.147460938 218 265.479492188 230 c 0
 255.479492188 240 250.479492188 253.333007812 250.479492188 270 c 0xa0
 250.479492188 278 251.8125 288.333007812 254.479492188 301 c 0
 256.479492188 314.333007812 257.8125 324 258.479492188 330 c 0
 259.147460938 336 259.479492188 346.333007812 259.479492188 361 c 2
 259.479492188 402 l 2
 259.479492188 415.333007812 259.147460938 435.666015625 258.479492188 462.999023438 c 0
 257.147460938 494.999023438 256.479492188 525.666015625 256.479492188 554.999023438 c 2
 256.479492188 623.999023438 l 2
 257.147460938 640.666015625 257.813476562 661.333007812 258.48046875 686 c 0
 259.147460938 710.666992188 259.48046875 727 259.48046875 735 c 1
 260.147460938 756.333007812 266.48046875 773 278.48046875 785 c 0
 289.813476562 796.333007812 304.147460938 802 321.479492188 802 c 2
 324.479492188 802 l 2
 340.479492188 802 353.8125 796.666992188 364.479492188 786 c 0
 375.147460938 775.333007812 380.479492188 759.333007812 380.479492188 738 c 0x90
302.48046875 -37.001953125 m 2
 279.147460938 -37.001953125 259.481445312 -29.0009765625 243.481445312 -13.0009765625 c 0
 225.481445312 5.666015625 216.481445312 27.9990234375 216.481445312 53.9990234375 c 0
 216.481445312 77.9990234375 226.481445312 98.33203125 246.481445312 114.999023438 c 0
 267.1484375 132.999023438 290.1484375 141.999023438 315.481445312 141.999023438 c 0
 340.815429688 141.999023438 361.815429688 133.999023438 378.481445312 117.999023438 c 0
 395.171875 101.30859375 403.518554688 81.2177734375 403.518554688 57.7255859375 c 0xc0
 403.518554688 44.673828125 402.948242188 17.443359375 379.48046875 -7.001953125 c 0
 362.813476562 -23.6689453125 340.813476562 -33.6689453125 313.48046875 -37.001953125 c 2
 302.48046875 -37.001953125 l 2
EndSplineSet
EndChar

StartChar: quotedbl
Encoding: 34 34 2
Width: 620
GlyphClass: 2
Flags: W
VStem: 165.5 122<438.439 586.418> 168.5 127<442.249 783.227> 325.5 130<442.134 783.794>
LayerCount: 2
Fore
SplineSet
455.5 738 m 2x20
 455.5 719 l 2
 455.5 685 455.169921875 641.666992188 454.502929688 589 c 0
 453.169921875 533.666992188 451.169921875 495 448.502929688 473 c 0
 445.8359375 456.333007812 438.16796875 443.666015625 425.501953125 434.999023438 c 0
 414.834960938 426.999023438 403.16796875 422.999023438 390.5 422.999023438 c 0
 373.833984375 422.999023438 358.833984375 427.999023438 345.5 437.999023438 c 0
 332.833984375 447.33203125 326.5 459.999023438 326.5 475.999023438 c 2
 326.5 481.999023438 l 2
 327.833984375 504.666015625 328.5 531.999023438 328.5 563.999023438 c 0
 328.5 631.33203125 327.5 690.999023438 325.5 742.999023438 c 2
 325.5 745.999023438 l 2
 325.5 755.33203125 327.833984375 763.83203125 332.5 771.499023438 c 0
 337.16796875 779.166015625 343.834960938 784.666015625 352.501953125 787.999023438 c 0
 364.501953125 792.666015625 376.501953125 795.333007812 388.501953125 796 c 0
 398.501953125 796 406.66796875 795 413.001953125 793 c 0
 419.334960938 791 425.501953125 788.333007812 431.501953125 785 c 0
 438.834960938 781 444.66796875 774.833007812 449 766.5 c 0
 453.333984375 758.166992188 455.5 748.666992188 455.5 738 c 2x20
295.5 739 m 2x60
 295.5 697 l 2x60
 295.5 677.666992188 294.833984375 641.666992188 293.5 589 c 0
 292.16796875 533.666992188 290.16796875 495 287.5 473 c 0
 284.833984375 456.333007812 277.5 443.666015625 265.5 434.999023438 c 0
 254.833984375 426.999023438 243.166992188 422.999023438 230.5 422.999023438 c 0
 213.83203125 422.999023438 198.5 427.999023438 184.5 437.999023438 c 0
 171.83203125 447.33203125 165.5 459.999023438 165.5 475.999023438 c 0xa0
 165.5 477.999023438 165.83203125 480.33203125 166.5 482.999023438 c 0
 168 502.498046875 168.75 525.185546875 168.75 551.059570312 c 0
 168.75 559.684570312 168.666992188 568.665039062 168.5 577.999023438 c 2
 168.5 611.999023438 l 2
 167.83203125 679.33203125 166.5 724.33203125 164.5 746.999023438 c 0
 164.5 755.666015625 166.83203125 763.666015625 171.5 770.999023438 c 0
 176.83203125 778.999023438 183.5 784.666015625 191.5 787.999023438 c 0
 203.5 792.666015625 215.83203125 795.333007812 228.5 796 c 0
 238.5 796 246.666992188 795 253 793 c 0
 259.33203125 791 265.83203125 788 272.5 784 c 0
 279.166992188 780 284.5 774 288.5 766 c 0
 292.5 758 294.83203125 749 295.5 739 c 2x60
EndSplineSet
EndChar

StartChar: numbersign
Encoding: 35 35 3
Width: 620
GlyphClass: 2
Flags: W
HStem: -13.999 20.9004G<136.333 144.333 362.998 370.998> 179.001 107.003<50.5032 110 258.003 330.999 476 543.621> 433.004 109<89.4746 161 307.999 377.003 521 566.404>
LayerCount: 2
Fore
SplineSet
377.002929688 433.00390625 m 1
 287.002929688 433.00390625 l 1
 258.002929688 286.00390625 l 1
 282.002929688 286.670898438 312.669921875 287.001953125 350.002929688 287.001953125 c 1
 359.3359375 334.334960938 368.3359375 383.00390625 377.002929688 433.00390625 c 1
161 431 m 1
 143 430.333007812 133.002929688 430.333007812 131.002929688 431 c 0
 113.002929688 431 99.0029296875 435.334960938 89.0029296875 444.001953125 c 0
 77.669921875 454.001953125 71.669921875 466.668945312 71.0029296875 482.001953125 c 2
 71.0029296875 485.001953125 l 2
 71.0029296875 499.001953125 76.3330078125 511.334960938 87 522.001953125 c 0
 97.6669921875 532.668945312 113.002929688 538.3359375 133.002929688 539.002929688 c 0
 144.3359375 539.669921875 160.668945312 540.002929688 182.001953125 540.002929688 c 1
 209.001953125 686.002929688 l 2
 215.001953125 706.669921875 225.334960938 720.669921875 240.001953125 728.002929688 c 0
 249.334960938 733.3359375 259.334960938 736.3359375 270.001953125 737.002929688 c 0
 274.668945312 737.002929688 279.33203125 736.3359375 283.999023438 735.002929688 c 0
 301.33203125 731.669921875 314.668945312 723.336914062 324.001953125 710.00390625 c 0
 330.668945312 700.670898438 334.001953125 689.670898438 334.001953125 677.00390625 c 0
 334.001953125 671.00390625 333.334960938 665.00390625 332.001953125 659.00390625 c 2
 307.999023438 542.00390625 l 1
 396.001953125 542.00390625 l 1
 421.001953125 678.00390625 l 2
 427.001953125 699.336914062 437.334960938 714.00390625 452.001953125 722.00390625 c 0
 461.334960938 727.336914062 471.334960938 730.00390625 482.001953125 730.00390625 c 0
 487.334960938 730.00390625 492.334960938 729.3359375 497.001953125 728.002929688 c 0
 514.334960938 724.669921875 527.66796875 716.337890625 537.000976562 703.004882812 c 0
 543.000976562 694.337890625 546.333007812 684.004882812 547 672.004882812 c 0
 547 665.337890625 546 658.337890625 544 651.004882812 c 0
 537.333007812 626.337890625 529.666992188 590.337890625 521 543.004882812 c 1
 539 542.337890625 554.333007812 537.004882812 567 527.004882812 c 0
 580.333007812 515.671875 587.333007812 503.004882812 588 489.004882812 c 0
 588 473.671875 583 460.671875 573 450.004882812 c 0
 563 439.337890625 548 433.670898438 528 433.00390625 c 2
 527 433.00390625 l 1
 501 433.00390625 l 1
 476 286.00390625 l 1
 503 286.00390625 l 2
 522.333007812 286.00390625 536 281.336914062 544 272.00390625 c 0
 552 262.670898438 556.666992188 251.00390625 558 237.00390625 c 2
 558 236.00390625 l 2
 558 220.00390625 554.333007812 207.336914062 547 198.00390625 c 0
 537.666992188 186.00390625 523 180.00390625 503 180.00390625 c 2
 458 180.00390625 l 1
 445.333007812 109.336914062 436 60.669921875 430 34.0029296875 c 0
 423.333007812 16.0029296875 411.666015625 2.669921875 394.999023438 -5.9970703125 c 0
 385.3984375 -11.3974609375 375.797851562 -14.0986328125 366.197265625 -14.0986328125 c 0
 362.998046875 -13.9990234375 l 0
 357.665039062 -13.9990234375 352.33203125 -13.33203125 346.999023438 -11.9990234375 c 0
 330.999023438 -8.666015625 318.999023438 1.6689453125 310.999023438 19.001953125 c 0
 306.999023438 28.3349609375 304.666015625 37.66796875 303.999023438 47.0009765625 c 0
 303.999023438 55.0009765625 305.33203125 63.333984375 307.999023438 72.0009765625 c 0
 313.999023438 96.0009765625 321.666015625 131.66796875 330.999023438 179.000976562 c 1
 283.999023438 179.000976562 l 2
 264.666015625 179.000976562 248.999023438 178.66796875 236.999023438 178.000976562 c 1
 218.999023438 88.0009765625 208.999023438 41.0009765625 206.999023438 37.0009765625 c 0
 200.999023438 20.333984375 189.666015625 7.0009765625 172.999023438 -2.9990234375 c 0
 160.999023438 -10.33203125 149.666015625 -13.9990234375 138.999023438 -13.9990234375 c 0
 133.666015625 -13.9990234375 128.333007812 -13.33203125 123 -11.9990234375 c 0
 107 -8.666015625 95 2.333984375 87 21.0009765625 c 0
 83 30.333984375 81 39.333984375 81 48.0009765625 c 0
 81 57.333984375 82.6669921875 66.6669921875 86 76 c 0
 90.6669921875 92 98.6669921875 125.666992188 110 177 c 1
 95 177 l 2
 75.6669921875 177 60.6669921875 181 50 189 c 0
 38 197.666992188 32 209.666992188 32 225 c 2
 32 228 l 2
 32 242 37 254.333007812 47 265 c 0
 57 275 72 280.666992188 92 282 c 0
 97.3330078125 282 104.333007812 282.333007812 113 283 c 2
 132 283 l 1
 161 431 l 1
EndSplineSet
EndChar

StartChar: dollar
Encoding: 36 36 4
Width: 620
GlyphClass: 2
Flags: W
HStem: -32.0029 106.998<189.386 248>
VStem: 59 118<485.148 581.759> 253 117.002<-87.3984 -32.0029 92.9971 317.997 456.997 612.974> 461.033 117.967<146.588 273.466>
LayerCount: 2
Fore
SplineSet
345.5 -130 m 0
 332.5 -140 317.333984375 -145.002929688 300 -145.002929688 c 2
 298 -145.002929688 l 2
 280 -145.002929688 266.333984375 -139.002929688 257 -127.002929688 c 0
 249.66796875 -118.3359375 246 -106.668945312 246 -92.001953125 c 0
 246 -88.6689453125 246.333984375 -82.8359375 247 -74.5029296875 c 0
 247.66796875 -66.169921875 248 -52.0029296875 248 -32.0029296875 c 1
 224 -31.3359375 201 -28.0029296875 179 -22.0029296875 c 0
 157 -16.0029296875 138 -8.0029296875 122 1.9970703125 c 0
 90 21.9970703125 66.333984375 45.9970703125 51 73.9970703125 c 0
 44.333984375 88.6640625 41 101.997070312 41 113.997070312 c 0
 41 117.997070312 41.333984375 121.6640625 42 124.997070312 c 0
 45.333984375 140.330078125 54.666015625 151.330078125 70 157.997070312 c 0
 78.666015625 161.997070312 85.333984375 164.497070312 90 165.497070312 c 0
 94.66796875 166.497070312 98.66796875 166.997070312 102 166.997070312 c 0
 105.333984375 166.997070312 108.333984375 166.6640625 111 165.997070312 c 0
 119 165.330078125 126.333984375 162.163085938 133 156.49609375 c 0
 139.66796875 150.829101562 146.66796875 143.329101562 154 133.99609375 c 0
 167.333984375 115.329101562 182.333984375 100.662109375 199 89.9951171875 c 0
 213 81.328125 230.333984375 76.328125 251 74.9951171875 c 1
 252.333984375 174.328125 253 263.661132812 253 342.994140625 c 1
 251 342.994140625 247.333984375 343.661132812 242 344.994140625 c 0
 238 345.661132812 232.66796875 345.994140625 226 345.994140625 c 0
 198.66796875 348.661132812 173.66796875 355.328125 151 365.995117188 c 0
 130.333984375 376.662109375 113.333984375 389.329101562 100 403.99609375 c 0
 86.66796875 418.663085938 76.5 434.330078125 69.5 450.997070312 c 0
 62.5 467.6640625 59 484.6640625 59 501.997070312 c 0
 59 526.6640625 62.833984375 550.331054688 70.5 572.998046875 c 0
 78.16796875 595.665039062 90 616.83203125 106 636.499023438 c 0
 122 656.166015625 143.333984375 672.999023438 170 686.999023438 c 0
 195.333984375 699.666015625 223.666992188 708.999023438 255 714.999023438 c 1
 255.666992188 728.33203125 256 743.999023438 256 761.999023438 c 1
 256.666992188 793.999023438 267.666992188 814.33203125 289 822.999023438 c 0
 296.33203125 825.666015625 305.33203125 826.999023438 316 826.999023438 c 0
 338 826.999023438 354 819.999023438 364 805.999023438 c 0
 371.33203125 795.999023438 375.33203125 782.33203125 376 764.999023438 c 2
 376 723.999023438 l 1
 391.33203125 722.666015625 411.666015625 718.999023438 436.999023438 712.999023438 c 0
 462.33203125 707.666015625 481.6640625 702.666015625 494.998046875 697.999023438 c 0
 510.331054688 692.666015625 521.6640625 683.666015625 528.99609375 670.999023438 c 0
 534.330078125 661.666015625 536.99609375 651.999023438 536.99609375 641.999023438 c 0
 536.99609375 638.666015625 536.6640625 635.333007812 535.99609375 632 c 0
 534.6640625 622 530.831054688 613.833007812 524.498046875 607.5 c 0
 518.1640625 601.166992188 510.33203125 597.333984375 500.999023438 596.000976562 c 0
 496.33203125 595.333984375 492.33203125 595.000976562 488.999023438 595.000976562 c 0
 485.666015625 595.000976562 481.83203125 595.16796875 477.5 595.500976562 c 0
 473.166992188 595.833984375 467.666992188 597.000976562 461 599.000976562 c 0
 453.666992188 600.333984375 445 603.333984375 435 608.000976562 c 0
 415 616.66796875 394.666992188 621.66796875 374 623.000976562 c 1
 372.666992188 558.333984375 371.666992188 497.000976562 371 439.000976562 c 1
 401 434.333984375 428.666992188 427.333984375 454 418.000976562 c 0
 478 408.000976562 497.83203125 396.000976562 513.5 382.000976562 c 0
 529.166992188 368.000976562 542.166992188 352.000976562 552.5 334.000976562 c 0
 562.83203125 316.000976562 569.83203125 298.333984375 573.5 281.000976562 c 0
 577.166992188 263.66796875 579 245.66796875 579 227.000976562 c 0
 579 195.66796875 573.5 166.16796875 562.5 138.500976562 c 0
 551.5 110.833984375 536.166992188 86.6669921875 516.5 66 c 0
 496.83203125 45.3330078125 474 27.666015625 448 12.9990234375 c 0
 423.33203125 -0.333984375 396.33203125 -10.6669921875 367 -18 c 1
 367 -52 367.666992188 -75.3330078125 369 -88 c 0
 366.33203125 -106 358.5 -120 345.5 -130 c 0
202 584.997070312 m 0
 185.333984375 569.6640625 177 551.6640625 177 530.997070312 c 0
 177 512.997070312 184.66796875 497.330078125 200 483.997070312 c 0
 213.333984375 471.997070312 231 462.997070312 253 456.997070312 c 1
 253.66796875 498.330078125 254 551.330078125 254 615.997070312 c 1
 233.333984375 607.997070312 216 597.6640625 202 584.997070312 c 0
431 136.997070312 m 0
 451.021484375 157.017578125 461.033203125 179.85546875 461.033203125 205.506835938 c 0
 461.033203125 214.470703125 460.65625 226.20703125 457.001953125 238.998046875 c 0
 454.334960938 248.331054688 449.334960938 258.6640625 442.001953125 269.997070312 c 0
 429.334960938 288.6640625 405.334960938 304.6640625 370.001953125 317.997070312 c 1
 369.334960938 241.330078125 368.834960938 191.330078125 368.501953125 167.997070312 c 0
 368.16796875 144.6640625 367.66796875 119.6640625 367.001953125 92.9970703125 c 1
 392.334960938 104.997070312 413.66796875 119.6640625 431 136.997070312 c 0
EndSplineSet
EndChar

StartChar: percent
Encoding: 37 37 5
Width: 620
GlyphClass: 2
Flags: W
HStem: -40.0039 101.001<419.769 484.75> 158.997 98<422.895 490.971> 420 98.9961<131.256 197.686> 607.996 97.0039<133.148 202.395>
VStem: 27 96.001<530.28 596.587> 211 103.001<529.373 597.165> 306 104.999<72.8275 145.526> 498.001 94.999<71.4058 144.619>
LayerCount: 2
Fore
SplineSet
41.501953125 491.5 m 0xfd
 31.8349609375 511.833007812 27 533.333007812 27 556 c 2
 27 558 l 2
 27 600 39.5 635 64.5 663 c 0
 89.5 691 125.666992188 705 173 705 c 0
 213.666992188 705 247.333984375 693 274.000976562 669 c 0
 288.000976562 656.333007812 298.66796875 640 306.000976562 620 c 0
 311.333984375 604 314.000976562 586 314.000976562 566 c 0
 314.000976562 516 299.66796875 478.333007812 271.000976562 453 c 0
 245.66796875 431 208.000976562 420 158.000976562 420 c 0
 130.66796875 420 106.834960938 426.833007812 86.501953125 440.5 c 0
 66.1689453125 454.166992188 51.1689453125 471.166992188 41.501953125 491.5 c 0xfd
75 -45 m 0
 66.3330078125 -41 59.3330078125 -36.00390625 54 -30.00390625 c 0
 46.6669921875 -22.00390625 43 -12.50390625 43 -1.50390625 c 0
 43 9.49609375 46.3330078125 21.3291015625 53 33.99609375 c 0
 67 61.99609375 100.333007812 120.329101562 153 208.99609375 c 0
 266.333007812 387.663085938 323 477.330078125 323 477.997070312 c 0
 379.666992188 567.997070312 417.666992188 632.6640625 437 671.997070312 c 1
 437 664.6640625 437.333007812 664.997070312 438 672.997070312 c 1
 448.666992188 687.6640625 462.333984375 696.331054688 479.000976562 698.998046875 c 0
 483.66796875 700.331054688 488.334960938 700.998046875 493.001953125 700.998046875 c 0
 503.668945312 700.998046875 514.001953125 698.331054688 524.001953125 692.998046875 c 0
 539.334960938 685.665039062 548.001953125 675.33203125 550.001953125 661.999023438 c 0
 550.668945312 659.33203125 551.001953125 656.665039062 551.001953125 653.998046875 c 0
 551.001953125 642.665039062 546.668945312 630.33203125 538.001953125 616.999023438 c 0
 513.334960938 577.666015625 451.66796875 477.333007812 353.000976562 316 c 0
 252.333984375 154.666992188 185.666992188 45.6669921875 153 -11 c 0
 137.666992188 -37.6669921875 119.666992188 -51 99 -51 c 0
 91.6669921875 -51 83.6669921875 -49 75 -45 c 0
199.5 597.49609375 m 0
 191.833007812 604.49609375 180 607.99609375 164 607.99609375 c 0
 151.333007812 607.99609375 142 604.329101562 136 596.99609375 c 0
 128.666992188 588.329101562 124.333984375 575.99609375 123.000976562 559.99609375 c 2
 123.000976562 556.99609375 l 2
 123.000976562 544.99609375 125.66796875 535.99609375 131.000976562 529.99609375 c 0
 136.333984375 523.99609375 148.666992188 520.329101562 168 518.99609375 c 2
 169 518.99609375 l 2
 181.666992188 518.99609375 191.333984375 522.329101562 198.000976562 528.99609375 c 0
 205.333984375 536.99609375 209.666992188 547.663085938 211 560.99609375 c 2
 211 563.99609375 l 2
 211 579.329101562 207.166992188 590.49609375 199.5 597.49609375 c 0
321.5 34.49609375 m 0
 311.166992188 55.49609375 306 77.9970703125 306 101.997070312 c 2
 306 103.997070312 l 2xfb
 306 147.997070312 319.666992188 184.497070312 347 213.497070312 c 0
 374.333007812 242.497070312 412.333007812 256.997070312 461 256.997070312 c 0
 499 256.997070312 531 244.6640625 557 219.997070312 c 0
 570.333007812 207.330078125 580 189.997070312 586 167.997070312 c 0
 590.666992188 151.997070312 593 134.330078125 593 114.997070312 c 0
 593 108.330078125 592.666992188 101.663085938 592 94.99609375 c 0
 590 50.99609375 577.333007812 17.49609375 554 -5.50390625 c 0
 530.666992188 -28.50390625 495.666992188 -40.00390625 449 -40.00390625 c 2
 444 -40.00390625 l 2
 416 -39.3369140625 391.166992188 -32.00390625 369.5 -18.00390625 c 0
 347.833007812 -4.00390625 331.833007812 13.49609375 321.5 34.49609375 c 0
456 60.9970703125 m 0
 456.666992188 60.9970703125 457.668945312 60.6640625 459.001953125 59.9970703125 c 0
 471.001953125 59.9970703125 479.668945312 63.6640625 485.001953125 70.9970703125 c 0
 492.334960938 79.6640625 496.66796875 91.6640625 498.000976562 106.997070312 c 2
 498.000976562 108.997070312 l 2
 498.000976562 124.997070312 495.000976562 136.997070312 489.000976562 144.997070312 c 0
 482.333984375 154.330078125 470.666992188 158.997070312 454 158.997070312 c 0
 441.333007812 158.997070312 431.666015625 154.6640625 424.999023438 145.997070312 c 0
 416.999023438 135.997070312 412.33203125 122.6640625 410.999023438 105.997070312 c 2
 410.999023438 102.997070312 l 2
 410.999023438 89.6640625 413.83203125 79.4970703125 419.499023438 72.4970703125 c 0
 425.166015625 65.4970703125 437.333007812 61.6640625 456 60.9970703125 c 0
EndSplineSet
EndChar

StartChar: ampersand
Encoding: 38 38 6
Width: 620
GlyphClass: 2
Flags: W
HStem: -53.9932 118<197.518 323.751> 633.005 103<253.923 343.088>
VStem: 38.999 124.001<100.286 273.189> 125.999 119.001<504.635 620.91> 360 108<508.115 617.229>
LayerCount: 2
Fore
SplineSet
567.000976562 11 m 0xd8
 567.000976562 7.6669921875 566.666992188 4.0048828125 566 0.0048828125 c 0
 563.333007812 -23.328125 555.333007812 -38.6611328125 542 -45.994140625 c 0
 529.333007812 -50.6611328125 521.333007812 -52.994140625 518 -52.994140625 c 2
 517 -52.994140625 l 2
 508.333007812 -52.994140625 499 -50.6611328125 489 -45.994140625 c 0
 471.666992188 -37.3271484375 457 -22.3271484375 445 -0.994140625 c 0
 443 2.3388671875 439.833007812 9.8388671875 435.5 21.505859375 c 0
 431.166992188 33.1728515625 428 41.6728515625 426 47.005859375 c 1
 411 27.505859375 l 2
 407.666992188 23.1728515625 402 16.83984375 394 8.5068359375 c 0
 386 0.173828125 379.166992188 -6.326171875 373.5 -10.9931640625 c 0
 367.833007812 -15.66015625 360.165039062 -21.16015625 350.499023438 -27.4931640625 c 0
 340.83203125 -33.826171875 331.33203125 -38.4931640625 321.999023438 -41.4931640625 c 0
 312.665039062 -44.4931640625 301.999023438 -47.326171875 289.999023438 -49.9931640625 c 0
 277.999023438 -52.66015625 265.665039062 -53.9931640625 252.999023438 -53.9931640625 c 0
 212.999023438 -53.9931640625 176.499023438 -43.826171875 143.499023438 -23.4931640625 c 0
 110.499023438 -3.16015625 84.83203125 23.6728515625 66.4990234375 57.005859375 c 0
 48.166015625 90.3388671875 38.9990234375 126.338867188 38.9990234375 165.005859375 c 0xe8
 38.9990234375 223.005859375 49.666015625 272.672851562 70.9990234375 314.005859375 c 0
 96.33203125 362.672851562 135.999023438 400.672851562 189.999023438 428.005859375 c 1
 172.499023438 455.505859375 l 2
 165.499023438 466.505859375 160.165039062 475.005859375 156.499023438 481.005859375 c 0
 152.83203125 487.005859375 148.499023438 494.838867188 143.499023438 504.505859375 c 0
 138.499023438 514.172851562 134.999023438 522.672851562 132.999023438 530.005859375 c 0
 128.33203125 550.005859375 125.999023438 569.672851562 125.999023438 589.005859375 c 0
 125.999023438 601.672851562 127.665039062 614.505859375 130.999023438 627.505859375 c 0
 134.33203125 640.505859375 140.33203125 653.672851562 148.999023438 667.005859375 c 0
 157.665039062 680.338867188 168.333007812 692.171875 181 702.504882812 c 0
 193.666992188 712.837890625 210 721.004882812 230 727.004882812 c 0
 250 733.004882812 272.333007812 736.004882812 297 736.004882812 c 0
 317.666992188 736.004882812 338 732.837890625 358 726.504882812 c 0
 378 720.171875 396.333007812 710.671875 413 698.004882812 c 0
 429.666992188 685.337890625 443 668.670898438 453 648.00390625 c 0
 463 627.336914062 468 604.336914062 468 579.00390625 c 0
 468 556.336914062 465 535.169921875 459 515.502929688 c 0
 453 495.8359375 445.5 479.3359375 436.5 466.002929688 c 0
 427.5 452.669921875 416.333007812 440.169921875 403 428.502929688 c 0
 389.666992188 416.8359375 378.333007812 408.002929688 369.000976562 402.002929688 c 0
 359.66796875 396.002929688 350.000976562 390.669921875 340.000976562 386.002929688 c 1
 352.000976562 366.002929688 368.833007812 340.8359375 390.500976562 310.502929688 c 0
 412.16796875 280.169921875 428.000976562 257.669921875 438.000976562 243.002929688 c 1
 440.000976562 247.002929688 442.833007812 253.169921875 446.500976562 261.502929688 c 0
 450.16796875 269.8359375 453.834960938 278.002929688 457.500976562 286.002929688 c 0
 461.168945312 294.002929688 464.3359375 300.002929688 467.002929688 304.002929688 c 0
 480.3359375 324.002929688 493.668945312 336.3359375 507.000976562 341.002929688 c 0
 512.334960938 343.002929688 518.000976562 344.002929688 524.000976562 344.002929688 c 0
 533.334960938 344.002929688 542.66796875 341.669921875 552.000976562 337.002929688 c 0
 567.333007812 329.669921875 576.333007812 317.002929688 579.000976562 299.002929688 c 0
 579.66796875 295.002929688 580.334960938 290.669921875 581.000976562 286.002929688 c 0
 581.000976562 272.002929688 577.000976562 257.3359375 569.000976562 242.002929688 c 0
 565.668945312 235.3359375 556.000976562 222.168945312 540.000976562 202.501953125 c 0
 524.000976562 182.834960938 511.000976562 165.66796875 501.000976562 151.000976562 c 1
 508.334960938 139.000976562 518.16796875 122.16796875 530.500976562 100.500976562 c 0
 542.833007812 78.833984375 550.333007812 65.6669921875 553.000976562 61 c 0
 562.333007812 45 567.000976562 28.3330078125 567.000976562 11 c 0xd8
245 572.004882812 m 0xd8
 245 557.337890625 249 541.338867188 257 524.005859375 c 0
 265 506.672851562 274 491.672851562 284 479.005859375 c 1
 294.666992188 482.338867188 304.166992188 486.171875 312.5 490.504882812 c 0
 320.833007812 494.837890625 329 500.337890625 337 507.004882812 c 0
 345 513.671875 350.833007812 522.004882812 354.5 532.004882812 c 0
 358.166992188 542.004882812 360 554.337890625 360 569.004882812 c 0
 360 589.671875 353.666992188 605.504882812 341 616.504882812 c 0
 328.333007812 627.504882812 312.833007812 633.004882812 294.5 633.004882812 c 0
 276.166992188 633.004882812 263 627.337890625 255 616.004882812 c 0
 248.333007812 606.004882812 245 591.337890625 245 572.004882812 c 0xd8
163 174.005859375 m 0xe8
 163 142.005859375 171.504882812 115.673828125 188.504882812 95.0068359375 c 0
 205.504882812 74.33984375 227.336914062 64.0068359375 254.004882812 64.0068359375 c 0
 268.671875 64.0068359375 284.004882812 66.673828125 300.004882812 72.0068359375 c 0
 305.336914062 74.0068359375 311.170898438 77.173828125 317.50390625 81.5068359375 c 0
 323.836914062 85.83984375 328.668945312 89.33984375 332.002929688 92.0068359375 c 0
 335.3359375 94.673828125 339.668945312 99.0068359375 345.000976562 105.006835938 c 0
 350.334960938 111.006835938 354.000976562 115.173828125 356.000976562 117.506835938 c 0
 358.000976562 119.83984375 360.668945312 123.506835938 364.000976562 128.506835938 c 0
 367.334960938 133.506835938 369.66796875 136.673828125 371.000976562 138.006835938 c 0
 361.66796875 158.006835938 352.66796875 176.006835938 344.000976562 192.006835938 c 0
 336.000976562 207.33984375 321.000976562 230.672851562 299.000976562 262.005859375 c 0
 277.000976562 293.338867188 260.66796875 317.338867188 250.000976562 334.005859375 c 1
 235.333007812 326.672851562 222.666992188 318.005859375 212 308.005859375 c 0
 199.333007812 296.005859375 189.5 283.005859375 182.5 269.005859375 c 0
 175.5 255.005859375 170.5 240.338867188 167.5 225.005859375 c 0
 164.5 209.672851562 163 192.672851562 163 174.005859375 c 0xe8
EndSplineSet
EndChar

StartChar: quotesingle
Encoding: 39 39 7
Width: 620
GlyphClass: 2
Flags: W
VStem: 245 130<452.314 772.656> 245 122<449.441 601.295>
LayerCount: 2
Fore
SplineSet
375 728 m 2x80
 375 687.000976562 l 2x80
 375 669.000976562 374.665039062 641.333984375 373.998046875 604.000976562 c 0
 372.665039062 546.000976562 370.33203125 506.000976562 367 484.000976562 c 0x40
 364.33203125 466.66796875 357 453.66796875 345 445.000976562 c 0
 334.33203125 437.66796875 322.665039062 434.000976562 309.998046875 434.000976562 c 0
 292.665039062 434.000976562 277.33203125 439.000976562 264 449.000976562 c 0
 251.33203125 458.333984375 245 471.333984375 245 488.000976562 c 0
 245 490.000976562 245.33203125 491.66796875 246 493.000976562 c 0
 247.33203125 519.66796875 248 549.66796875 248 583.000976562 c 0
 248 630.333984375 247 680.000976562 245 732.000976562 c 2
 245 735.000976562 l 2
 245 744.333984375 247 752.666992188 251 760 c 0
 255.666015625 768 262.333007812 774 271 778 c 0
 283 782.666992188 295.333007812 785 308 785 c 0
 318 785 326 784 332 782 c 0
 338.66796875 780 345 777.333007812 351 774 c 0
 358.333007812 770 364 763.666992188 368 755 c 0
 372 747 374.333007812 738 375 728 c 2x80
EndSplineSet
EndChar

StartChar: parenleft
Encoding: 40 40 8
Width: 620
GlyphClass: 2
Flags: W
HStem: -144 109<378.685 456.53> 721 105.053<364.656 454.499>
VStem: 147.999 122.75<154.284 548.553>
LayerCount: 2
Fore
SplineSet
471.000976562 -93 m 0
 471.000976562 -107.666992188 465.331054688 -119.666992188 453.998046875 -129 c 0
 442.665039062 -138.333007812 430.665039062 -143.333007812 417.998046875 -144 c 0
 369.998046875 -144 326.998046875 -127 288.998046875 -93 c 0
 250.998046875 -59 220.331054688 -13 196.998046875 45 c 0
 173.665039062 103 158.333007812 169.666992188 150.999023438 245 c 0
 148.999023438 265.666992188 147.999023438 291.333984375 147.999023438 322.000976562 c 0
 147.999023438 352.66796875 149.999023438 391.000976562 153.999023438 437.000976562 c 0
 160.666015625 516.333984375 173.999023438 581.666992188 193.999023438 633 c 0
 202.666015625 656.333007812 214.333007812 679 229.000976562 701 c 0
 243.666992188 723 261.000976562 743.666992188 281.000976562 763 c 0
 300.333007812 781.666992188 322.000976562 797 346.000976562 809 c 0
 369.368164062 820.368164062 392.436523438 826.052734375 415.206054688 826.052734375 c 0
 416.471679688 826.052734375 417.736328125 826.03515625 419.000976562 826 c 0
 437.666992188 826 451.666992188 820.333007812 461.000976562 809 c 0
 468.333007812 800.333007812 472.000976562 788.333007812 472.000976562 773 c 0
 472.000976562 755 466.333007812 741.666992188 455.000976562 733 c 0
 444.333007812 725 431.666015625 721 416.999023438 721 c 0
 402.333007812 721 388.333007812 716.333007812 374.999023438 707 c 0
 361.666015625 698.333007812 349.666015625 686 338.999023438 670 c 0
 317.666015625 638 301.666015625 598 290.999023438 550 c 0
 282.333007812 514.666992188 276.333007812 467.666992188 272.999023438 409 c 0
 271.499023438 386 270.749023438 364.875976562 270.749023438 345.626953125 c 0
 270.749023438 339.208984375 270.833007812 333.000976562 270.999023438 327 c 0
 270.999023438 303 271.666015625 281.666992188 272.999023438 263 c 0
 276.333007812 223.666992188 283.333007812 185 293.999023438 147 c 0
 304.666015625 109 317.333007812 77 332.000976562 51 c 0
 346.000976562 24.3330078125 361.000976562 3 377.000976562 -13 c 0
 391.666992188 -27.6669921875 405.333984375 -35 418.000976562 -35 c 0
 434.000976562 -35 447.000976562 -39.3330078125 457.000976562 -48 c 0
 466.333984375 -56.6669921875 471.000976562 -71.6669921875 471.000976562 -93 c 0
EndSplineSet
EndChar

StartChar: parenright
Encoding: 41 41 9
Width: 620
GlyphClass: 2
Flags: W
HStem: -144 109<163.412 241.235> 721.001 105.1<165.502 255.734>
VStem: 349.251 122.749<154.284 545.5>
LayerCount: 2
Fore
SplineSet
202 -144 m 0
 189.333007812 -144 177.333984375 -138.999023438 166.000976562 -128.999023438 c 0
 154.66796875 -119.666015625 149.000976562 -107.666015625 149.000976562 -92.9990234375 c 0
 149.000976562 -71.666015625 153.66796875 -56.666015625 163.000976562 -47.9990234375 c 0
 171.711914062 -39.2880859375 183.6171875 -34.93359375 198.71484375 -34.93359375 c 0
 199.793945312 -34.93359375 200.890625 -34.955078125 202.000976562 -35 c 0
 214.000976562 -35 227.333984375 -27.6669921875 242.000976562 -13 c 0
 258.66796875 3 274.000976562 24.3330078125 288.000976562 51 c 0
 302.000976562 77.6669921875 314.66796875 109.666992188 326.000976562 147 c 0
 336.66796875 185 343.66796875 223.666992188 347.000976562 263 c 0
 348.500976562 278 349.250976562 294.124023438 349.250976562 311.373046875 c 0
 349.250976562 317.124023438 349.16796875 322.999023438 349.000976562 329 c 0
 349.000976562 352.333007812 348.333984375 379 347.000976562 409 c 0
 343.66796875 467.666992188 337.66796875 514.666992188 329.000976562 550 c 0
 318.333984375 597.333007812 302.333984375 637.333007812 281.000976562 670 c 0
 271.000976562 686 259.000976562 698.333007812 245.000976562 707 c 0
 231.66796875 715.666992188 217.66796875 720.333984375 203.000976562 721.000976562 c 0
 188.333984375 721.000976562 175.66796875 725.000976562 165 733.000976562 c 0
 153.66796875 741.66796875 148 755.000976562 148 773.000976562 c 0
 148 783.000976562 149.66796875 792.000976562 153 800.000976562 c 0
 156.333007812 807.333984375 161.333007812 813.333984375 168 818.000976562 c 0
 176.399414062 823.400390625 186.149414062 826.100585938 197.25 826.100585938 c 0
 198.482421875 826.100585938 199.734375 826.067382812 201 826.000976562 c 0
 225.66796875 826.000976562 250 820.333984375 274 809.000976562 c 0
 298 797.000976562 319.66796875 781.66796875 339 763.000976562 c 0
 358.333007812 744.333984375 375.333007812 723.666992188 390 701 c 0
 404.66796875 679 416.66796875 656.333007812 426 633 c 0
 445.333007812 581.666992188 458.666015625 516.333984375 466 437.000976562 c 0
 470 391.000976562 472 352.66796875 472 322.000976562 c 0
 472 291.333984375 471 265.666992188 469 245 c 0
 461.666015625 169.666992188 446.333007812 103 423 45 c 0
 399.66796875 -13 368.66796875 -59 330 -93 c 0
 292.66796875 -127 250 -144 202 -144 c 0
EndSplineSet
EndChar

StartChar: asterisk
Encoding: 42 42 10
Width: 620
GlyphClass: 2
Flags: W
HStem: 281.004 127.999<63.5334 206.975> 289.002 119.001<404.147 559.842> 294.001 101.002<403.002 518.874>
LayerCount: 2
Fore
SplineSet
223.001953125 102 m 2x20
 212.999023438 102 l 2
 208.33203125 102 202.499023438 102.670898438 195.499023438 104.00390625 c 0
 188.499023438 105.336914062 181.666015625 108 174.999023438 112 c 0
 168.33203125 116 162.33203125 122.00390625 156.999023438 130.00390625 c 0
 151.666015625 138.00390625 147.999023438 147.336914062 145.999023438 158.00390625 c 2
 145.999023438 165.00390625 l 2
 145.999023438 175.00390625 148.666015625 185.333984375 153.999023438 196.000976562 c 2
 208.999023438 285.00390625 l 1
 165.666015625 282.336914062 132.666015625 281.00390625 109.999023438 281.00390625 c 0
 89.9990234375 281.00390625 74.33203125 287.670898438 62.9990234375 301.00390625 c 0
 52.9990234375 313.00390625 47.666015625 327.00390625 46.9990234375 343.00390625 c 2
 46.9990234375 346.00390625 l 2
 46.9990234375 359.336914062 50.666015625 372.669921875 57.9990234375 386.002929688 c 0
 62.666015625 394.002929688 69.666015625 400.002929688 78.9990234375 404.002929688 c 0
 86.33203125 407.3359375 94.33203125 409.002929688 102.999023438 409.002929688 c 2
 107.999023438 409.002929688 l 2x80
 134.666015625 407.002929688 172.333007812 404.3359375 221 401.002929688 c 1
 197.666992188 439.669921875 178 470.002929688 162 492.002929688 c 0
 152.666992188 507.3359375 148 522.3359375 148 537.002929688 c 0
 148 539.669921875 148.333007812 542.336914062 149 545.00390625 c 0
 151 563.670898438 159 576.670898438 173 584.00390625 c 0
 181.666992188 589.336914062 191.5 592.00390625 202.5 592.00390625 c 0
 213.5 592.00390625 224.666992188 588.669921875 236 582.002929688 c 0
 247.333007812 575.3359375 256.333007812 565.669921875 263 553.002929688 c 0
 269.666992188 539.002929688 285.666992188 507.669921875 311 459.002929688 c 1
 330.333007812 493.669921875 346.333007812 524.669921875 359 552.002929688 c 0
 365 564.669921875 373.333007812 574.169921875 384 580.502929688 c 0
 394.666992188 586.8359375 405 590.002929688 415 590.002929688 c 0
 425.666992188 590.002929688 435.666992188 587.3359375 445 582.002929688 c 0
 453.666992188 577.3359375 460.666992188 570.502929688 466 561.502929688 c 0
 471.333007812 552.502929688 474 542.002929688 474 530.002929688 c 0
 474 516.669921875 470 504.336914062 462 493.00390625 c 0
 444 466.336914062 424 433.669921875 402 395.002929688 c 1x20
 448 395.669921875 481.333007812 399.002929688 502 405.002929688 c 0
 510.666992188 407.002929688 516.333984375 408.002929688 519.000976562 408.002929688 c 0x40
 531.66796875 408.002929688 542.66796875 403.669921875 552.000976562 395.002929688 c 0x20
 565.333984375 382.3359375 572.333984375 368.668945312 573.000976562 354.001953125 c 0
 573.000976562 339.334960938 569.333984375 325.334960938 562.000976562 312.001953125 c 0
 557.333984375 304.001953125 551.000976562 297.668945312 543.000976562 293.001953125 c 0
 537.000976562 290.334960938 530.66796875 289.001953125 524.000976562 289.001953125 c 0x40
 520.66796875 289.001953125 517.334960938 289.334960938 514.001953125 290.001953125 c 0
 500.114257812 292.779296875 477.432617188 294.16796875 445.956054688 294.16796875 c 0
 439.65625 294.16796875 433.005859375 294.112304688 426.001953125 294.000976562 c 2
 403.001953125 294.000976562 l 1
 460.001953125 196.000976562 l 2
 467.334960938 181.333984375 471.001953125 168.000976562 471.001953125 156.000976562 c 0
 471.001953125 153.333984375 470.668945312 150.666992188 470.001953125 148 c 0
 468.001953125 132 461.001953125 120.666992188 449.001953125 114 c 0
 439.668945312 108 428.001953125 105 414.001953125 105 c 0
 403.334960938 105 392.66796875 107.333007812 382.000976562 112 c 0
 368.66796875 118 359.66796875 128 355.000976562 142 c 0
 347.66796875 164 334.334960938 194.666992188 315.001953125 234 c 1
 290.334960938 184.666992188 274.66796875 151.666992188 268.000976562 135 c 0
 264.66796875 124.333007812 258.834960938 116.333007812 250.501953125 111 c 0
 242.168945312 105.666992188 233.001953125 102.666992188 223.001953125 102 c 2x20
EndSplineSet
EndChar

StartChar: plus
Encoding: 43 43 11
Width: 620
GlyphClass: 2
Flags: W
HStem: 346 105.998<122.472 256 361 499.621>
VStem: 256 105<209.378 344.998 452.998 593.588>
LayerCount: 2
Fore
SplineSet
360.000976562 347 m 1
 361 249.999023438 l 2
 361 230.666015625 356.333007812 216.999023438 347 208.999023438 c 0
 337.666992188 200.33203125 326 195.665039062 312 194.998046875 c 2
 311 194.998046875 l 2
 295 194.998046875 282.666992188 198.665039062 274 205.998046875 c 0
 262 215.331054688 256 229.998046875 256 249.998046875 c 2
 256 344.998046875 l 1
 167 343.998046875 l 2
 147 343.998046875 132 349.331054688 122 359.998046875 c 0
 111.333007812 370.665039062 106 383.665039062 106 398.998046875 c 2
 106 401.998046875 l 2
 106 415.998046875 110.666992188 428.331054688 120 438.998046875 c 0
 130 449.665039062 144.333007812 454.998046875 163 454.998046875 c 0
 164.333007812 454.998046875 175 454.665039062 195 453.998046875 c 0
 215 453.331054688 235.333007812 452.998046875 256 452.998046875 c 1
 256 492.331054688 255 525.6640625 253 552.997070312 c 0
 253 571.6640625 259.333007812 585.331054688 272 593.998046875 c 0
 281.333007812 600.665039062 293.333007812 603.998046875 308 603.998046875 c 2
 312 603.998046875 l 2
 326 603.998046875 338 600.665039062 348 593.998046875 c 0
 359.333007812 585.998046875 365 572.998046875 365 554.998046875 c 2
 365 548.998046875 l 2
 363 514.998046875 361.666992188 482.665039062 361 451.998046875 c 1
 459 451.998046875 l 2
 478.333007812 451.998046875 492 447.331054688 500 437.998046875 c 0
 508 428.665039062 512.666992188 416.998046875 514 402.998046875 c 2
 514 401.998046875 l 2
 514 394.665039062 513.333007812 388.33203125 512 382.999023438 c 0
 510.666992188 376.999023438 508 370.999023438 504 364.999023438 c 0
 499.333007812 357.666015625 493 352.333007812 485 349 c 0
 479 347 472.333007812 346 465 346 c 2
 458 346 l 2
 448 347.333007812 433.666992188 348 415 348 c 0
 395.666992188 348 377.333984375 347.666992188 360.000976562 347 c 1
EndSplineSet
EndChar

StartChar: comma
Encoding: 44 44 12
Width: 620
GlyphClass: 2
Flags: W
VStem: 195.001 229.998
LayerCount: 2
Fore
SplineSet
280.997070312 -223 m 0
 270.330078125 -227 260.999023438 -228.999023438 252.999023438 -228.999023438 c 0
 244.999023438 -228.999023438 237.999023438 -227.666015625 231.999023438 -224.999023438 c 0
 223.333007812 -222.33203125 215.333007812 -217.33203125 207.999023438 -209.999023438 c 0
 200.666015625 -202.666015625 196.333007812 -193.333007812 195.000976562 -182 c 2
 195.000976562 -176 l 2
 195.000976562 -166 198.333007812 -156 205.000976562 -146 c 0
 218.333007812 -127.333007812 237.000976562 -84.3330078125 261.000976562 -17 c 0
 285.000976562 49 300.000976562 96 306.000976562 124 c 0
 308.666992188 136 314.666992188 145.333007812 324.000976562 152 c 0
 333.333007812 159.333007812 343.666015625 163 354.999023438 163 c 2
 356.999023438 163 l 2
 364.999023438 163 373.333007812 162.333007812 381.999023438 161 c 0
 395.333007812 157 406.333007812 149 414.999023438 137 c 0
 421.666015625 127.666992188 424.999023438 117.333984375 424.999023438 106.000976562 c 0
 424.999023438 101.333984375 424.666015625 97.333984375 423.999023438 94.0009765625 c 0
 417.333007812 61.333984375 402.665039062 10.6669921875 379.998046875 -58 c 0
 357.331054688 -127.333007812 339.998046875 -170.333007812 327.998046875 -187 c 0
 315.331054688 -204.333007812 299.665039062 -216.333007812 280.997070312 -223 c 0
EndSplineSet
EndChar

StartChar: hyphen
Encoding: 45 45 13
Width: 620
GlyphClass: 2
Flags: W
HStem: 230.001 111.999<161.44 460.172> 239.002 106<323.731 462.621>
LayerCount: 2
Fore
SplineSet
197 342 m 0x80
 235 342 280 342.333984375 332 343.000976562 c 0
 384.666992188 343.66796875 414.666992188 344.334960938 422 345.001953125 c 0
 441.333007812 345.001953125 455 340.334960938 463 331.001953125 c 0
 471 321.668945312 475.666992188 310.001953125 477 296.001953125 c 2
 477 295.001953125 l 2
 477 279.001953125 473.333007812 266.668945312 466 258.001953125 c 0
 456.666992188 246.001953125 442 239.668945312 422 239.001953125 c 0x40
 413.333007812 239.001953125 379.666015625 237.668945312 320.999023438 235.001953125 c 0
 262.33203125 232.334960938 221.33203125 230.66796875 197.999023438 230.000976562 c 0
 182.666015625 230.000976562 170.333007812 234.000976562 161 242.000976562 c 0
 149 251.333984375 143 265.666992188 143 285 c 2
 143 290 l 2
 143 308.666992188 149 322.666992188 161 332 c 0
 169.666992188 338.666992188 181.666992188 342 197 342 c 0x80
EndSplineSet
EndChar

StartChar: period
Encoding: 46 46 14
Width: 620
GlyphClass: 2
Flags: W
HStem: -26 178.037<252.144 370.352>
VStem: 216.481 187.037<6.96988 117.608>
LayerCount: 2
Fore
SplineSet
302.481445312 -26 m 2
 279.1484375 -26 259.481445312 -18 243.481445312 -2 c 0
 225.481445312 16.6669921875 216.481445312 38.333984375 216.481445312 63.0009765625 c 0
 216.481445312 87.66796875 226.481445312 108.66796875 246.481445312 126.000976562 c 0
 266.411132812 143.357421875 288.508789062 152.037109375 312.776367188 152.037109375 c 0
 313.674804688 152.037109375 314.577148438 152.024414062 315.481445312 152.000976562 c 0
 340.815429688 152.000976562 361.815429688 144.000976562 378.481445312 128.000976562 c 0
 395.172851562 111.310546875 403.518554688 91.5283203125 403.518554688 68.6552734375 c 0
 403.518554688 55.5234375 402.8828125 28.376953125 379.481445312 4 c 0
 362.813476562 -12.6669921875 340.813476562 -22.6669921875 313.481445312 -26 c 2
 302.481445312 -26 l 2
EndSplineSet
EndChar

StartChar: slash
Encoding: 47 47 15
Width: 620
GlyphClass: 2
Flags: W
HStem: 746.004 20G<502.917 513.583>
LayerCount: 2
Fore
SplineSet
126.25 -67 m 0
 116.916992188 -71.6669921875 107.58203125 -73.9970703125 98.2490234375 -73.9970703125 c 0
 88.916015625 -73.9970703125 80.2490234375 -71.330078125 72.2490234375 -65.9970703125 c 0
 58.916015625 -57.9970703125 50.916015625 -42.6640625 48.2490234375 -19.9970703125 c 0
 47.58203125 -16.6640625 47.58203125 -12.9970703125 48.2490234375 -8.9970703125 c 0
 48.2490234375 9.0029296875 52.916015625 25.669921875 62.2490234375 41.0029296875 c 0
 159.58203125 201.002929688 242.915039062 343.002929688 312.248046875 467.002929688 c 1
 355.581054688 543.002929688 401.581054688 629.669921875 450.248046875 727.002929688 c 0
 456.915039062 739.669921875 465.58203125 749.002929688 476.249023438 755.002929688 c 0
 486.916015625 761.669921875 497.583007812 765.336914062 508.25 766.00390625 c 0
 518.916992188 766.00390625 529.583984375 763.670898438 540.250976562 759.00390625 c 0
 555.583984375 751.00390625 565.583984375 739.00390625 570.250976562 723.00390625 c 0
 571.583984375 718.336914062 572.250976562 713.669921875 572.250976562 709.002929688 c 0
 572.250976562 697.669921875 568.91796875 685.002929688 562.250976562 671.002929688 c 0
 544.91796875 636.3359375 496.250976562 552.668945312 416.250976562 420.001953125 c 0
 336.250976562 287.334960938 287.583984375 204.66796875 270.250976562 172.000976562 c 0
 259.583984375 151.333984375 242.250976562 116.333984375 218.250976562 67.0009765625 c 0
 194.250976562 17.66796875 179.250976562 -12.33203125 173.250976562 -22.9990234375 c 0
 160.583984375 -43.666015625 144.916992188 -58.3330078125 126.25 -67 c 0
EndSplineSet
EndChar

StartChar: zero
Encoding: 48 48 16
Width: 620
GlyphClass: 2
Flags: W
HStem: -24.001 107.996<220.58 380.453> 611.995 106.005<236.512 387.238>
VStem: 51 120.999<228.996 530.163> 448.999 115.999<165.933 399.325 400.71 457.995>
LayerCount: 2
Fore
SplineSet
448.999023438 457.995117188 m 1
 376.33203125 330.662109375 292.666992188 221.995117188 198 131.995117188 c 1
 216 100.662109375 245.33203125 84.662109375 285.999023438 83.9951171875 c 0
 305.33203125 83.9951171875 322 85.4951171875 336 88.4951171875 c 0
 350 91.4951171875 363.333984375 96.328125 376 102.995117188 c 0
 401.333984375 116.328125 420.666015625 143.328125 433.999023438 183.995117188 c 0
 436.666015625 191.995117188 439.666015625 213.495117188 442.999023438 248.495117188 c 0
 446.33203125 283.495117188 448.666015625 323.995117188 449.998046875 369.995117188 c 0
 450.220703125 380 450.33203125 389.930664062 450.33203125 399.787109375 c 0
 450.33203125 419.486328125 449.888671875 438.888671875 448.999023438 457.995117188 c 1
371 599.997070312 m 0
 353.666992188 607.997070312 334.666015625 611.995117188 313.999023438 611.995117188 c 0
 277.33203125 611.995117188 248.83203125 602.828125 228.499023438 584.495117188 c 0
 208.166015625 566.162109375 192.333984375 534.995117188 181 490.995117188 c 0
 176.333984375 473.662109375 173 455.329101562 171 435.99609375 c 0
 169.666992188 415.99609375 169 393.329101562 169 367.99609375 c 0
 169 327.99609375 169.999023438 281.663085938 171.999023438 228.99609375 c 1
 258.666015625 339.663085938 338 453.330078125 410 569.997070312 c 1
 398.666992188 582.6640625 385.666992188 592.6640625 371 599.997070312 c 0
564.998046875 490.995117188 m 2
 564.998046875 489.998046875 l 2
 568.331054688 450.665039062 570 410.662109375 570 369.995117188 c 0
 570 329.328125 568.666992188 289.331054688 566 249.998046875 c 0
 563.333984375 210.665039062 559 179.665039062 553 156.998046875 c 0
 541 114.331054688 526 79.6640625 508 52.9970703125 c 0
 498.666992188 39.6640625 488.166992188 28.3310546875 476.5 18.998046875 c 0
 464.833984375 9.6650390625 452.666015625 2.33203125 439.999023438 -3.0009765625 c 0
 426.666015625 -8.333984375 411.666015625 -13.0009765625 394.999023438 -17.0009765625 c 0
 377.666015625 -20.333984375 360.666015625 -22.333984375 343.999023438 -23.0009765625 c 0
 327.33203125 -23.66796875 307.999023438 -24.0009765625 285.999023438 -24.0009765625 c 0
 249.999023438 -24.0009765625 216.666015625 -18.333984375 185.999023438 -7.0009765625 c 0
 157.33203125 4.33203125 132.999023438 20.4990234375 113 41.4990234375 c 0
 93 62.4990234375 77.666015625 87.666015625 67 116.999023438 c 0
 56.33203125 146.33203125 51 177.999023438 51 211.999023438 c 2
 51 217.999023438 l 2
 51 250.666015625 50.666015625 281.333007812 50 310 c 0
 50 330.666992188 50.5 356 51.5 386 c 0
 52.5 416 54.166015625 440.833007812 56.5 460.5 c 0
 58.83203125 480.166992188 62.33203125 501.333984375 67 524.000976562 c 0
 71.666015625 547.333984375 77.666015625 567.666992188 85 585 c 0
 102.33203125 628.333007812 131.33203125 661.333007812 171.999023438 684 c 0
 215.999023438 706.666992188 269.33203125 718 331.999023438 718 c 0
 363.33203125 718 392.666015625 713.333007812 419.998046875 704 c 0
 446.666015625 694.666992188 470.166015625 680.666992188 490.498046875 662 c 0
 510.831054688 643.333007812 527.498046875 619.5 540.498046875 590.5 c 0
 553.498046875 561.5 561.666015625 528.328125 564.998046875 490.995117188 c 2
EndSplineSet
EndChar

StartChar: one
Encoding: 49 49 17
Width: 620
GlyphClass: 2
Flags: W
HStem: -9.00098 110.501<99.3264 246.998 378.002 561.561> -5.00098 114.001<55.4389 246.998 378.002 446.524>
VStem: 246.998 131.004<107 552.809> 257.999 123.003<266.377 552.809>
LayerCount: 2
Fore
SplineSet
578.001953125 49.9990234375 m 1xa0
 578.001953125 46.9990234375 l 2
 578.001953125 31.666015625 573.33203125 18.666015625 563.999023438 7.9990234375 c 0
 553.999023438 -3.333984375 536.999023438 -9.0009765625 512.999023438 -9.0009765625 c 0xa0
 260.33203125 -7.0009765625 121.665039062 -5.66796875 96.998046875 -5.0009765625 c 0
 78.3310546875 -5.0009765625 64.3310546875 0.33203125 54.998046875 10.9990234375 c 0
 46.3310546875 21.666015625 41.998046875 34.666015625 41.998046875 49.9990234375 c 2
 41.998046875 52.9990234375 l 2
 41.998046875 67.666015625 45.998046875 80.3330078125 53.998046875 91 c 0
 63.3310546875 103 77.998046875 109 97.998046875 109 c 0
 125.998046875 109 175.665039062 108.333007812 246.998046875 107 c 1x60
 246.998046875 127 246.665039062 143.666992188 245.998046875 157 c 0
 245.331054688 163 244.998046875 180.333007812 244.998046875 209 c 0
 244.998046875 234.333007812 245.331054688 255 245.998046875 271 c 0
 245.998046875 289 247.331054688 325 249.998046875 379 c 0
 254.665039062 480.333007812 257.33203125 539.333007812 257.999023438 556 c 1
 214.666015625 526 181.666015625 507 158.999023438 499 c 0
 150.999023438 497 145.666015625 496 142.999023438 496 c 0
 130.999023438 496 118.999023438 501 106.999023438 511 c 0
 90.9990234375 524.333007812 82.9990234375 538 82.9990234375 552 c 0
 82.9990234375 565.333007812 85.9990234375 576.833007812 91.9990234375 586.5 c 0
 97.9990234375 596.166992188 107.666015625 606 120.999023438 616 c 0
 139.666015625 630 164.333007812 648.666992188 195 672 c 1
 207.666992188 674 220.333984375 683 233.000976562 699 c 0
 244.333984375 707 256.000976562 714.333007812 268.000976562 721 c 0
 278.909179688 727.060546875 289.267578125 730.090820312 299.07421875 730.090820312 c 0
 300.055664062 730.090820312 301.03125 730.060546875 302.000976562 730 c 0
 320.66796875 730 339.334960938 723.333007812 358.001953125 710 c 0
 368.001953125 702.666992188 375.501953125 696 380.501953125 690 c 0
 385.501953125 684 388.001953125 678 388.001953125 672 c 2
 388.001953125 671 l 2
 387.334960938 655.666992188 385.001953125 603.166992188 381.001953125 513.5 c 0x50
 377.001953125 423.833007812 375.001953125 371.333007812 375.001953125 356 c 0
 375.001953125 292 375.334960938 238.666992188 376.001953125 196 c 0
 376.001953125 174 376.668945312 143 378.001953125 103 c 1
 414.001953125 102.333007812 437.001953125 102 447.001953125 102 c 0
 456.334960938 102 468.834960938 101.833007812 484.501953125 101.5 c 0
 500.168945312 101.166992188 510.3359375 101 515.002929688 101 c 0
 537.002929688 101 552.669921875 96.1669921875 562.002929688 86.5 c 0
 571.3359375 76.8330078125 576.668945312 65 578.001953125 51 c 2
 578.001953125 49.9990234375 l 1xa0
EndSplineSet
EndChar

StartChar: two
Encoding: 50 50 18
Width: 620
GlyphClass: 2
Flags: W
HStem: -18.0029 108.432<178.591 492.107> -12.0029 113.999<495.311 552.623> 506.999 21G<126.667 131.667> 612.998 109.001<238.888 402.109>
VStem: 427 126<456.851 587.935>
LayerCount: 2
Fore
SplineSet
494.998046875 101 m 1xb8
 501.665039062 109.666992188 508.66796875 109.99609375 516.000976562 101.99609375 c 0
 518.000976562 101.99609375 521.833984375 101.829101562 527.500976562 101.49609375 c 0
 533.16796875 101.163085938 537.66796875 100.163085938 541.000976562 98.49609375 c 0
 544.333984375 96.8291015625 547.666015625 94.99609375 551 92.99609375 c 0
 556.333007812 89.6630859375 560 85.6630859375 562 80.99609375 c 0
 566 72.99609375 568 63.6630859375 568 52.99609375 c 0
 568 33.6630859375 563 17.330078125 553 3.9970703125 c 0
 545 -6.669921875 534.666015625 -12.0029296875 522 -12.0029296875 c 0x78
 474.666015625 -12.0029296875 398.666015625 -14.0029296875 294 -18.0029296875 c 0
 258.666015625 -19.3359375 222.333984375 -20.0029296875 185.000976562 -20.0029296875 c 0
 150.333984375 -20.0029296875 123.333984375 -18.669921875 104 -16.0029296875 c 0
 93.333984375 -14.669921875 84 -10.3369140625 76 -3.00390625 c 0
 70 2.3291015625 65.333984375 9.3291015625 62 17.99609375 c 0
 55.333984375 35.3291015625 52 59.3291015625 52 89.99609375 c 0
 52 120.663085938 58.333984375 151.663085938 71 182.99609375 c 0
 83.66796875 214.329101562 102.66796875 244.49609375 128.000976562 273.49609375 c 0
 153.333984375 302.49609375 183.666015625 325.99609375 219 343.99609375 c 0
 297 381.99609375 347 408.663085938 369 423.99609375 c 0
 395.666015625 442.663085938 413 462.330078125 421 482.997070312 c 0
 425 495.6640625 427 511.331054688 427 529.998046875 c 0
 427 559.331054688 418 580.331054688 400 592.998046875 c 0
 380.666015625 606.331054688 351.666015625 612.998046875 313 612.998046875 c 0
 287 612.998046875 262.166015625 605.665039062 238.5 590.998046875 c 0
 214.833007812 576.331054688 196.333007812 559.998046875 183 541.998046875 c 0
 176.333007812 532.665039062 169.333007812 524.83203125 162 518.499023438 c 0
 154.666015625 512.166015625 147 508.666015625 139 507.999023438 c 0
 136.333007812 507.999023438 133.333007812 507.666015625 130 506.999023438 c 0
 123.333007812 506.999023438 112.33203125 510.33203125 97 516.999023438 c 0
 82.33203125 524.999023438 73 536.33203125 69 550.999023438 c 0
 68.33203125 554.999023438 68 558.666015625 68 561.999023438 c 0
 68 573.33203125 71.666015625 586.999023438 79 602.999023438 c 0
 86.33203125 616.999023438 97 630.83203125 111 644.499023438 c 0
 125 658.166015625 141 670.999023438 159 682.999023438 c 0
 178.333007812 694.999023438 201.333007812 704.499023438 228 711.499023438 c 0
 254.666015625 718.499023438 281.666015625 721.999023438 309 721.999023438 c 0
 391 721.999023438 452.333007812 704.999023438 493 670.999023438 c 0
 533 636.999023438 553 585.999023438 553 517.999023438 c 0
 553 461.999023438 538 416.666015625 508 381.999023438 c 0
 486 357.33203125 446 330.33203125 388 300.999023438 c 0
 373.333007812 293.666015625 348 281.666015625 312 264.999023438 c 0
 282 250.999023438 257 233.83203125 237 213.499023438 c 0
 217 193.166015625 202.333007812 172.333007812 193 151 c 0
 185.666015625 133 180.666015625 113.666992188 178 93 c 1
 211.716796875 91.28515625 243.962890625 90.4287109375 274.740234375 90.4287109375 c 0
 279.868164062 90.4287109375 284.954101562 90.4521484375 289.998046875 90.5 c 0
 325.33203125 90.8330078125 352.665039062 91.3330078125 371.998046875 92 c 0
 391.998046875 93.3330078125 432.998046875 96.3330078125 494.998046875 101 c 1xb8
EndSplineSet
EndChar

StartChar: three
Encoding: 51 51 19
Width: 620
GlyphClass: 2
Flags: W
HStem: -24.0166 108.017<227.507 387.542> 306 125<189.72 353.949> 520.002 21G<129.501 136.834> 613.001 109.001<222.846 387.21>
VStem: 413.502 126.997<479.219 589.309> 438.5 124<130.061 255.137>
LayerCount: 2
Fore
SplineSet
551.5 279.5 m 0xf8
 558.833007812 257.833007812 562.5 232.330078125 562.5 202.997070312 c 0
 562.5 133.6640625 540.166992188 78.3310546875 495.5 36.998046875 c 0
 450.23046875 -3.6787109375 385.268554688 -24.0166015625 300.61328125 -24.0166015625 c 0
 299.247070312 -24.0166015625 297.875976562 -24.01171875 296.5 -24.0009765625 c 0
 269.166992188 -24.0009765625 242.166992188 -20.333984375 215.5 -13.0009765625 c 0
 188.833007812 -5.66796875 166.333007812 3.6650390625 148 14.998046875 c 0
 129.666992188 26.3310546875 113.5 38.998046875 99.5 52.998046875 c 0
 85.5 66.998046875 75 80.8310546875 68 94.498046875 c 0
 61 108.165039062 57.5 120.998046875 57.5 132.998046875 c 0
 57.5 136.998046875 58.1669921875 140.998046875 59.5 144.998046875 c 0
 62.8330078125 161.665039062 71.8330078125 173.33203125 86.5 179.999023438 c 0
 97.1669921875 185.33203125 107.166992188 187.999023438 116.5 187.999023438 c 0
 136.5 187.999023438 154.5 177.33203125 170.5 155.999023438 c 0
 185.166992188 136.666015625 204.166992188 119.833007812 227.5 105.5 c 0
 250.833007812 91.1669921875 275.5 84 301.5 84 c 0
 342.166992188 84 375.166992188 93.8330078125 400.5 113.5 c 0
 425.833007812 133.166992188 438.5 158 438.5 188 c 0xf4
 438.5 207.333007812 435.166992188 223.833007812 428.5 237.5 c 0
 421.833007812 251.166992188 411.333007812 263.166992188 397 273.5 c 0
 382.666992188 283.833007812 362.333984375 291.833007812 336.000976562 297.5 c 0
 309.66796875 303.166992188 277.500976562 306 239.500976562 306 c 0
 220.16796875 306 204.16796875 312.666992188 191.500976562 326 c 0
 178.16796875 339.333007812 171.500976562 354.333007812 171.500976562 371 c 0
 171.500976562 387.666992188 176.16796875 401.666992188 185.500976562 413 c 0
 196.16796875 425 211.500976562 431 231.500976562 431 c 0
 290.16796875 431 335.834960938 440.666992188 368.501953125 460 c 0
 398.501953125 478 413.501953125 504 413.501953125 538 c 2
 413.501953125 541 l 1
 413.501953125 545 l 2
 413.501953125 567.666992188 404.168945312 584.333984375 385.501953125 595.000976562 c 0
 363.501953125 607.000976562 331.501953125 613.000976562 289.501953125 613.000976562 c 0
 276.834960938 613.000976562 263.16796875 611.000976562 248.500976562 607.000976562 c 0
 244.500976562 605.66796875 239.833984375 603.16796875 234.500976562 599.500976562 c 0
 229.16796875 595.833984375 225.000976562 592.833984375 222.000976562 590.500976562 c 0
 219.000976562 588.16796875 215.000976562 584.334960938 210.000976562 579.001953125 c 0
 205.000976562 573.668945312 201.500976562 569.668945312 199.500976562 567.001953125 c 0
 195.500976562 554.334960938 191.833984375 549.66796875 188.500976562 553.000976562 c 1
 175.16796875 535.66796875 161.500976562 525.334960938 147.500976562 522.001953125 c 0
 143.500976562 520.668945312 139.16796875 520.001953125 134.500976562 520.001953125 c 0
 124.500976562 520.001953125 114.16796875 523.001953125 103.500976562 529.001953125 c 0
 88.833984375 536.334960938 79.833984375 548.001953125 76.5009765625 564.001953125 c 0
 75.833984375 568.001953125 75.5009765625 572.001953125 75.5009765625 576.001953125 c 0
 75.5009765625 588.001953125 78.833984375 601.001953125 85.5009765625 615.001953125 c 0
 99.5009765625 643.668945312 121.16796875 668.001953125 150.500976562 688.001953125 c 0
 165.833984375 698.668945312 185.166992188 707.001953125 208.5 713.001953125 c 0
 231.833007812 719.001953125 257.166015625 722.001953125 284.499023438 722.001953125 c 0
 372.499023438 722.001953125 437.499023438 705.668945312 479.499023438 673.001953125 c 0
 520.166015625 640.334960938 540.499023438 592.66796875 540.499023438 530.000976562 c 2
 540.499023438 526.000976562 l 1
 540.499023438 523.000976562 l 2
 540.499023438 504.333984375 537.666015625 486.833984375 531.999023438 470.500976562 c 0
 526.33203125 454.16796875 518.665039062 440.334960938 508.998046875 429.001953125 c 0
 499.331054688 417.668945312 487.831054688 407.668945312 474.498046875 399.001953125 c 0
 461.165039062 390.334960938 447.498046875 383.66796875 433.498046875 379.000976562 c 1
 444.165039062 375.66796875 453.83203125 372.334960938 462.499023438 369.001953125 c 0
 483.166015625 360.334960938 501.333007812 348.66796875 517 334.000976562 c 0
 532.666992188 319.333984375 544.166992188 301.166992188 551.5 279.5 c 0xf8
EndSplineSet
EndChar

StartChar: four
Encoding: 52 52 20
Width: 620
GlyphClass: 2
Flags: W
HStem: -23 21G<438 453.333> 218.999 90.001<180.216 381.999 483.001 551.169>
VStem: 375.001 98.999<456.567 587.448> 380.999 102.002<37.313 218 309 587.448> 381.999 109.002<-7.4969 213.685>
LayerCount: 2
Fore
SplineSet
489.000976562 59 m 0xd0
 490.333984375 51 491.000976562 43.6669921875 491.000976562 37 c 0xc8
 491.000976562 23.6669921875 488.333984375 12 483.000976562 2 c 0xd0
 474.333984375 -14.6669921875 461.666992188 -23 445 -23 c 0
 431 -23 417.166992188 -17.8330078125 403.5 -7.5 c 0
 389.833007812 2.8330078125 382.666015625 13.666015625 381.999023438 24.9990234375 c 0xc8
 381.33203125 32.9990234375 380.999023438 45.666015625 380.999023438 62.9990234375 c 2
 380.999023438 138.999023438 l 2xd0
 380.999023438 166.33203125 381.33203125 192.999023438 381.999023438 218.999023438 c 1xc8
 336.999023438 218.999023438 l 2
 238.33203125 218.999023438 168.665039062 214.666015625 127.998046875 205.999023438 c 0
 123.331054688 204.666015625 118.331054688 204.166015625 112.998046875 204.499023438 c 0
 107.665039062 204.83203125 102.33203125 205.665039062 96.9990234375 206.998046875 c 0
 87.666015625 210.331054688 80.166015625 215.498046875 74.4990234375 222.498046875 c 0
 68.83203125 229.498046875 64.4990234375 237.498046875 61.4990234375 246.498046875 c 0
 58.4990234375 255.498046875 56.9990234375 264.665039062 56.9990234375 273.998046875 c 0
 56.9990234375 284.665039062 58.666015625 294.665039062 61.9990234375 303.998046875 c 0
 68.666015625 323.331054688 86.666015625 353.831054688 115.999023438 395.498046875 c 0
 145.33203125 437.165039062 183.999023438 488.998046875 231.999023438 550.998046875 c 0
 274.666015625 605.665039062 308.666015625 650.33203125 333.999023438 684.999023438 c 0
 343.33203125 697.666015625 353.999023438 707.499023438 365.999023438 714.499023438 c 0
 377.999023438 721.499023438 389.666015625 724.999023438 400.999023438 724.999023438 c 2
 407.999023438 724.999023438 l 2
 419.999023438 724.999023438 430.999023438 722.666015625 440.999023438 717.999023438 c 0
 453.666015625 711.33203125 461.333007812 699.999023438 464 683.999023438 c 2
 464 682.999023438 l 1
 468 659.666015625 471.333007812 624.166015625 474 576.499023438 c 0xe0
 476.666992188 528.83203125 478.333984375 488.33203125 479.000976562 454.999023438 c 0
 479.66796875 405.666015625 480.66796875 356.666015625 482.000976562 307.999023438 c 1
 492.000976562 307.33203125 503.000976562 306.999023438 515.000976562 306.999023438 c 0
 532.333984375 306.999023438 544.500976562 303.166015625 551.500976562 295.499023438 c 0
 558.500976562 287.83203125 562.333984375 277.999023438 563.000976562 265.999023438 c 2
 563.000976562 265 l 2
 563.000976562 251 559.66796875 240 553.000976562 232 c 0
 545.000976562 222 532.333984375 217 515.000976562 217 c 0
 503.66796875 217 493.000976562 217.333007812 483.000976562 218 c 1
 484.333984375 125.333007812 486.333984375 72.3330078125 489.000976562 59 c 0xd0
314.000976562 309 m 2
 381.999023438 309 l 1xc8
 381.999023438 424.333007812 379.66796875 517.666015625 375.000976562 588.999023438 c 1xe0
 280.333984375 469.666015625 215.000976562 375.333007812 179.000976562 306 c 1
 216.333984375 308 261.333984375 309 314.000976562 309 c 2
EndSplineSet
EndChar

StartChar: five
Encoding: 53 53 21
Width: 620
GlyphClass: 2
Flags: W
HStem: -18.002 109.001<204.765 366.839> 407.998 113.043<241.316 410.675> 594.995 112.998<286.603 547.12> 605.995 103.998<180.501 509.887>
VStem: 58.501 119<466.431 602.995> 448.498 124.003<181.147 368.764>
LayerCount: 2
Fore
SplineSet
63.5009765625 561 m 0xdc
 64.833984375 581.666992188 65.4951171875 596.993164062 65.4951171875 606.993164062 c 1
 58.7734375 617.9921875 55.4130859375 630.672851562 55.4130859375 645.033203125 c 0
 55.4130859375 658.096679688 55.94140625 681.393554688 75.49609375 698.993164062 c 0
 84.8291015625 707.66015625 95.49609375 711.993164062 107.49609375 711.993164062 c 0
 132.163085938 711.993164062 194.163085938 711.326171875 293.497070312 709.993164062 c 0xdc
 394.163085938 708.66015625 468.497070312 707.993164062 516.497070312 707.993164062 c 0
 529.163085938 707.993164062 539.497070312 702.66015625 547.497070312 691.993164062 c 0
 557.497070312 678.66015625 562.497070312 662.327148438 562.497070312 642.994140625 c 0
 562.497070312 622.994140625 556.829101562 609.661132812 545.497070312 602.994140625 c 0
 542.163085938 600.994140625 538.830078125 599.327148438 535.497070312 597.994140625 c 0
 532.165039062 596.661132812 527.665039062 595.828125 521.997070312 595.495117188 c 0
 516.330078125 595.162109375 512.330078125 594.995117188 509.997070312 594.995117188 c 0xec
 507.665039062 594.995117188 503.997070312 595.162109375 498.997070312 595.495117188 c 0
 493.997070312 595.828125 490.830078125 595.995117188 489.497070312 595.995117188 c 1
 480.165039062 595.995117188 462.831054688 597.328125 437.498046875 599.995117188 c 0
 410.831054688 601.995117188 387.331054688 603.495117188 366.998046875 604.495117188 c 0
 346.665039062 605.495117188 319.333007812 605.995117188 284.999023438 605.995117188 c 0
 250.666015625 605.995117188 215.833007812 604.995117188 180.500976562 602.995117188 c 1
 178.366210938 562.998046875 177.299804688 535.798828125 177.299804688 521.3984375 c 0
 177.299804688 517.796875 177.366210938 514.99609375 177.500976562 512.995117188 c 0
 177.500976562 500.995117188 177.333007812 492.495117188 177.000976562 487.495117188 c 0
 176.666992188 482.495117188 176.833984375 475.328125 177.500976562 465.995117188 c 1
 195.500976562 479.328125 217.168945312 490.995117188 242.500976562 500.995117188 c 0
 277.500976562 514.358398438 316.751953125 521.041015625 360.254882812 521.041015625 c 0
 362.327148438 521.041015625 364.409179688 521.025390625 366.500976562 520.995117188 c 0
 401.168945312 520.995117188 432.168945312 515.328125 459.500976562 503.995117188 c 0
 484.833984375 492.662109375 505.666992188 476.829101562 522.000976562 456.49609375 c 0
 538.333007812 436.163085938 550.833007812 412.830078125 559.500976562 386.497070312 c 0
 568.166992188 360.1640625 572.500976562 331.6640625 572.500976562 300.997070312 c 0
 572.500976562 251.6640625 566.166992188 206.831054688 553.500976562 166.498046875 c 0
 540.833007812 126.165039062 522.666015625 92.498046875 498.999023438 65.498046875 c 0
 475.333007812 38.498046875 445.833007812 17.998046875 410.499023438 3.998046875 c 0
 374.499023438 -10.6689453125 335.499023438 -18.001953125 293.499023438 -18.001953125 c 0
 260.166015625 -18.001953125 229.166015625 -14.6689453125 200.499023438 -8.001953125 c 0
 172.499023438 -1.3349609375 149.833007812 7.33203125 132.499023438 17.9990234375 c 0
 115.166015625 28.666015625 100.499023438 40.3330078125 88.4990234375 53 c 0
 76.4990234375 65.6669921875 66.4990234375 79 58.4990234375 93 c 0
 51.166015625 109 47.4990234375 122.666992188 47.4990234375 134 c 0
 47.4990234375 138 48.166015625 142 49.4990234375 146 c 0
 52.83203125 160.666992188 62.1650390625 172 77.498046875 180 c 0
 85.498046875 183.333007812 91.998046875 185.666015625 96.998046875 186.999023438 c 0
 101.998046875 188.33203125 106.331054688 188.999023438 109.998046875 188.999023438 c 0
 113.665039062 188.999023438 116.498046875 188.666015625 118.498046875 187.999023438 c 0
 127.165039062 187.33203125 135.165039062 183.665039062 142.498046875 176.998046875 c 0
 148.498046875 171.665039062 154.831054688 164.33203125 161.498046875 154.999023438 c 0
 191.498046875 112.33203125 231.831054688 90.9990234375 282.498046875 90.9990234375 c 0
 333.165039062 90.9990234375 373.165039062 108.33203125 402.498046875 142.999023438 c 0
 433.165039062 178.999023438 448.498046875 227.666015625 448.498046875 288.999023438 c 0
 448.498046875 326.33203125 439.165039062 355.665039062 420.498046875 376.998046875 c 0
 403.165039062 397.665039062 375.833007812 407.998046875 338.499023438 407.998046875 c 0
 321.166015625 407.998046875 302.833007812 405.998046875 283.500976562 401.998046875 c 0
 274.166992188 399.998046875 261.166992188 395.331054688 244.500976562 387.998046875 c 0
 240.500976562 385.998046875 235.333007812 382.665039062 229.000976562 377.998046875 c 0
 222.666992188 373.331054688 218.500976562 369.998046875 216.500976562 367.998046875 c 0
 205.166992188 358.665039062 195.833984375 350.665039062 188.500976562 343.998046875 c 0
 173.168945312 331.331054688 155.500976562 323.998046875 135.500976562 321.998046875 c 2
 128.500976562 321.998046875 l 2
 119.168945312 321.998046875 110.16796875 323.998046875 101.500976562 327.998046875 c 0
 87.5009765625 333.998046875 76.833984375 346.665039062 69.5009765625 365.998046875 c 0
 63.5009765625 382.665039062 59.833984375 403.33203125 58.5009765625 427.999023438 c 0
 58.1669921875 433.33203125 58.0009765625 438.666015625 58.0009765625 444 c 0
 58.0009765625 449.333007812 58.1669921875 454.666015625 58.5009765625 460 c 0
 58.5009765625 483.333007812 60.16796875 517 63.5009765625 561 c 0xdc
EndSplineSet
EndChar

StartChar: six
Encoding: 54 54 22
Width: 620
GlyphClass: 2
Flags: W
HStem: -22.002 107.997<236.312 377.935> 379.996 114.002<232.445 413.642>
VStem: 45 116<167.545 324.488> 451.999 123.001<163.55 341.372>
LayerCount: 2
Fore
SplineSet
559.999023438 361 m 0
 569.999023438 329.666992188 575 293.331054688 575 251.998046875 c 0
 575 213.998046875 568.333007812 178.331054688 555 144.998046875 c 0
 529 76.998046875 483.666992188 28.3310546875 419 -1.001953125 c 0
 386.478515625 -15.03125 351.823242188 -22.0458984375 315.032226562 -22.0458984375 c 0
 313.359375 -22.0458984375 311.681640625 -22.03125 310 -22.001953125 c 0
 263.333007812 -22.001953125 222 -14.001953125 186 1.998046875 c 0
 152 18.6650390625 124.833007812 41.998046875 104.5 71.998046875 c 0
 84.1669921875 101.998046875 69.1669921875 136.831054688 59.5 176.498046875 c 0
 49.8330078125 216.165039062 45 259.665039062 45 306.998046875 c 0
 45 366.998046875 50.8330078125 420.498046875 62.5 467.498046875 c 0
 74.1669921875 514.498046875 89.833984375 553.831054688 109.500976562 585.498046875 c 0
 129.16796875 617.165039062 154.000976562 643.665039062 184.000976562 664.998046875 c 0
 215.333984375 686.998046875 249.333984375 703.665039062 286.000976562 714.998046875 c 0
 322.66796875 726.331054688 363.000976562 733.6640625 407.000976562 736.997070312 c 2
 418.000976562 736.997070312 l 2
 433.333984375 736.997070312 446.666992188 734.330078125 458 728.997070312 c 0
 473.333007812 721.6640625 482.333007812 709.997070312 485 693.997070312 c 2
 485 689.997070312 l 2
 485 679.997070312 480 669.6640625 470 658.997070312 c 0
 459.333007812 648.330078125 447 640.997070312 433 636.997070312 c 0
 425 634.997070312 412.666992188 632.497070312 396 629.497070312 c 0
 379.333007812 626.497070312 365.333007812 623.6640625 354 620.997070312 c 0
 342.666992188 618.330078125 329.666992188 614.330078125 315 608.997070312 c 0
 285.666992188 598.330078125 256 577.997070312 226 547.997070312 c 0
 210.666992188 531.997070312 196.666992188 510.330078125 184 482.997070312 c 0
 178 468.997070312 172.666992188 455.997070312 168 443.997070312 c 1
 186 456.6640625 206.333007812 466.6640625 229 473.997070312 c 0
 266.333007812 486.6640625 308.333007812 493.331054688 355 493.998046875 c 0
 390.333007812 493.998046875 421.666015625 489.331054688 448.999023438 479.998046875 c 0
 474.999023438 470.665039062 497.499023438 456.33203125 516.499023438 436.999023438 c 0
 535.499023438 417.666015625 549.999023438 392.333007812 559.999023438 361 c 0
260 94.9970703125 m 0
 275.333007812 88.9970703125 291.666015625 85.9951171875 308.999023438 85.9951171875 c 2
 310.999023438 85.9951171875 l 1
 311.999023438 85.9951171875 l 2
 335.33203125 85.9951171875 357.999023438 93.662109375 379.999023438 108.995117188 c 0
 401.999023438 124.328125 419.499023438 143.828125 432.499023438 167.495117188 c 0
 445.499023438 191.162109375 451.999023438 215.329101562 451.999023438 239.99609375 c 0
 451.999023438 297.329101562 440.999023438 335.329101562 418.999023438 353.99609375 c 0
 407.666015625 363.329101562 394.833007812 369.99609375 380.5 373.99609375 c 0
 366.166992188 377.99609375 348 379.99609375 326 379.99609375 c 0
 292 379.99609375 260.333007812 372.49609375 231 357.49609375 c 0
 201.666992188 342.49609375 178 323.329101562 160 299.99609375 c 1
 160 274.663085938 160.333007812 253.663085938 161 236.99609375 c 0
 163.666992188 208.99609375 173.333984375 181.663085938 190.000976562 154.99609375 c 0
 198.66796875 141.663085938 208.66796875 129.830078125 220.000976562 119.497070312 c 0
 231.333984375 109.1640625 244.666992188 100.997070312 260 94.9970703125 c 0
EndSplineSet
EndChar

StartChar: seven
Encoding: 55 55 23
Width: 620
GlyphClass: 2
Flags: W
HStem: -23 21G<135 142.667> 601 113.001<96.735 425.001>
LayerCount: 2
Fore
SplineSet
238.001953125 601 m 0
 172.001953125 599.666992188 129.333984375 596.669921875 110.000976562 592.002929688 c 0
 106.000976562 590.669921875 101.500976562 590.002929688 96.5009765625 590.002929688 c 0
 91.5009765625 590.002929688 86.333984375 591.002929688 81.0009765625 593.002929688 c 0
 72.333984375 596.3359375 65.6669921875 601.3359375 61 608.002929688 c 0
 51.6669921875 620.002929688 46.6669921875 633.669921875 46 649.002929688 c 1
 46 642.3359375 46 642.668945312 46 650.001953125 c 0
 46 664.001953125 50 675.668945312 58 685.001953125 c 0
 66 694.334960938 79.6669921875 700.66796875 99 704.000976562 c 0
 135 710.66796875 195.333007812 714.000976562 280 714.000976562 c 0
 314.666992188 714.000976562 362.333984375 712.66796875 423.000976562 710.000976562 c 0
 480.333984375 708.000976562 510.333984375 707.000976562 513.000976562 707.000976562 c 0
 521.66796875 707.000976562 530.16796875 705.16796875 538.500976562 701.500976562 c 0
 546.833984375 697.833984375 554.666992188 692.000976562 562 684.000976562 c 0
 569.333007812 675.333984375 573.333007812 664.000976562 574 650.000976562 c 0
 574 638.000976562 570.333007812 624.66796875 563 610.000976562 c 0
 553.666992188 590.000976562 536.666992188 560.500976562 512 521.500976562 c 0
 487.333007812 482.500976562 461.333007812 442.66796875 434 402.000976562 c 0
 405.333007812 361.333984375 370.333007812 307.166992188 329 239.5 c 0
 287.666992188 171.833007812 248.666992188 102.666015625 212 31.9990234375 c 0
 202.666992188 12.666015625 189.666992188 -1.6669921875 173 -11 c 0
 160.333007812 -19 148.333007812 -23 137 -23 c 0
 133 -23 129 -22.6669921875 125 -22 c 0
 107 -18 94.3330078125 -8 87 8 c 0
 83.6669921875 15.3330078125 82 23.166015625 82 31.4990234375 c 0
 82 39.83203125 84.3330078125 48.9990234375 89 58.9990234375 c 0
 123 125.666015625 160.666992188 191.999023438 202 257.999023438 c 0
 244.666992188 323.999023438 279.833984375 376.33203125 307.500976562 414.999023438 c 0
 335.16796875 453.666015625 359.500976562 489.333007812 380.500976562 522 c 0
 401.500976562 554.666992188 416.333984375 581 425.000976562 601 c 1
 396.333984375 601.666015625 366.41796875 602 335.251953125 602 c 0
 304.084960938 602 271.66796875 601.666015625 238.001953125 601 c 0
EndSplineSet
EndChar

StartChar: eight
Encoding: 56 56 24
Width: 620
GlyphClass: 2
Flags: W
HStem: -28.001 110<214.184 395.638> 621.999 96.002<231.764 368.08>
VStem: 39.499 111.003<137.082 263.615> 66.499 121.003<482.059 579.145> 419.501 117.001<478.907 573.656> 463.502 116.999<140 269.94>
LayerCount: 2
Fore
SplineSet
228.501953125 96.9990234375 m 0xe4
 251.834960938 86.9990234375 276.834960938 81.9990234375 303.501953125 81.9990234375 c 0
 322.168945312 81.9990234375 341.001953125 84.666015625 360.001953125 89.9990234375 c 0
 379.001953125 95.33203125 396.334960938 102.999023438 412.001953125 112.999023438 c 0
 427.668945312 122.999023438 440.168945312 135.666015625 449.501953125 150.999023438 c 0
 458.834960938 166.33203125 463.501953125 182.999023438 463.501953125 200.999023438 c 0
 463.501953125 210.999023438 462.501953125 220.33203125 460.501953125 228.999023438 c 0
 458.501953125 237.666015625 454.501953125 247.666015625 448.501953125 258.999023438 c 0
 442.501953125 270.33203125 434.168945312 280.999023438 423.501953125 290.999023438 c 0
 412.834960938 300.999023438 398.001953125 311.33203125 379.001953125 321.999023438 c 0
 360.001953125 332.666015625 337.501953125 342.333007812 311.501953125 351 c 1
 263.501953125 339 224.501953125 318.666992188 194.501953125 290 c 0
 165.168945312 261.333007812 150.501953125 230.666015625 150.501953125 197.999023438 c 0
 150.501953125 175.999023438 157.501953125 155.999023438 171.501953125 137.999023438 c 0
 186.834960938 119.999023438 205.834960938 106.33203125 228.501953125 96.9990234375 c 0xe4
221.000976562 591.499023438 m 0
 198.666992188 571.166015625 187.501953125 549.333007812 187.501953125 526 c 0
 187.501953125 507.333007812 197.168945312 490.666015625 216.501953125 475.999023438 c 0
 236.501953125 460.666015625 270.168945312 444.999023438 317.501953125 428.999023438 c 1
 344.834960938 439.666015625 368.668945312 453.666015625 389.000976562 470.999023438 c 0
 409.333984375 488.33203125 419.500976562 503.33203125 419.500976562 515.999023438 c 0xd8
 419.500976562 532.666015625 414.333984375 548.999023438 404.000976562 564.999023438 c 0
 393.668945312 580.999023438 379.168945312 594.499023438 360.500976562 605.499023438 c 0
 341.833984375 616.499023438 322.166992188 621.999023438 301.500976562 621.999023438 c 2
 299.500976562 621.999023438 l 2
 269.500976562 621.999023438 243.333007812 611.83203125 221.000976562 591.499023438 c 0
577.000976562 246 m 0
 579.333984375 234 580.500976562 221.33203125 580.500976562 207.999023438 c 0
 580.500976562 185.999023438 577.500976562 164.33203125 571.500976562 142.999023438 c 0
 565.500976562 121.666015625 555.500976562 100.499023438 541.500976562 79.4990234375 c 0
 527.500976562 58.4990234375 510.166992188 40.33203125 489.500976562 24.9990234375 c 0
 468.833007812 9.666015625 441.666015625 -3.0009765625 407.999023438 -13.0009765625 c 0
 374.333007812 -23.0009765625 337.665039062 -28.0009765625 297.998046875 -28.0009765625 c 0
 258.331054688 -28.0009765625 222.831054688 -23.333984375 191.498046875 -14.0009765625 c 0
 161.498046875 -4.66796875 137.331054688 7.4990234375 118.998046875 22.4990234375 c 0
 100.665039062 37.4990234375 85.33203125 55.166015625 72.9990234375 75.4990234375 c 0
 60.666015625 95.83203125 51.9990234375 116.33203125 46.9990234375 136.999023438 c 0
 41.9990234375 157.666015625 39.4990234375 179.333007812 39.4990234375 202 c 0xe4
 39.4990234375 224.666992188 45.4990234375 249.166992188 57.4990234375 275.5 c 0
 69.4990234375 301.833007812 87.166015625 326.333007812 110.499023438 349 c 0
 126.499023438 365 143.833007812 377.666992188 162.499023438 387 c 1
 135.833007812 402.333007812 114.499023438 420.666015625 98.4990234375 441.999023438 c 0
 77.166015625 469.999023438 66.4990234375 498.666015625 66.4990234375 527.999023438 c 0
 66.4990234375 536.666015625 67.166015625 545.666015625 68.4990234375 554.999023438 c 0
 69.83203125 564.33203125 72.6650390625 575.33203125 76.998046875 587.999023438 c 0
 81.3310546875 600.666015625 86.8310546875 612.83203125 93.498046875 624.499023438 c 0
 100.165039062 636.166015625 109.33203125 647.833007812 120.999023438 659.5 c 0
 132.666015625 671.166992188 145.833007812 681.000976562 160.500976562 689.000976562 c 0
 177.166992188 697.66796875 197.500976562 704.66796875 221.500976562 710.000976562 c 0
 245.500976562 715.333984375 271.833007812 718.000976562 300.500976562 718.000976562 c 0
 329.166992188 718.000976562 355.500976562 715.333984375 379.500976562 710.000976562 c 0
 403.500976562 704.66796875 423.833007812 698.000976562 440.500976562 690.000976562 c 0
 457.166992188 681.333984375 471.333984375 671.166992188 483.000976562 659.5 c 0
 494.668945312 647.833007812 503.834960938 636.166015625 510.501953125 624.499023438 c 0
 517.168945312 612.83203125 522.501953125 600.499023438 526.501953125 587.499023438 c 0
 530.501953125 574.499023438 533.168945312 563.166015625 534.501953125 553.499023438 c 0
 535.834960938 543.83203125 536.501953125 534.33203125 536.501953125 524.999023438 c 0
 536.501953125 515.666015625 535.334960938 506.833007812 533.001953125 498.5 c 0
 530.668945312 490.166992188 527.836914062 482.666015625 524.502929688 475.999023438 c 0
 521.169921875 469.33203125 516.501953125 462.5 510.501953125 455.5 c 0
 504.501953125 448.5 499.002929688 442.666992188 494.002929688 438 c 0
 489.002929688 433.333007812 482.669921875 428 475.002929688 422 c 0
 467.336914062 416 461.168945312 411.666992188 456.501953125 409 c 0
 451.834960938 406.333007812 445.834960938 402.333007812 438.501953125 397 c 1
 457.168945312 389 473.501953125 380 487.501953125 370 c 0
 506.834960938 356.666992188 522.334960938 343.166992188 534.001953125 329.5 c 0
 545.668945312 315.833007812 555.168945312 301.5 562.501953125 286.5 c 0
 569.834960938 271.5 574.668945312 258 577.000976562 246 c 0
EndSplineSet
EndChar

StartChar: nine
Encoding: 57 57 25
Width: 620
GlyphClass: 2
Flags: W
HStem: -22.9951 21G<169.667 178.667> 223.002 113.005<221.64 403.074> 630.006 108.993<238.431 385.932>
VStem: 45 122.002<391.618 557.824> 461.002 113.998<379.658 542.364>
LayerCount: 2
Fore
SplineSet
187 555.004882812 m 0
 173.66796875 532.337890625 167.001953125 509.006835938 167.001953125 485.006835938 c 0
 167.001953125 385.673828125 214 336.006835938 308 336.006835938 c 0
 338 336.006835938 367.001953125 342.006835938 395.001953125 354.006835938 c 0
 423.001953125 366.006835938 445.001953125 381.33984375 461.001953125 400.006835938 c 1
 461.001953125 409.006835938 l 2
 461.001953125 427.006835938 460.001953125 450.673828125 458.001953125 480.006835938 c 0
 455.3359375 508.006835938 445.66796875 535.33984375 429.000976562 562.006835938 c 0
 420.333984375 575.33984375 410.500976562 587.172851562 399.500976562 597.505859375 c 0
 388.500976562 607.838867188 375.16796875 615.838867188 359.500976562 621.505859375 c 0
 343.833984375 627.172851562 327.66796875 630.005859375 311 630.005859375 c 2
 308 630.005859375 l 2
 284 630.005859375 261.16796875 623.172851562 239.5 609.505859375 c 0
 217.833007812 595.838867188 200.333007812 577.671875 187 555.004882812 c 0
187 -22 m 0
 183.66796875 -22 180.333984375 -22.328125 177.000976562 -22.9951171875 c 0
 162.333984375 -22.9951171875 149.333984375 -19.9951171875 138.000976562 -13.9951171875 c 0
 122.66796875 -6.662109375 114.000976562 5.0048828125 112.000976562 21.0048828125 c 0
 112.000976562 22.337890625 111.66796875 23.337890625 111.000976562 24.0048828125 c 0
 111.000976562 34.671875 116.16796875 45.171875 126.500976562 55.5048828125 c 0
 136.833984375 65.837890625 148.333984375 73.0048828125 161.000976562 77.0048828125 c 0
 169.000976562 79.0048828125 182.16796875 81.671875 200.500976562 85.0048828125 c 0
 218.833984375 88.337890625 235.000976562 91.6708984375 249.000976562 95.00390625 c 0
 263.000976562 98.3369140625 278.333984375 102.669921875 295.000976562 108.002929688 c 0
 330.333984375 120.002929688 361.333984375 139.002929688 388.000976562 165.002929688 c 0
 405.333984375 183.002929688 421.000976562 203.669921875 435.000976562 227.002929688 c 0
 440.333984375 236.3359375 445.000976562 245.668945312 449.000976562 255.001953125 c 1
 434.333984375 247.001953125 418.333984375 240.668945312 401.000976562 236.001953125 c 0
 368.333984375 228.001953125 328.000976562 223.668945312 280.000976562 223.001953125 c 0
 246.000976562 223.001953125 213.66796875 230.001953125 183.000976562 244.001953125 c 0
 153.66796875 258.001953125 129.16796875 276.668945312 109.500976562 300.001953125 c 0
 89.833984375 323.334960938 74.1669921875 350.16796875 62.5 380.500976562 c 0
 50.8330078125 410.833984375 45 441.666992188 45 473 c 0
 45 511 51.5 546.5 64.5 579.5 c 0
 77.5 612.5 95.1669921875 640.666992188 117.5 664 c 0
 139.833007812 687.333007812 167.666015625 705.666015625 201 718.999023438 c 0
 235 732.33203125 271 738.999023438 309 738.999023438 c 0
 403 738.999023438 471.33203125 706.999023438 514 642.999023438 c 0
 554 582.999023438 574.33203125 498.33203125 575 388.999023438 c 0
 575 331.666015625 568.33203125 280.999023438 555 236.999023438 c 0
 541.666015625 192.999023438 523.833007812 155.83203125 501.5 125.499023438 c 0
 479.16796875 95.166015625 451.66796875 69.3330078125 419 48 c 0
 385 26.6669921875 348.833007812 10.5 310.5 -0.5 c 0
 272.16796875 -11.5 231 -18.6669921875 187 -22 c 0
EndSplineSet
EndChar

StartChar: colon
Encoding: 58 58 26
Width: 620
GlyphClass: 2
Flags: W
HStem: 27.001 180<252.159 366.079> 295.001 179<262.565 362.156>
VStem: 233 155<49.1377 186.712 322.001 455.644>
LayerCount: 2
Fore
SplineSet
385 404 m 0
 385 384.666992188 382 364.668945312 376 344.001953125 c 0
 372 327.334960938 363 314.66796875 349 306.000976562 c 0
 337 298.66796875 325 295.000976562 313 295.000976562 c 2
 310 295.000976562 l 2
 290 296.333984375 274 300.333984375 262 307.000976562 c 0
 245.333007812 317.000976562 236 332.000976562 234 352.000976562 c 1
 232.666992188 364.000976562 232 376.000976562 232 388.000976562 c 0
 232 400.66796875 232.333007812 412.334960938 233 423.001953125 c 0
 233.666992188 433.668945312 237 443.001953125 243 451.001953125 c 0
 249 458.334960938 256.333007812 463.66796875 265 467.000976562 c 0
 273.666992188 470.333984375 281.333984375 472.333984375 288.000976562 473.000976562 c 0
 294.66796875 473.66796875 299.66796875 474.000976562 303.000976562 474.000976562 c 0
 314.333984375 474.000976562 324.000976562 473.333984375 332.000976562 472.000976562 c 0
 339.333984375 470.66796875 346.666992188 468.000976562 354 464.000976562 c 0
 362 460.000976562 369 454.000976562 375 446.000976562 c 0
 380.333007812 438.000976562 383.333007812 428.66796875 384 418.000976562 c 0
 384.666992188 413.333984375 385 408.666992188 385 404 c 0
388 124.001953125 m 0
 388 108.001953125 385.66796875 91.6689453125 381.000976562 75.001953125 c 0
 377.000976562 58.3349609375 366.66796875 46.001953125 350.000976562 38.001953125 c 0
 336.000976562 31.3349609375 322.66796875 27.66796875 310.000976562 27.0009765625 c 0
 293.333984375 27.0009765625 277.000976562 32.0009765625 261.000976562 42.0009765625 c 0
 245.000976562 52.0009765625 236.333984375 66.0009765625 235.000976562 84.0009765625 c 0
 234.333984375 102.66796875 233.666992188 113.334960938 233 116.001953125 c 0
 233 118.668945312 233.333007812 124.668945312 234 134.001953125 c 0
 234.666992188 143.334960938 235.333984375 150.66796875 236.000976562 156.000976562 c 0
 236.000976562 166.66796875 239.000976562 176.000976562 245.000976562 184.000976562 c 0
 251.000976562 192.000976562 259.000976562 197.333984375 269.000976562 200.000976562 c 0
 282.333984375 204.66796875 295.333984375 207.000976562 308.000976562 207.000976562 c 0
 320.000976562 207.000976562 330.66796875 205.66796875 340.000976562 203.000976562 c 0
 349.333984375 200.333984375 358.666992188 194.333984375 368 185.000976562 c 0
 377.333007812 176.333984375 383 165.333984375 385 152.000976562 c 0
 387 142.66796875 388 133.334960938 388 124.001953125 c 0
EndSplineSet
EndChar

StartChar: semicolon
Encoding: 59 59 27
Width: 620
GlyphClass: 2
Flags: W
HStem: 253 180.001<283.717 392.135>
VStem: 262.025 153<275.988 416.875>
LayerCount: 2
Fore
SplineSet
415.025390625 363 m 2
 415.025390625 343.666992188 412.024414062 323.333984375 406.024414062 302.000976562 c 0
 402.024414062 285.333984375 393.024414062 272.666992188 379.024414062 264 c 0
 367.024414062 256.666992188 355.024414062 253 343.024414062 253 c 0
 333.69140625 253 323.357421875 255 312.025390625 259 c 0
 300.692382812 263 290.359375 269 281.025390625 277 c 0
 271.025390625 286.333007812 265.359375 297.333007812 264.025390625 310 c 1
 262.693359375 322 262.025390625 334.333007812 262.025390625 347 c 0
 262.025390625 359.666992188 262.359375 371 263.025390625 381 c 0
 263.693359375 391.666992188 267.025390625 401 273.025390625 409 c 0
 279.025390625 417 286.359375 422.333007812 295.025390625 425 c 0
 309.693359375 429.666992188 323.693359375 432.333984375 337.025390625 433.000976562 c 0
 347.025390625 433.000976562 355.359375 432.000976562 362.025390625 430.000976562 c 0
 369.359375 428.66796875 377.025390625 426.000976562 385.025390625 422.000976562 c 0
 393.025390625 418.000976562 399.693359375 412.333984375 405.025390625 405.000976562 c 0
 410.359375 396.333984375 413.692382812 386.666992188 415.025390625 376 c 2
 415.025390625 363 l 2
395.024414062 79 m 2
 395.025390625 73 l 2
 393.025390625 51 371.357421875 -36.6669921875 330.025390625 -190 c 0
 325.357421875 -206.666992188 316.69140625 -219 304.024414062 -227 c 0
 292.69140625 -234.333007812 281.357421875 -238 270.025390625 -238 c 0
 252.692382812 -238 237.025390625 -233 223.025390625 -223 c 0
 210.9921875 -214.133789062 204.974609375 -202.258789062 204.974609375 -187.375976562 c 0
 204.974609375 -168.400390625 215.478515625 -113.73046875 225.025390625 -65.9990234375 c 0
 238.357421875 0.0009765625 249.025390625 49.333984375 257.025390625 82.0009765625 c 0
 259.692382812 93.333984375 263.359375 103.000976562 268.025390625 111.000976562 c 0
 273.359375 119.000976562 279.359375 124.000976562 286.025390625 126.000976562 c 0
 295.359375 129.333984375 304.359375 131.333984375 313.025390625 132.000976562 c 0
 316.359375 132.000976562 319.692382812 131.66796875 323.025390625 131.000976562 c 0
 337.025390625 131.000976562 351.357421875 127.66796875 366.025390625 121.000976562 c 0
 375.357421875 117.000976562 382.69140625 110.66796875 388.024414062 102.000976562 c 0
 392.69140625 95.333984375 395.024414062 87.6669921875 395.024414062 79 c 2
EndSplineSet
EndChar

StartChar: less
Encoding: 60 60 28
Width: 620
GlyphClass: 2
Flags: W
HStem: -25 21G<500.667 507.667>
LayerCount: 2
Fore
SplineSet
506 -25 m 0
 495.333007812 -25 483.333007812 -22.662109375 470 -17.9951171875 c 0
 452 -12.662109375 430.333007812 -0.662109375 405 18.0048828125 c 0
 379.666992188 36.671875 352.666992188 58.671875 324 84.0048828125 c 0
 295.333007812 109.337890625 267 135.004882812 239 161.004882812 c 0
 211 187.004882812 181.666992188 213.671875 151 241.004882812 c 0
 120.333007812 268.337890625 94.3330078125 290.004882812 73 306.004882812 c 0
 62.3330078125 314.004882812 55 325.004882812 51 339.004882812 c 0
 49.6669921875 345.004882812 49 351.671875 49 359.004882812 c 0
 49 365.671875 50 372.671875 52 380.004882812 c 0
 56 394.004882812 63.3330078125 404.004882812 74 410.004882812 c 0
 111.333007812 438.004882812 155.666015625 473.004882812 206.999023438 515.004882812 c 0
 257.666015625 557.671875 304.333007812 596.004882812 347 630.004882812 c 0
 389.666992188 664.671875 428 692.004882812 462 712.004882812 c 0
 475.333007812 720.671875 488.666015625 725.004882812 501.999023438 725.004882812 c 0
 511.999023438 725.004882812 520.666015625 722.671875 527.999023438 718.004882812 c 0
 542.666015625 709.337890625 553.333007812 697.670898438 560 683.00390625 c 0
 563.333007812 676.336914062 565 669.00390625 565 661.00390625 c 0
 565 653.00390625 562.666992188 644.670898438 558 636.00390625 c 0
 550 622.670898438 533.666992188 607.670898438 509 591.00390625 c 0
 472.333007812 565.00390625 419 524.670898438 349 470.00390625 c 0
 279 415.336914062 231.666992188 378.669921875 207 360.002929688 c 1
 229.666992188 342.002929688 255.666992188 319.669921875 285 293.002929688 c 0
 315 266.3359375 342 241.668945312 366 219.001953125 c 0
 390 196.334960938 416 173.001953125 444 149.001953125 c 0
 472 125.001953125 496.666992188 106.334960938 518 93.001953125 c 0
 540 79.001953125 555 65.6689453125 563 53.001953125 c 0
 568.333007812 45.001953125 571 36.6689453125 571 28.001953125 c 0
 571 21.3349609375 569.666992188 14.66796875 567 8.0009765625 c 0
 558.333007812 -10.666015625 541 -21.3330078125 515 -24 c 0
 512.333007812 -24.6669921875 509.333007812 -25 506 -25 c 0
EndSplineSet
EndChar

StartChar: equal
Encoding: 61 61 29
Width: 620
GlyphClass: 2
Flags: W
HStem: 235 107<122.504 499.621> 435 106<124.565 499.621>
LayerCount: 2
Fore
SplineSet
459 541 m 0
 478.333007812 541 492 536.333007812 500 527 c 0
 508 517.666992188 512.66796875 506 514 492 c 2
 514 491 l 2
 514 483.666992188 513.333007812 477 512 471 c 0
 510.66796875 465 508 459 504 453 c 0
 500 447 493.66796875 442 485 438 c 0
 479 435.333007812 472.66796875 434.333007812 466 435 c 2
 458 435 l 2
 434 435.666992188 409.333007812 436 384 436 c 2
 274 433 l 2
 227.333007812 431.666992188 193 431 171 431 c 0
 151.66796875 431 136 436 124 446 c 0
 112 456 106 468.666992188 106 484 c 2
 106 487 l 2
 106 501 110.66796875 513.666992188 120 525 c 0
 130 535.666992188 144.333007812 541 163 541 c 2
 167 541 l 2
 206.599609375 539.799804688 249.91796875 539.200195312 296.95703125 539.200195312 c 0
 328.318359375 539.200195312 361.33203125 539.466796875 396 540 c 0
 430.66796875 540.666992188 451.66796875 541 459 541 c 0
466 239 m 2
 458 239 l 2
 442.66796875 239.666992188 428.66796875 240 416 240 c 0
 388 240 345 239.333007812 287 238 c 0
 229 236 189.66796875 235 169 235 c 0
 148.333007812 235 132.666015625 240.333007812 122 251 c 0
 111.33203125 261.666992188 106 274.666992188 106 290 c 2
 106 292 l 2
 106 306 111.33203125 318 122 328 c 0
 132.666015625 337.333007812 147.666015625 342 167 342 c 2
 185 342 l 2
 199.228515625 341.77734375 214.94140625 341.666015625 232.13671875 341.666015625 c 0
 266.5 341.666015625 306.7890625 342.110351562 353 342.999023438 c 2
 459 344.999023438 l 2
 478.33203125 344.999023438 492 340.33203125 500 330.999023438 c 0
 508 321.666015625 512.666015625 309.999023438 514 295.999023438 c 2
 514 294.999023438 l 2
 514 287.666015625 513.33203125 281.333007812 512 276 c 0
 510.666015625 270 508 264 504 258 c 0
 500 251.333007812 493.666015625 246 485 242 c 0
 479.666015625 240 473.333007812 239 466 239 c 2
EndSplineSet
EndChar

StartChar: greater
Encoding: 62 62 30
Width: 620
GlyphClass: 2
Flags: W
HStem: -18 21G<113.334 124.667>
LayerCount: 2
Fore
SplineSet
118.000976562 -18 m 0
 108.66796875 -18 99.9990234375 -15.6708984375 91.9990234375 -11.00390625 c 0
 84.666015625 -6.3369140625 77.9990234375 -1.00390625 71.9990234375 4.99609375 c 0
 66.666015625 10.99609375 62.666015625 17.6630859375 59.9990234375 24.99609375 c 0
 56.666015625 31.6630859375 54.666015625 38.6630859375 53.9990234375 45.99609375 c 0
 53.9990234375 53.99609375 56.666015625 62.3291015625 61.9990234375 70.99609375 c 0
 69.9990234375 84.3291015625 85.9990234375 99.3291015625 109.999023438 115.99609375 c 0
 146.666015625 141.99609375 200.333007812 182.329101562 271 236.99609375 c 0
 341 291.663085938 388.333007812 328.330078125 413 346.997070312 c 1
 390.333007812 364.997070312 364 387.330078125 334 413.997070312 c 0
 304 440.6640625 277.333007812 465.331054688 254 487.998046875 c 0
 230 510.665039062 204 533.998046875 176 557.998046875 c 0
 148 581.998046875 123.333007812 600.665039062 102 613.998046875 c 0
 80 627.998046875 65 641.331054688 57 653.998046875 c 0
 51.6669921875 661.998046875 49 670.665039062 49 679.998046875 c 0
 49 686.665039062 50.3330078125 692.998046875 53 698.998046875 c 0
 61.6669921875 717.665039062 79 728.33203125 105 730.999023438 c 0
 108.333007812 731.666015625 111.333007812 731.999023438 114 731.999023438 c 0
 124.666992188 731.999023438 136.666992188 729.666015625 150 724.999023438 c 0
 168 719.666015625 189.666992188 707.666015625 215 688.999023438 c 0
 240.333007812 670.33203125 267.333007812 648.33203125 296 622.999023438 c 0
 324.666992188 597.666015625 353 571.999023438 381 545.999023438 c 0
 409 519.999023438 438.333007812 493.33203125 469 465.999023438 c 0
 499.666992188 438.666015625 525.666992188 417.333007812 547 402 c 0
 557.666992188 394 565 382.666992188 569 368 c 0
 570.333007812 362 571 355.333007812 571 348 c 0
 571 341.333007812 570 334.333007812 568 327 c 0
 564 313 556.666992188 303 546 297 c 0
 508.666992188 269.666992188 464.333984375 234.666992188 413.000976562 192 c 0
 362.333984375 149.333007812 315.666992188 111 273 77 c 0
 230.333007812 43 192 15.6669921875 158 -5 c 0
 144.666992188 -13.6669921875 131.333984375 -18 118.000976562 -18 c 0
EndSplineSet
EndChar

StartChar: question
Encoding: 63 63 31
Width: 620
GlyphClass: 2
Flags: W
HStem: -26.002 178.001<229.893 346.37> 508.999 21G<150.334 165.001> 625 109.069<251.464 380.065>
VStem: 194.004 187<7.88811 117.73> 227.004 125.996<216.992 316.186> 405.039 124.961<484.855 602.144>
LayerCount: 2
Fore
SplineSet
297 201 m 0xec
 291 201 284.669921875 201.665039062 278.00390625 202.998046875 c 0
 244.669921875 211.665039062 227.669921875 232.33203125 227.00390625 264.999023438 c 0
 227.00390625 274.33203125 228.669921875 284.33203125 232.00390625 294.999023438 c 0
 236.669921875 314.33203125 243.669921875 332.33203125 253.00390625 348.999023438 c 0
 262.3359375 365.666015625 272.668945312 379.999023438 284.001953125 391.999023438 c 0
 294.668945312 403.999023438 306.001953125 414.999023438 318.001953125 424.999023438 c 0
 330.001953125 435.666015625 341.3359375 445.333007812 352.001953125 454 c 0
 362.668945312 462.666992188 372.001953125 471.666992188 380.001953125 481 c 0
 396.692382812 498.975585938 405.0390625 517.568359375 405.0390625 536.779296875 c 0
 405.0390625 554.662109375 403.403320312 586.278320312 380.000976562 605 c 0
 362.8203125 618.36328125 338.046875 625.045898438 305.6796875 625.045898438 c 0
 304.13671875 625.045898438 302.578125 625.030273438 301.000976562 625 c 0
 293.000976562 625 285.333984375 623.333007812 278.000976562 620 c 0
 270.000976562 616 262.66796875 611.666992188 256.000976562 607 c 0
 250.000976562 602.333007812 243.333984375 595.666015625 236.000976562 586.999023438 c 0
 228.66796875 578.33203125 223.000976562 570.999023438 219.000976562 564.999023438 c 0
 215.000976562 558.999023438 209.66796875 551.666015625 203.000976562 542.999023438 c 0
 197.000976562 533.666015625 190.333984375 525.999023438 183.000976562 519.999023438 c 0
 176.333984375 513.999023438 169.000976562 510.33203125 161.000976562 508.999023438 c 2
 152.000976562 508.999023438 l 2
 148.66796875 508.999023438 144.66796875 509.666015625 140.000976562 510.999023438 c 0
 135.333984375 512.33203125 128.66796875 514.665039062 120 517.998046875 c 0
 105.333007812 525.998046875 96 537.331054688 92 551.998046875 c 2
 90 563.998046875 l 2
 90 575.331054688 93.6669921875 588.998046875 101 604.998046875 c 0
 108.333007812 619.665039062 117.666015625 633.665039062 129 646.998046875 c 0
 140.33203125 660.998046875 154 674.665039062 170 687.998046875 c 0
 186 701.998046875 205 713.331054688 227 721.998046875 c 0
 247.426757812 730.045898438 269.00390625 734.069335938 291.731445312 734.069335938 c 0
 293.48046875 734.069335938 295.236328125 734.045898438 297 733.998046875 c 0
 372.33203125 733.998046875 430 716.331054688 470 680.998046875 c 0
 510 645.665039062 530 592.665039062 530 521.998046875 c 0
 530 502.665039062 526.666015625 484.998046875 520 468.998046875 c 0
 514 452.998046875 506 438.998046875 496 426.998046875 c 0
 486 415.665039062 475 405.33203125 463 395.999023438 c 2
 427 367.999023438 l 2
 415 358.666015625 404 349.333007812 394 340 c 0
 384 330.666992188 375.33203125 319 368 305 c 0
 360.666015625 291.666992188 355.666015625 276.666992188 353 260 c 0
 349.666015625 240 342.333007812 224.666992188 331 214 c 0
 322.333007812 205.333007812 311 201 297 201 c 0xec
280.00390625 -26.001953125 m 2
 256.669921875 -26.001953125 237.00390625 -18.0029296875 221.00390625 -2.0029296875 c 0
 203.00390625 16.6640625 194.00390625 38.3310546875 194.00390625 62.998046875 c 0
 194.00390625 87.6650390625 203.669921875 108.33203125 223.00390625 124.999023438 c 0
 243.669921875 142.999023438 267.336914062 151.999023438 294.00390625 151.999023438 c 0
 318.671875 151.999023438 339.00390625 143.999023438 355.00390625 127.999023438 c 0
 372.336914062 110.666015625 381.00390625 89.9990234375 381.00390625 65.9990234375 c 0xf4
 381.00390625 41.33203125 372.671875 20.6650390625 356.00390625 3.998046875 c 0
 339.336914062 -12.6689453125 317.669921875 -22.6689453125 291.00390625 -26.001953125 c 2
 280.00390625 -26.001953125 l 2
EndSplineSet
EndChar

StartChar: at
Encoding: 64 64 32
Width: 620
GlyphClass: 2
Flags: W
HStem: -141.995 110<243.143 396.131> 105.006 104.999<272.361 332.78> 369.005 101.001<284.14 384.622> 601.005 113.998<265.093 403.154>
VStem: 40 110.996<95.6791 430.758> 163 100.998<212.861 350.422> 345 104.799<217.922 335.271> 482.997 97.0029<192.56 481.464>
LayerCount: 2
Fore
SplineSet
383 148 m 1
 363.66796875 119.333007812 336 105.005859375 300 105.005859375 c 0
 256.66796875 105.005859375 223 118.672851562 199 146.005859375 c 0
 175 173.338867188 163 214.005859375 163 268.005859375 c 0
 163 294.672851562 166 319.005859375 172 341.005859375 c 0
 178 363.672851562 186 383.005859375 196 399.005859375 c 0
 206.66796875 415.005859375 219 428.672851562 233 440.005859375 c 0
 258.333007812 460.005859375 288 470.005859375 322 470.005859375 c 0
 342.66796875 470.005859375 363 466.338867188 383 459.005859375 c 0
 400.333007812 452.338867188 414 443.005859375 424 431.005859375 c 0
 432 421.672851562 436 412.672851562 436 404.005859375 c 0
 436 399.338867188 434.66796875 394.338867188 432 389.005859375 c 0
 429.333007812 383.672851562 425.666015625 378.672851562 421 374.005859375 c 0
 416.33203125 369.338867188 411 366.005859375 405 364.005859375 c 0
 396.33203125 361.338867188 389.665039062 360.005859375 384.998046875 360.005859375 c 0
 376.998046875 360.005859375 367.33203125 361.338867188 355.998046875 364.005859375 c 0
 352.665039062 364.672851562 347.665039062 366.005859375 340.998046875 368.005859375 c 0
 333.665039062 369.338867188 326.665039062 369.671875 319.998046875 369.004882812 c 0
 313.33203125 368.337890625 306.6640625 366.004882812 299.997070312 362.004882812 c 0
 293.330078125 358.004882812 287.330078125 352.671875 281.997070312 346.004882812 c 0
 276.6640625 339.337890625 272.33203125 330.337890625 268.998046875 319.004882812 c 0
 265.665039062 307.671875 263.998046875 294.671875 263.998046875 280.004882812 c 0
 263.998046875 272.004882812 264.665039062 264.337890625 265.998046875 257.004882812 c 0
 266.665039062 249.671875 268.33203125 242.004882812 271 234.004882812 c 0
 276.33203125 218.004882812 285 210.004882812 297 210.004882812 c 0
 304.33203125 210.004882812 311 211.337890625 317 214.004882812 c 0
 323 216.671875 327.666015625 221.338867188 331 228.005859375 c 0
 339 242.672851562 343.666015625 268.005859375 345 304.005859375 c 0
 345.666015625 320.005859375 356.666015625 332.338867188 378 341.005859375 c 0
 389.2578125 345.74609375 399.462890625 348.116210938 408.614257812 348.116210938 c 0
 409.758789062 348.116210938 410.887695312 348.079101562 412 348.004882812 c 0
 420 348.004882812 427 347.004882812 433 345.004882812 c 0
 446.33203125 339.671875 453.33203125 330.004882812 454 316.004882812 c 0
 454 314.671875 453.666015625 313.338867188 453 312.005859375 c 0
 450.865234375 293.340820312 449.798828125 277.021484375 449.798828125 263.048828125 c 0
 449.798828125 259.5546875 449.865234375 256.20703125 450 253.005859375 c 0
 450 234.338867188 451.666015625 219.005859375 455 207.005859375 c 0
 456.33203125 202.338867188 457.665039062 199.005859375 458.998046875 197.005859375 c 0
 460.998046875 193.672851562 463.665039062 192.005859375 466.998046875 192.005859375 c 0
 468.33203125 193.338867188 469.6640625 195.338867188 470.997070312 198.005859375 c 0
 474.330078125 206.005859375 476.997070312 216.338867188 478.997070312 229.005859375 c 0
 481.6640625 253.005859375 482.997070312 275.005859375 482.997070312 295.005859375 c 0
 482.997070312 328.338867188 481.330078125 359.338867188 477.997070312 388.005859375 c 0
 475.330078125 416.005859375 471.6640625 440.005859375 466.99609375 460.005859375 c 0
 462.329101562 480.005859375 456.662109375 497.672851562 449.99609375 513.005859375 c 0
 442.662109375 529.005859375 436.329101562 541.672851562 430.99609375 551.005859375 c 0
 424.99609375 560.338867188 417.6640625 568.338867188 408.99609375 575.005859375 c 0
 400.329101562 581.672851562 392.99609375 586.672851562 386.99609375 590.005859375 c 0
 380.99609375 593.338867188 373.99609375 595.671875 365.99609375 597.004882812 c 0
 357.99609375 599.004882812 351.6640625 600.004882812 346.99609375 600.004882812 c 0
 342.99609375 600.004882812 337.6640625 600.337890625 330.99609375 601.004882812 c 0
 306.99609375 601.004882812 284.329101562 593.337890625 262.99609375 578.004882812 c 0
 241.6640625 562.671875 222.6640625 540.671875 205.99609375 512.004882812 c 0
 189.329101562 483.337890625 175.99609375 447.670898438 165.99609375 405.00390625 c 0
 155.99609375 362.336914062 150.99609375 315.336914062 150.99609375 264.00390625 c 0
 150.99609375 219.336914062 154.329101562 179.336914062 160.99609375 144.00390625 c 0
 167.6640625 108.670898438 176.330078125 80.337890625 186.997070312 59.0048828125 c 0
 197.6640625 37.671875 209.997070312 20.0048828125 223.997070312 6.0048828125 c 0
 237.997070312 -7.9951171875 251.6640625 -17.9951171875 264.997070312 -23.9951171875 c 0
 278.330078125 -29.328125 292.997070312 -31.9951171875 308.997070312 -31.9951171875 c 0
 324.997070312 -31.9951171875 339.6640625 -30.328125 352.997070312 -26.9951171875 c 0
 366.330078125 -23.662109375 377.330078125 -19.9951171875 385.997070312 -15.9951171875 c 0
 394.6640625 -11.9951171875 402.6640625 -6.328125 409.997070312 1.0048828125 c 0
 417.997070312 8.337890625 424.330078125 15.337890625 428.997070312 22.0048828125 c 0
 433.6640625 28.671875 438.997070312 36.671875 444.997070312 46.0048828125 c 0
 447.6640625 51.337890625 449.997070312 55.337890625 451.997070312 58.0048828125 c 0
 453.997070312 60.671875 456.6640625 64.0048828125 459.997070312 68.0048828125 c 0
 462.6640625 72.0048828125 465.33203125 75.337890625 467.998046875 78.0048828125 c 0
 470.665039062 80.0048828125 473.998046875 82.0048828125 477.998046875 84.0048828125 c 0
 481.998046875 86.0048828125 486.665039062 87.0048828125 491.998046875 87.0048828125 c 0
 496.665039062 87.0048828125 501.665039062 86.0048828125 506.998046875 84.0048828125 c 0
 513.665039062 81.337890625 519.33203125 78.0048828125 524 74.0048828125 c 0
 528.666015625 70.0048828125 532.333007812 65.0048828125 535 59.0048828125 c 0
 537.66796875 53.671875 538.66796875 48.0048828125 538 42.0048828125 c 0
 538 30.671875 535 17.0048828125 529 1.0048828125 c 0
 525 -8.9951171875 521.333007812 -17.662109375 518 -24.9951171875 c 0
 514 -32.328125 508.66796875 -41.328125 502 -51.9951171875 c 0
 495.333007812 -62.662109375 488 -71.9951171875 480 -79.9951171875 c 0
 472 -87.9951171875 462.333007812 -95.9951171875 451 -103.995117188 c 0
 439 -111.995117188 426 -118.995117188 412 -124.995117188 c 0
 398 -130.328125 382 -134.328125 364 -136.995117188 c 0
 346 -140.328125 327.333007812 -141.995117188 308 -141.995117188 c 2
 302 -141.995117188 l 2
 264.66796875 -141.995117188 230 -132.662109375 198 -113.995117188 c 0
 165.333007812 -95.328125 137.333007812 -69.9951171875 114 -37.9951171875 c 0
 90.6669921875 -5.9951171875 72.6669921875 33.0048828125 60 79.0048828125 c 0
 46.6669921875 125.004882812 40 174.671875 40 228.004882812 c 0
 40 287.337890625 44.6669921875 342.670898438 54 394.00390625 c 0
 63.3330078125 445.336914062 76.3330078125 490.669921875 93 530.002929688 c 0
 110.333007812 568.669921875 130.666015625 602.002929688 154 630.002929688 c 0
 177.33203125 658.002929688 203.33203125 679.002929688 232 693.002929688 c 0
 260.666015625 707.002929688 291.333007812 714.3359375 324 715.002929688 c 0
 347.333007812 715.002929688 368.333007812 713.002929688 387 709.002929688 c 0
 406.333007812 705.669921875 425 699.669921875 443 691.002929688 c 0
 461 681.669921875 477 669.669921875 491 655.002929688 c 0
 505 640.3359375 517.66796875 622.002929688 529 600.002929688 c 0
 540.333007812 578.002929688 549.666015625 552.3359375 557 523.002929688 c 0
 572.33203125 461.669921875 580 385.002929688 580 293.002929688 c 0
 580 242.3359375 572.666015625 197.668945312 558 159.001953125 c 0
 550 138.334960938 538.33203125 121.66796875 523 109.000976562 c 0
 507.666015625 96.333984375 489.333007812 89.6669921875 468 89 c 0
 437.333007812 89 414 99.3330078125 398 120 c 0
 392 128 387 137.333007812 383 148 c 1
EndSplineSet
EndChar

StartChar: A
Encoding: 65 65 33
Width: 620
GlyphClass: 2
Flags: W
HStem: -5.99902 21G<69.999 77.999 537.668 543.668> 251.001 91.998<247.713 403.998>
LayerCount: 2
Fore
SplineSet
244.998046875 331.999023438 m 1
 302.998046875 337.999023438 355.998046875 341.666015625 403.998046875 342.999023438 c 1
 353.998046875 568.999023438 l 1
 325.331054688 520.33203125 288.998046875 441.33203125 244.998046875 331.999023438 c 1
133.002929688 49 m 0
 125.669921875 25 114.33203125 8.9990234375 98.9990234375 0.9990234375 c 0
 90.33203125 -3.66796875 81.9990234375 -5.9990234375 73.9990234375 -5.9990234375 c 0
 65.9990234375 -5.9990234375 58.33203125 -4.333984375 50.9990234375 -1.0009765625 c 0
 38.9990234375 4.33203125 30.33203125 12.6650390625 24.9990234375 23.998046875 c 0
 20.9990234375 32.6650390625 18.9990234375 42.1650390625 18.9990234375 52.498046875 c 0
 18.9990234375 62.8310546875 20.33203125 73.998046875 22.9990234375 85.998046875 c 0
 26.9990234375 106.665039062 45.33203125 154.665039062 77.9990234375 229.998046875 c 1
 68.666015625 238.665039062 63.3330078125 249.33203125 62 261.999023438 c 2
 62 263.999023438 l 2
 62 275.33203125 67.6669921875 285.999023438 79 295.999023438 c 0
 88.3330078125 304.666015625 100 311.333007812 114 316 c 1
 200 498.666992188 266.666992188 621 314 683 c 0
 325.333007812 697 336 707.333007812 346 714 c 0
 356 721.333007812 367.333007812 725 380 725 c 2
 388 725 l 2
 401.333007812 725 413.333007812 722 424 716 c 0
 438.666992188 708 447.666992188 695.333007812 451 678 c 0
 465.666992188 598 489.666992188 485 523 339 c 0
 541.666992188 257.666992188 556.333984375 197.833984375 567.000976562 159.500976562 c 0
 577.66796875 121.16796875 585.66796875 97.66796875 591.000976562 89.0009765625 c 0
 597.66796875 77.0009765625 601.000976562 65.66796875 601.000976562 55.0009765625 c 2
 601.000976562 49 l 2
 599.66796875 37 595.500976562 26.66796875 588.500976562 18.0009765625 c 0
 581.500976562 9.333984375 573.333984375 2.9990234375 564.000976562 -1.0009765625 c 0
 552.66796875 -4.333984375 545.334960938 -5.9990234375 542.001953125 -5.9990234375 c 0
 533.334960938 -5.9990234375 524.66796875 -3.66796875 516.000976562 0.9990234375 c 0
 500.66796875 8.9990234375 488.334960938 24.66796875 479.001953125 48.0009765625 c 0
 469.668945312 69.333984375 452.001953125 137.000976562 426.001953125 251.000976562 c 1
 342.668945312 247.66796875 267.3359375 241.000976562 200.002929688 231.000976562 c 1
 177.3359375 178.333984375 155.002929688 117.666992188 133.002929688 49 c 0
EndSplineSet
EndChar

StartChar: B
Encoding: 66 66 34
Width: 620
GlyphClass: 2
Flags: W
HStem: -23 21G<123.333 130.666> -9.65137 90.1543<215.37 255.727> 285.003 96.4492<167 358.74> 605.004 103.999<171.532 363>
VStem: 43 121<82.114 137.826 144.104 285.003 383.002 598.597> 418 119<431.807 557.715> 455 124<157.259 228.28>
LayerCount: 2
Fore
SplineSet
46 41 m 2xba
 47.3330078125 60.3330078125 48.3330078125 93.3369140625 49 140.00390625 c 0
 49 227.336914062 47 324.00390625 43 430.00390625 c 1
 41.6669921875 473.336914062 41 502.50390625 41 517.50390625 c 0
 41 532.50390625 41.5 552.50390625 42.5 577.50390625 c 0
 43.5 602.50390625 44 620.00390625 44 630.00390625 c 0
 44.6669921875 650.670898438 50.833984375 666.50390625 62.5009765625 677.50390625 c 0
 74.16796875 688.50390625 88.66796875 694.00390625 106.000976562 694.00390625 c 2
 109.000976562 694.00390625 l 1
 127 699.336914062 149.333984375 703.336914062 176 706.00390625 c 0
 186.66796875 707.336914062 198.16796875 708.169921875 210.5 708.502929688 c 0
 222.833984375 708.8359375 232.333984375 709.002929688 239 709.002929688 c 2
 261 709.002929688 l 1
 273 709.002929688 l 2
 324.333984375 709.002929688 370.333984375 700.669921875 411 684.002929688 c 0
 451 666.669921875 481.66796875 642.002929688 503 610.002929688 c 0
 525.66796875 576.669921875 537 537.669921875 537 493.002929688 c 0xbc
 537 455.002929688 527.66796875 422.002929688 509 394.002929688 c 0
 494.333984375 372.669921875 476 355.669921875 454 343.002929688 c 1
 468.66796875 336.3359375 483 328.668945312 497 320.001953125 c 0
 519.66796875 305.334960938 539 288.66796875 555 270.000976562 c 0
 571 251.333984375 579 233.000976562 579 215.000976562 c 2
 579 214.000976562 l 2
 579 188.000976562 572.16796875 162.333984375 558.5 137.000976562 c 0
 544.833984375 111.66796875 525.166992188 88.5009765625 499.5 67.5009765625 c 0
 473.83203125 46.5009765625 439.666015625 28.66796875 396.999023438 14.0009765625 c 0
 354.33203125 -0.666015625 307.33203125 -9.9990234375 255.999023438 -13.9990234375 c 1
 250.202148438 -11.1005859375 244.341796875 -9.6513671875 238.41796875 -9.6513671875 c 0x7a
 230.71875 -9.6513671875 222.912109375 -12.1005859375 214.999023438 -16.9990234375 c 1
 180.33203125 -19.666015625 158.999023438 -21.3330078125 150.999023438 -22 c 0
 142.33203125 -22.6669921875 134.33203125 -23 126.999023438 -23 c 0
 119.666015625 -23 112.333007812 -22.3330078125 105 -21 c 2
 103 -21 l 2
 86.3330078125 -21 72.3330078125 -15.3330078125 61 -4 c 0
 51 6 46 19 46 35 c 2
 46 41 l 2xba
164 403.00390625 m 2
 164 383.001953125 l 1
 193.33203125 382.334960938 220 381.834960938 244 381.501953125 c 0
 246.3984375 381.46875 248.76171875 381.452148438 251.08984375 381.452148438 c 0
 272.0625 381.452148438 290.19921875 382.801757812 305.5 385.501953125 c 0
 322.5 388.501953125 336.666992188 392.334960938 348 397.001953125 c 0
 359.33203125 401.668945312 369.33203125 407.3359375 378 414.002929688 c 0
 386.666992188 420.669921875 393.333984375 427.336914062 398 434.00390625 c 0
 402.66796875 440.670898438 406.5 448.170898438 409.5 456.50390625 c 0
 412.5 464.836914062 414.66796875 472.336914062 416 479.00390625 c 0
 417.333984375 485.670898438 418 492.670898438 418 500.00390625 c 0
 418 514.670898438 414.66796875 528.170898438 408 540.50390625 c 0
 401.333984375 552.836914062 392.833984375 563.00390625 382.5 571.00390625 c 0
 372.16796875 579.00390625 360.334960938 585.670898438 347.001953125 591.00390625 c 0
 324.502929688 600.37890625 300.831054688 605.06640625 275.98828125 605.06640625 c 0
 274.331054688 605.06640625 272.66796875 605.045898438 271.001953125 605.00390625 c 0
 236.334960938 605.00390625 202.66796875 602.00390625 170 596.00390625 c 1
 169.333984375 584.00390625 168.666992188 566.00390625 168 542.00390625 c 0
 165.33203125 493.336914062 164 447.00390625 164 403.00390625 c 2
440.5 165.501953125 m 0
 450.166992188 177.834960938 455 189.004882812 455 199.004882812 c 0
 455 204.337890625 451.666992188 210.670898438 445 218.00390625 c 0
 438.33203125 225.336914062 427.666015625 233.169921875 412.999023438 241.502929688 c 0
 398.33203125 249.8359375 377.33203125 258.002929688 349.999023438 266.002929688 c 0
 322.666015625 274.002929688 291.33203125 280.3359375 256 285.002929688 c 1
 167 285.002929688 l 1
 169.666992188 193.002929688 172 124.669921875 174 80.0029296875 c 1
 181.33203125 80.0029296875 192 80.169921875 206 80.5029296875 c 0x7a
 220 80.8359375 232 81.3359375 242 82.0029296875 c 0
 274 83.3359375 304 88.3359375 332 97.0029296875 c 0
 360 105.669921875 382.666992188 116.169921875 400 128.502929688 c 0
 417.33203125 140.8359375 430.83203125 153.168945312 440.5 165.501953125 c 0
EndSplineSet
EndChar

StartChar: C
Encoding: 67 67 35
Width: 620
GlyphClass: 2
Flags: W
HStem: -30.998 114.001<222.458 402.021> 494.006 246.994<476.917 567.658> 608.006 104.995<338.245 464.259>
VStem: 28 123.999<159.984 372.712> 464 127<517.69 584.105>
LayerCount: 2
Fore
SplineSet
582.998046875 692 m 0xd8
 588.998046875 666 592 638.338867188 592 609.005859375 c 0
 592 589.005859375 591.666992188 577.005859375 591 573.005859375 c 0
 591 556.338867188 585 539.505859375 573 522.505859375 c 0
 561 505.505859375 548 496.338867188 534 495.005859375 c 0
 531.333984375 494.338867188 528.333984375 494.005859375 525 494.005859375 c 0xd8
 513 494.005859375 501 498.005859375 489 506.005859375 c 0
 472.333984375 516.672851562 464 531.005859375 464 549.005859375 c 0
 464 553.672851562 464.666992188 565.672851562 466 585.005859375 c 1
 456.666992188 591.005859375 450.666992188 594.672851562 448 596.005859375 c 0
 445.333984375 597.338867188 441.666015625 599.338867188 436.999023438 602.005859375 c 0
 428.33203125 606.005859375 419.666015625 608.005859375 410.998046875 608.005859375 c 0
 390.998046875 608.005859375 368.998046875 602.005859375 344.998046875 590.005859375 c 0
 320.998046875 578.005859375 297.666015625 560.505859375 274.998046875 537.505859375 c 0
 252.331054688 514.505859375 231.831054688 488.172851562 213.498046875 458.505859375 c 0
 195.166015625 428.838867188 180.33203125 395.171875 168.999023438 357.504882812 c 0
 157.666015625 319.837890625 151.999023438 282.004882812 151.999023438 244.004882812 c 0
 151.999023438 217.337890625 157.999023438 191.670898438 169.999023438 167.00390625 c 0
 181.999023438 142.336914062 198.499023438 122.169921875 219.499023438 106.502929688 c 0
 240.499023438 90.8359375 262.33203125 83.0029296875 284.999023438 83.0029296875 c 0
 307.666015625 83.0029296875 329.666015625 85.169921875 350.999023438 89.5029296875 c 0
 372.33203125 93.8359375 391.499023438 99.3359375 408.499023438 106.002929688 c 0
 425.499023438 112.669921875 440.166015625 119.502929688 452.499023438 126.502929688 c 0
 464.83203125 133.502929688 475.666015625 140.669921875 484.998046875 148.002929688 c 0
 494.331054688 154.669921875 502.6640625 159.669921875 509.998046875 163.002929688 c 0
 517.998046875 167.002929688 526.830078125 169.002929688 536.498046875 169.002929688 c 0
 546.1640625 169.002929688 555.331054688 166.002929688 563.998046875 160.002929688 c 0
 578.666015625 148.669921875 585.998046875 135.169921875 585.998046875 119.502929688 c 0
 585.998046875 103.8359375 577.666015625 86.6689453125 560.998046875 68.001953125 c 0
 502.998046875 2.001953125 410.331054688 -30.998046875 282.998046875 -30.998046875 c 2
 272.998046875 -30.998046875 l 2
 241.666015625 -30.998046875 212.33203125 -26.3310546875 184.999023438 -16.998046875 c 0
 157.666015625 -7.6650390625 134.666015625 5.16796875 115.999023438 21.5009765625 c 0
 97.33203125 37.833984375 81.33203125 56.333984375 68 77.0009765625 c 0
 54.666015625 97.66796875 44.666015625 119.500976562 38 142.500976562 c 0
 31.33203125 165.500976562 28 188.66796875 28 212.000976562 c 0
 28 260.000976562 33.166015625 306.500976562 43.5 351.500976562 c 0
 53.83203125 396.500976562 67.666015625 437.000976562 84.998046875 473.000976562 c 0
 102.33203125 509.000976562 122.6640625 542.333984375 145.998046875 573.000976562 c 0
 171.330078125 603.66796875 197.998046875 629.000976562 225.998046875 649.000976562 c 0
 253.998046875 669.000976562 283.330078125 684.66796875 313.998046875 696.000976562 c 0
 344.6640625 707.333984375 374.331054688 713.000976562 402.998046875 713.000976562 c 0xb8
 426.331054688 713.000976562 447.998046875 711.000976562 467.998046875 707.000976562 c 1
 471.998046875 714.333984375 476.998046875 720.666992188 482.998046875 726 c 0
 492.331054688 734 502.6640625 738.666992188 513.998046875 740 c 0
 518.6640625 740.666992188 521.331054688 741 521.998046875 741 c 2
 522.998046875 741 l 2
 533.666015625 741 544.666015625 737.666992188 555.998046875 731 c 0
 569.998046875 721.666992188 578.998046875 708.666992188 582.998046875 692 c 0xd8
EndSplineSet
EndChar

StartChar: D
Encoding: 68 68 36
Width: 620
GlyphClass: 2
Flags: W
HStem: -31 109.998<178.756 403.349> 694 20G<81.6353 101.635>
VStem: 25.7031 121.477<109.381 166.726 194.179 614.997> 33.3027 125<100.593 519.491> 474.305 119.992<169.195 388.265>
LayerCount: 2
Fore
SplineSet
31.298828125 62 m 2xe8
 32.6318359375 84.6669921875 33.302734375 120.331054688 33.302734375 168.998046875 c 0xd8
 33.302734375 256.998046875 31.302734375 361.331054688 27.302734375 481.998046875 c 1
 26.6357421875 517.998046875 26.1357421875 541.831054688 25.802734375 553.498046875 c 0
 25.736328125 555.830078125 25.703125 558.401367188 25.703125 561.212890625 c 0
 25.703125 572.467773438 26.236328125 587.5625 27.302734375 606.499023438 c 0
 28.6357421875 630.166015625 29.302734375 644.666015625 29.302734375 649.999023438 c 1
 29.9697265625 670.666015625 35.9697265625 686.333007812 47.302734375 697 c 0
 58.6357421875 708.333007812 72.96875 714 90.3017578125 714 c 0
 112.96875 714 142.96875 710.666992188 180.301757812 704 c 0
 203.634765625 700 227.467773438 694.5 251.80078125 687.5 c 0
 276.133789062 680.5 302.466796875 670.666992188 330.799804688 658 c 0
 359.1328125 645.333007812 385.965820312 630.833007812 411.298828125 614.5 c 0
 436.631835938 598.166992188 460.96484375 577.333984375 484.297851562 552.000976562 c 0
 506.297851562 527.333984375 525.46484375 500.166992188 541.797851562 470.5 c 0
 558.130859375 440.833007812 570.963867188 405.833007812 580.296875 365.5 c 0
 589.629882812 325.166992188 594.296875 281.666992188 594.296875 235 c 0
 594.296875 211.666992188 590.963867188 187.666992188 584.296875 163 c 0
 577.629882812 138.333007812 567.629882812 114.666015625 554.296875 91.9990234375 c 0
 540.963867188 69.33203125 525.130859375 48.83203125 506.797851562 30.4990234375 c 0
 488.46484375 12.166015625 465.631835938 -2.6669921875 438.298828125 -14 c 0
 410.298828125 -25.3330078125 380.631835938 -31 349.298828125 -31 c 2
 339.298828125 -31 l 2
 306.631835938 -31 273.631835938 -29.5 240.298828125 -26.5 c 0
 206.965820312 -23.5 180.298828125 -20 160.298828125 -16 c 0
 140.298828125 -12 123.798828125 -8.3330078125 110.798828125 -5 c 0
 97.798828125 -1.6669921875 89.9658203125 0 87.298828125 0 c 0
 70.6318359375 0 56.6318359375 5.6669921875 45.298828125 17 c 0
 35.923828125 26.375 31.236328125 38.09375 31.236328125 52.1552734375 c 0
 31.236328125 53.0927734375 31.2568359375 54.041015625 31.298828125 55 c 2
 31.298828125 62 l 2xe8
242.802734375 85.9970703125 m 0
 273.135742188 81.330078125 308.3046875 78.998046875 348.3046875 78.998046875 c 0
 365.637695312 78.998046875 382.137695312 84.6650390625 397.8046875 95.998046875 c 0
 413.471679688 107.331054688 426.8046875 122.1640625 437.8046875 140.497070312 c 0
 448.8046875 158.830078125 457.637695312 179.330078125 464.3046875 201.997070312 c 0
 470.971679688 224.6640625 474.3046875 246.6640625 474.3046875 267.997070312 c 0
 474.3046875 388.6640625 420.971679688 480.997070312 314.3046875 544.997070312 c 0
 276.3046875 567.6640625 220.971679688 590.997070312 148.3046875 614.997070312 c 1
 147.5546875 584.499023438 147.1796875 553.485351562 147.1796875 521.955078125 c 0xe8
 147.1796875 469.401367188 148.221679688 415.416015625 150.3046875 359.997070312 c 0
 151.637695312 331.330078125 152.970703125 289.497070312 154.303710938 234.497070312 c 0
 155.63671875 179.497070312 156.969726562 137.330078125 158.302734375 107.997070312 c 1
 184.302734375 97.9970703125 212.469726562 90.6640625 242.802734375 85.9970703125 c 0
EndSplineSet
EndChar

StartChar: E
Encoding: 69 69 37
Width: 620
GlyphClass: 2
Flags: W
HStem: -20 112.001<165.549 509.752> -6 115<249.729 567.326> 301.002 108.999<160.799 434.434> 319.002 106<241.647 553.904> 590 107.999<165.994 569.505>
VStem: 37.7979 124.001<95.1892 301.002 410.001 581.907>
LayerCount: 2
Fore
SplineSet
104.796875 704 m 2x8c
 121.463867188 704 135.469726562 698.666015625 146.802734375 687.999023438 c 1
 204.135742188 694.666015625 277.799804688 697.999023438 367.799804688 697.999023438 c 0
 391.1328125 697.999023438 412.802734375 697.666015625 432.802734375 696.999023438 c 0
 474.135742188 695.666015625 506.46875 693.666015625 529.801757812 690.999023438 c 0
 548.46875 688.999023438 561.96875 683.83203125 570.301757812 675.499023438 c 0
 578.634765625 667.166015625 583.134765625 655.999023438 583.801757812 641.999023438 c 0
 583.801757812 634.666015625 582.96875 627.833007812 581.301757812 621.5 c 0
 579.634765625 615.166992188 577.134765625 609.333984375 573.801757812 604.000976562 c 0
 569.801757812 597.333984375 563.46875 592.333984375 554.801757812 589.000976562 c 0
 548.801757812 586.333984375 542.46875 585.000976562 535.801757812 585.000976562 c 0
 533.134765625 585.000976562 530.467773438 585.333984375 527.80078125 586.000976562 c 0
 489.470703125 588.778320312 449.521484375 590.166992188 407.952148438 590.166992188 c 0
 399.6328125 590.166992188 391.249023438 590.111328125 382.80078125 590 c 2
 328.80078125 590 l 2
 265.467773438 588.666992188 210.467773438 585.333984375 163.80078125 580.000976562 c 1
 161.133789062 522.000976562 159.80078125 465.333984375 159.80078125 410.000976562 c 1xac
 211.133789062 410.66796875 280.466796875 413.334960938 367.799804688 418.001953125 c 0
 453.799804688 422.668945312 502.131835938 425.001953125 512.798828125 425.001953125 c 0
 532.131835938 425.001953125 545.965820312 420.334960938 554.298828125 411.001953125 c 0
 562.631835938 401.668945312 566.798828125 390.001953125 566.798828125 376.001953125 c 0
 566.798828125 360.001953125 563.465820312 347.334960938 556.798828125 338.001953125 c 0
 547.465820312 326.001953125 532.798828125 319.668945312 512.798828125 319.001953125 c 0x1c
 500.798828125 319.001953125 449.131835938 316.334960938 357.798828125 311.001953125 c 0
 264.465820312 305.001953125 198.798828125 301.668945312 160.798828125 301.001953125 c 1
 161.465820312 284.334960938 161.798828125 268.16796875 161.798828125 252.500976562 c 2
 161.798828125 203.000976562 l 2
 162.465820312 158.333984375 163.798828125 127.333984375 165.798828125 110.000976562 c 0
 166.465820312 104.000976562 167.1328125 99.0009765625 167.799804688 95.0009765625 c 0
 181.1328125 93.0009765625 200.965820312 92.0009765625 227.298828125 92.0009765625 c 0xac
 253.631835938 92.0009765625 286.798828125 92.66796875 326.798828125 94.0009765625 c 0
 420.131835938 97.333984375 478.798828125 101.666992188 502.798828125 107 c 0
 512.798828125 108.333007812 521.965820312 109 530.298828125 109 c 0
 538.631835938 109 545.96484375 107.333007812 552.297851562 104 c 0
 558.630859375 100.666992188 563.797851562 97.1669921875 567.797851562 93.5 c 0
 571.797851562 89.8330078125 574.96484375 85.3330078125 577.297851562 80 c 0
 579.630859375 74.6669921875 581.297851562 70 582.297851562 66 c 0
 583.297851562 62 583.801757812 57.6669921875 583.801757812 53 c 0
 583.801757812 37 578.46484375 23 567.797851562 11 c 0
 557.797851562 -0.3330078125 543.797851562 -6.3330078125 525.797851562 -7 c 1
 520.46484375 1.6669921875 515.131835938 2 509.798828125 -6 c 1
 506.798828125 -6 l 2x4c
 491.465820312 -6 462.465820312 -7.3330078125 419.798828125 -10 c 0
 375.798828125 -12.6669921875 330.965820312 -15 285.298828125 -17 c 0
 239.631835938 -19 205.131835938 -20 181.798828125 -20 c 0
 159.131835938 -20 140.46484375 -19.3330078125 125.797851562 -18 c 0
 107.130859375 -16.6669921875 89.130859375 -8 71.7978515625 8 c 0
 54.46484375 24 44.46484375 43 41.7978515625 65 c 0
 39.7978515625 81 38.46484375 109 37.7978515625 149 c 0
 37.7978515625 185.666992188 38.130859375 222.5 38.7978515625 259.5 c 0
 39.46484375 296.5 39.7978515625 327.833007812 39.7978515625 353.5 c 0
 39.7978515625 379.166992188 39.130859375 415 37.7978515625 461 c 0
 37.130859375 499.666992188 36.630859375 525.5 36.2978515625 538.5 c 0
 36.2314453125 541.098632812 36.1982421875 543.916992188 36.1982421875 546.955078125 c 0
 36.1982421875 559.115234375 36.7314453125 574.796875 37.7978515625 594 c 0
 39.130859375 618 39.7978515625 633 39.7978515625 639 c 2
 39.7978515625 640 l 2
 40.46484375 660.666992188 46.46484375 676.5 57.7978515625 687.5 c 0
 69.130859375 698.5 83.4638671875 704 100.796875 704 c 2
 104.796875 704 l 2x8c
EndSplineSet
EndChar

StartChar: F
Encoding: 70 70 38
Width: 620
GlyphClass: 2
Flags: W
HStem: -22.002 21G<100.333 108.666> 313.498 106.502<160.999 517.152> 597 109.099<167.966 569.043> 695 20G<105.667 114.667>
VStem: 38 121.749<39.4946 142.728 166.745 310.581 416 589> 42 127.999<-3.56057 304.932>
LayerCount: 2
Fore
SplineSet
106 715 m 0xd8
 123.333007812 715 137.333007812 709.33203125 148 697.999023438 c 1
 225.397460938 703.3984375 300.905273438 706.098632812 374.522460938 706.098632812 c 0
 382.705078125 706.098632812 390.864257812 706.065429688 399 705.999023438 c 0
 452.333007812 705.999023438 496 704.666015625 530 701.999023438 c 0
 548.666992188 700.666015625 562.166992188 695.666015625 570.5 686.999023438 c 0
 578.833007812 678.33203125 583.333007812 666.999023438 584 652.999023438 c 2
 584 651.999023438 l 2
 584 636.666015625 579.166992188 623.333007812 569.5 612 c 0
 559.833007812 600.666992188 545.333007812 595 526 595 c 2
 524 595 l 2
 496.500976562 596.5 467.688476562 597.25 437.565429688 597.25 c 0
 427.522460938 597.25 417.333984375 597.166992188 407 597 c 0
 329.666992188 597 248.666992188 594.333007812 164 589 c 1
 163.333007812 579 162.666015625 563.666992188 161.999023438 543 c 0
 160.499023438 513.500976562 159.749023438 485.501953125 159.749023438 459.002929688 c 0xe8
 159.749023438 450.16796875 159.83203125 441.500976562 159.999023438 433 c 2
 159.999023438 416 l 1
 187.33203125 418.666992188 216.999023438 420 248.999023438 420 c 0
 257.666015625 420 266.333007812 419.666992188 275 419 c 0
 323 418.333007812 366.333007812 416.666015625 405 413.999023438 c 0
 444.333007812 411.33203125 473.833007812 408.165039062 493.5 404.498046875 c 0
 513.166992188 400.831054688 526.833984375 395.1640625 534.500976562 387.497070312 c 0
 542.16796875 379.830078125 546.66796875 369.330078125 548.000976562 355.997070312 c 0
 548.000976562 341.997070312 544.66796875 329.6640625 538.000976562 318.997070312 c 0
 533.333984375 312.330078125 526.666992188 307.330078125 518 303.997070312 c 0
 512 301.997070312 505.333007812 300.997070312 498 300.997070312 c 2
 491 300.997070312 l 2
 470.333007812 304.330078125 440.333007812 307.330078125 401 309.997070312 c 0
 363.662109375 312.368164062 325.270507812 313.553710938 285.825195312 313.553710938 c 0
 280.899414062 313.553710938 275.958007812 313.53515625 271 313.498046875 c 0
 226.333007812 313.165039062 189.666015625 311.665039062 160.999023438 308.998046875 c 1
 164.33203125 222.331054688 167.33203125 130.998046875 169.999023438 34.998046875 c 0
 167.999023438 16.998046875 159.33203125 2.998046875 143.999023438 -7.001953125 c 0
 130.666015625 -16.3349609375 116.33203125 -21.3349609375 100.999023438 -22.001953125 c 0
 99.666015625 -22.001953125 98.6669921875 -21.6689453125 98 -21.001953125 c 0
 81.3330078125 -21.001953125 67.3330078125 -15.3349609375 56 -4.001953125 c 0
 46.625 5.373046875 41.9375 17.3837890625 41.9375 32.0322265625 c 0
 41.9375 33.0087890625 41.9580078125 33.998046875 42 34.998046875 c 2
 42 40.998046875 l 2xe4
 43.3330078125 61.6650390625 44 96.33203125 44 144.999023438 c 0
 44 236.999023438 42 338.999023438 38 450.999023438 c 0
 36.6669921875 494.33203125 36 523.499023438 36 538.499023438 c 0
 36 553.499023438 36.5 573.499023438 37.5 598.499023438 c 0
 38.5 623.499023438 39.3330078125 640.666015625 40 649.999023438 c 0
 40.6669921875 670.666015625 46.6669921875 686.333007812 58 697 c 0
 69.3330078125 708.333007812 83.666015625 714 100.999023438 714 c 0
 103.666015625 714.666992188 105.333007812 715 106 715 c 0xd8
EndSplineSet
EndChar

StartChar: G
Encoding: 71 71 39
Width: 620
GlyphClass: 2
Flags: W
HStem: -30.9951 113.997<220.073 344.129> 619.005 104.999<337.592 475.141>
VStem: 26.002 123.998<160.189 376.151>
LayerCount: 2
Fore
SplineSet
353.99609375 -16 m 0
 327.329101562 -26 300.66796875 -30.9951171875 274.000976562 -30.9951171875 c 0
 241.333984375 -30.9951171875 211.000976562 -26.328125 183.000976562 -16.9951171875 c 0
 155.66796875 -7.662109375 132.8359375 5.1708984375 114.501953125 21.50390625 c 0
 96.169921875 37.8369140625 80.169921875 56.3369140625 66.501953125 77.00390625 c 0
 52.8359375 97.6708984375 42.66796875 119.50390625 36.001953125 142.50390625 c 0
 29.333984375 165.50390625 26.001953125 188.670898438 26.001953125 212.00390625 c 0
 26.001953125 260.670898438 31.16796875 308.00390625 41.501953125 354.00390625 c 0
 51.833984375 400.00390625 65.66796875 441.336914062 83 478.00390625 c 0
 100.333984375 514.670898438 120.666015625 548.670898438 144 580.00390625 c 0
 169.33203125 610.670898438 196.165039062 636.50390625 224.498046875 657.50390625 c 0
 252.83203125 678.50390625 281.998046875 694.670898438 311.998046875 706.00390625 c 0
 342.665039062 718.00390625 372.998046875 724.00390625 402.998046875 724.00390625 c 0
 432.998046875 724.00390625 466.665039062 717.336914062 503.998046875 704.00390625 c 0
 539.998046875 690.670898438 563.665039062 678.337890625 574.998046875 667.004882812 c 0
 586.998046875 655.004882812 593.33203125 640.671875 593.998046875 624.004882812 c 0
 593.998046875 616.004882812 592.33203125 607.337890625 588.998046875 598.004882812 c 0
 584.998046875 586.004882812 576.33203125 577.337890625 562.998046875 572.004882812 c 0
 556.33203125 569.337890625 549.6640625 568.004882812 542.997070312 568.004882812 c 0
 535.6640625 568.004882812 529.33203125 569.004882812 523.998046875 571.004882812 c 0
 518.665039062 573.004882812 508.665039062 578.337890625 493.998046875 587.004882812 c 0
 479.33203125 595.671875 464.33203125 603.171875 448.998046875 609.504882812 c 0
 433.665039062 615.837890625 420.33203125 619.004882812 409 619.004882812 c 0
 389 619.004882812 367 612.837890625 343 600.504882812 c 0
 319 588.171875 295.83203125 570.171875 273.5 546.504882812 c 0
 251.166015625 522.837890625 230.666015625 495.670898438 212 465.00390625 c 0
 193.33203125 434.336914062 178.33203125 399.669921875 167 361.002929688 c 0
 155.666015625 322.3359375 150 283.668945312 150 245.001953125 c 0
 150 218.334960938 156 192.501953125 168 167.501953125 c 0
 180 142.501953125 196.5 122.168945312 217.5 106.501953125 c 0
 238.5 90.8349609375 260.666015625 83.001953125 284 83.001953125 c 0
 299.33203125 83.001953125 315 87.501953125 331 96.501953125 c 0
 347 105.501953125 362 117.334960938 376 132.001953125 c 0
 390 146.668945312 403.33203125 163.3359375 416 182.002929688 c 0
 435.33203125 210.669921875 450.665039062 240.002929688 461.998046875 270.002929688 c 1
 423.33203125 268.002929688 384.33203125 264.502929688 344.998046875 259.502929688 c 0
 305.665039062 254.502929688 278.33203125 248.3359375 263 241.002929688 c 0
 255 237.002929688 247 235.002929688 239 235.002929688 c 0
 231 235.002929688 223 237.3359375 215 242.002929688 c 0
 200.33203125 250.002929688 191.665039062 261.3359375 188.998046875 276.002929688 c 0
 188.33203125 279.3359375 187.998046875 282.668945312 187.998046875 286.001953125 c 0
 187.998046875 300.001953125 193.665039062 312.668945312 204.998046875 324.001953125 c 0
 212.998046875 332.001953125 223.998046875 339.001953125 237.998046875 345.001953125 c 0
 259.998046875 355.001953125 305.33203125 362.334960938 373.998046875 367.001953125 c 0
 423.33203125 370.334960938 464.6640625 372.001953125 497.997070312 372.001953125 c 2
 530.997070312 372.001953125 l 2
 550.330078125 370.668945312 564.330078125 366.668945312 572.997070312 360.001953125 c 0
 584.330078125 351.334960938 589.997070312 337.66796875 589.997070312 319.000976562 c 0
 589.997070312 299.000976562 582.6640625 284.66796875 567.997070312 276.000976562 c 0
 567.997070312 274.000976562 567.330078125 270.000976562 565.997070312 264.000976562 c 0
 565.330078125 260.66796875 564.6640625 255.000976562 563.99609375 247.000976562 c 0
 560.6640625 218.333984375 547.330078125 181.666992188 523.997070312 137 c 0
 512.6640625 116.333007812 498.6640625 96 481.997070312 76 c 0
 464.6640625 56 445.6640625 38.1669921875 424.997070312 22.5 c 0
 404.330078125 6.8330078125 380.6640625 -6 353.99609375 -16 c 0
EndSplineSet
EndChar

StartChar: H
Encoding: 72 72 40
Width: 620
GlyphClass: 2
Flags: W
HStem: -21.999 21G<105.334 113.667 497.335 506.001> 312.001 86.0049<177.998 384.945> 694.003 20G<108.332 127.998 500.667 520.334>
VStem: 53.499 122.499<-3.04591 184.934 189.06 312.001 398.006 696.499> 438.001 128<-5.04489 337.626> 445.999 124.335<44.0761 341.001 420.471 696.468>
LayerCount: 2
Fore
SplineSet
46.9990234375 33 m 2xf8
 46.9990234375 41.0048828125 l 2
 48.33203125 59.0048828125 48.9990234375 103.671875 48.9990234375 175.004882812 c 0
 48.9990234375 215.671875 49.83203125 265.171875 51.4990234375 323.504882812 c 0
 53.166015625 381.837890625 53.9990234375 416.837890625 53.9990234375 428.504882812 c 2
 53.9990234375 463.504882812 l 2
 53.9990234375 475.171875 53.83203125 494.671875 53.4990234375 522.004882812 c 0
 53.166015625 549.337890625 52.9990234375 567.504882812 52.9990234375 576.504882812 c 0
 52.9990234375 585.504882812 53.166015625 594.671875 53.4990234375 604.004882812 c 0
 53.83203125 613.337890625 53.9990234375 619.004882812 53.9990234375 621.004882812 c 0
 53.9990234375 623.004882812 54.166015625 625.671875 54.4990234375 629.004882812 c 0
 54.83203125 632.337890625 54.9990234375 635.504882812 54.9990234375 638.504882812 c 2
 54.9990234375 646.504882812 l 1
 54.9990234375 650.004882812 l 2
 55.666015625 670.671875 61.9990234375 686.3359375 73.9990234375 697.002929688 c 0
 85.33203125 708.3359375 99.6650390625 714.002929688 116.998046875 714.002929688 c 2
 119.998046875 714.002929688 l 2
 135.998046875 714.002929688 149.665039062 709.3359375 160.998046875 700.002929688 c 0
 174.331054688 689.3359375 181.331054688 673.005859375 181.998046875 651.005859375 c 0
 181.998046875 643.672851562 180.998046875 629.005859375 178.998046875 607.005859375 c 0
 176.998046875 585.005859375 175.998046875 565.172851562 175.998046875 547.505859375 c 0
 175.998046875 529.838867188 176.331054688 505.005859375 176.998046875 473.005859375 c 0
 177.665039062 441.005859375 177.998046875 416.005859375 177.998046875 398.005859375 c 1
 235.998046875 399.338867188 306.665039062 405.338867188 389.998046875 416.005859375 c 0
 414.665039062 419.338867188 433.333007812 421.671875 445.999023438 423.004882812 c 0
 445.999023438 425.671875 445.833007812 430.171875 445.499023438 436.504882812 c 0
 445.166015625 442.837890625 444.833007812 457.670898438 444.500976562 481.00390625 c 0
 444.166992188 504.336914062 444.000976562 522.50390625 444.000976562 535.50390625 c 0
 444.000976562 548.50390625 444.499023438 569.00390625 445.499023438 597.00390625 c 0
 446.499023438 625.00390625 447.333007812 642.00390625 448.000976562 648.00390625 c 0
 448.666992188 669.336914062 454.666992188 685.669921875 466.000976562 697.002929688 c 0
 478.000976562 708.3359375 492.333007812 714.002929688 509.000976562 714.002929688 c 2
 512.000976562 714.002929688 l 2
 528.666992188 714.002929688 542.666992188 709.3359375 554.000976562 700.002929688 c 0
 566.666992188 689.3359375 573.000976562 673.668945312 573.000976562 653.001953125 c 0
 573.000976562 640.334960938 572.666992188 615.001953125 572.000976562 577.001953125 c 0
 571.333007812 530.334960938 570.833007812 488.501953125 570.500976562 451.501953125 c 0
 570.388671875 439.180664062 570.333984375 427.709960938 570.333984375 417.088867188 c 0xf4
 570.333984375 395.815429688 570.555664062 377.954101562 571.000976562 363.501953125 c 0
 571.668945312 341.834960938 572.000976562 321.66796875 572.000976562 303.000976562 c 0
 572.000976562 266.333984375 571.000976562 219.500976562 569.000976562 162.500976562 c 0
 567.000976562 105.500976562 566.000976562 65.66796875 566.000976562 43.0009765625 c 2
 566.000976562 35.0009765625 l 2
 564.000976562 17.0009765625 556.000976562 3.0009765625 542.000976562 -6.9990234375 c 0
 528.668945312 -16.33203125 514.000976562 -21.33203125 498.000976562 -21.9990234375 c 0
 496.668945312 -21.9990234375 495.668945312 -21.666015625 495.000976562 -20.9990234375 c 0
 478.333984375 -20.9990234375 464.666992188 -15.33203125 454.000976562 -3.9990234375 c 0
 443.333007812 6.0009765625 438.000976562 19.333984375 438.000976562 36.0009765625 c 2
 438.000976562 43.0009765625 l 1
 444.666992188 127.000976562 448.000976562 220.333984375 448.000976562 323.000976562 c 2
 448.000976562 341.000976562 l 1
 426.000976562 339.000976562 383.500976562 333.833984375 320.500976562 325.500976562 c 0
 257.500976562 317.16796875 209.000976562 312.66796875 175.000976562 312.000976562 c 1
 175.000976562 303.000976562 l 2
 173.000976562 269.66796875 172.000976562 231.000976562 172.000976562 187.000976562 c 0
 172.000976562 143.000976562 173.000976562 92.66796875 175.000976562 36.0009765625 c 0
 173.000976562 17.333984375 164.333007812 3.0009765625 149.000976562 -6.9990234375 c 0
 135.666992188 -16.33203125 121.333984375 -21.33203125 106.000976562 -21.9990234375 c 0
 104.66796875 -21.9990234375 103.66796875 -21.666015625 103.000976562 -20.9990234375 c 0
 86.333984375 -20.9990234375 72.333984375 -15.33203125 61.0009765625 -3.9990234375 c 0
 51.66796875 5.333984375 46.9990234375 17.6669921875 46.9990234375 33 c 2xf8
EndSplineSet
EndChar

StartChar: I
Encoding: 73 73 41
Width: 620
GlyphClass: 2
Flags: W
HStem: -11.001 102.999<52.5044 231.312 375 435.94 439.959 526 529 571.104> -7.00098 98.999<375 526 529 571.104> 599.998 110.001<60.0194 245.002>
VStem: 239.002 135.998<92.998 192.728> 246.002 134.999<94.249 597.999>
LayerCount: 2
Fore
SplineSet
189 -12 m 1x70
 145 -13.3330078125 114.66796875 -14.001953125 98.0009765625 -14.001953125 c 0
 78.0009765625 -14.001953125 62.66796875 -9.6689453125 52.0009765625 -1.001953125 c 0
 40.66796875 7.6650390625 35.0009765625 18.998046875 35.0009765625 32.998046875 c 2
 35.0009765625 35.998046875 l 2
 35.0009765625 49.3310546875 39.833984375 60.998046875 49.5009765625 70.998046875 c 0
 59.16796875 80.998046875 74.3349609375 86.3310546875 95.001953125 86.998046875 c 0
 121.668945312 88.3310546875 169.668945312 89.6640625 239.001953125 90.9970703125 c 1x70
 243.668945312 160.330078125 246.001953125 232.330078125 246.001953125 306.997070312 c 0
 246.001953125 346.330078125 245.334960938 386.330078125 244.001953125 426.997070312 c 0
 242.668945312 455.6640625 242.001953125 486.6640625 242.001953125 519.997070312 c 2
 242.001953125 540.997070312 l 2
 242.001953125 547.6640625 242.501953125 557.831054688 243.501953125 571.498046875 c 0
 244.501953125 585.165039062 245.001953125 594.665039062 245.001953125 599.998046875 c 1
 206.334960938 600.665039062 177.66796875 600.998046875 159.000976562 600.998046875 c 0
 141.66796875 600.998046875 124.000976562 600.665039062 106.000976562 599.998046875 c 2
 104.000976562 599.998046875 l 2
 85.333984375 599.998046875 70.5009765625 604.665039062 59.5009765625 613.998046875 c 0
 48.5009765625 623.331054688 42.66796875 635.998046875 42.0009765625 651.998046875 c 2
 42.0009765625 653.998046875 l 2
 42.0009765625 667.998046875 47.16796875 680.331054688 57.5009765625 690.998046875 c 0
 67.833984375 701.665039062 83.333984375 707.33203125 104.000976562 707.999023438 c 0
 161.333984375 709.33203125 216.333984375 709.999023438 269.000976562 709.999023438 c 0
 373.66796875 709.999023438 459.333007812 706.999023438 526 700.999023438 c 0
 541.333007812 699.666015625 553.66796875 695.333007812 563.000976562 688 c 0
 575.66796875 678.666992188 582.334960938 665.666992188 583.001953125 649 c 2
 583.001953125 648 l 2
 583.001953125 633.333007812 578.668945312 619.666015625 570.001953125 606.999023438 c 0
 565.334960938 599.666015625 558.66796875 593.999023438 550.000976562 589.999023438 c 0
 544.66796875 587.33203125 538.66796875 585.999023438 532.000976562 585.999023438 c 0
 528.66796875 585.999023438 524.66796875 586.666015625 520.000976562 587.999023438 c 0
 501.333984375 590.666015625 455.333984375 593.999023438 382.000976562 597.999023438 c 1
 382.000976562 590.666015625 381.333984375 577.333007812 380.000976562 558 c 0
 379.333984375 539.333007812 379.000976562 524.833007812 379.000976562 514.5 c 2
 379.000976562 484 l 2
 379.000976562 444.666992188 379.333984375 412.166992188 380.000976562 386.5 c 0
 380.66796875 360.833007812 381.000976562 334.666015625 381.000976562 307.999023438 c 0x68
 381.000976562 281.33203125 380.16796875 243.665039062 378.500976562 194.998046875 c 0
 376.833984375 146.331054688 375.666992188 112.331054688 375 92.998046875 c 1
 403 92.998046875 426 92.6650390625 444 91.998046875 c 2
 526 91.998046875 l 1xb0
 526 97.3310546875 526.333007812 97.3310546875 527 91.998046875 c 1
 527 97.3310546875 527.33203125 97.3310546875 527.999023438 91.998046875 c 1
 527.999023438 97.3310546875 528.333007812 97.3310546875 529 91.998046875 c 1x70
 529 97.3310546875 529.333007812 97.3310546875 530 91.998046875 c 1
 549.333007812 91.998046875 563.166015625 87.498046875 571.499023438 78.498046875 c 0
 579.83203125 69.498046875 584.33203125 58.3310546875 584.999023438 44.998046875 c 2
 584.999023438 43.9990234375 l 2
 584.999023438 37.33203125 584.334960938 30.9990234375 583.001953125 24.9990234375 c 0
 581.668945312 18.9990234375 579.333007812 12.9990234375 576 6.9990234375 c 0
 571.333007812 -0.333984375 564.666015625 -5.333984375 555.999023438 -8.0009765625 c 0
 550.666015625 -10.0009765625 545.666015625 -11.0009765625 540.999023438 -11.0009765625 c 2
 527.999023438 -11.0009765625 l 2xb0
 509.999023438 -8.333984375 479.999023438 -7.0009765625 437.999023438 -7.0009765625 c 0
 393.999023438 -7.0009765625 354.33203125 -7.333984375 318.999023438 -8.0009765625 c 1
 300.942382812 -5.22265625 282.88671875 -3.833984375 264.830078125 -3.833984375 c 0
 189 -12 l 1x70
EndSplineSet
EndChar

StartChar: J
Encoding: 74 74 42
Width: 620
GlyphClass: 2
Flags: W
HStem: -35 125.998<204.068 306.458> 599.998 110.002<64.5029 307 427.998 535.842>
VStem: 32.502 114.498<150.857 256.964> 306.75 121.248<425.658 596.001> 310 125.998<103.937 595.189>
LayerCount: 2
Fore
SplineSet
432.998046875 217 m 0xe8
 421.666015625 101 398.001953125 26.3330078125 362.001953125 -7 c 0
 342.66796875 -25.6669921875 319.66796875 -35 293.001953125 -35 c 0
 266.333984375 -35 240.501953125 -30.6669921875 215.501953125 -22 c 0
 190.501953125 -13.3330078125 169.001953125 -2.3330078125 151.001953125 11 c 0
 133.66796875 25 117.834960938 40.1669921875 103.501953125 56.5 c 0
 89.169921875 72.8330078125 77.169921875 89 67.501953125 105 c 0
 57.8359375 121 50.16796875 135.666992188 44.501953125 149 c 0
 38.833984375 162.333007812 35.333984375 173 34.001953125 181 c 0
 32.001953125 188.333007812 31.501953125 196.5 32.501953125 205.5 c 0
 33.501953125 214.5 35.001953125 223 37.001953125 231 c 0
 39.66796875 240.333007812 45.001953125 248.666015625 53.001953125 255.999023438 c 0
 61.001953125 263.33203125 71.333984375 267.999023438 84.001953125 269.999023438 c 0
 88.001953125 270.666015625 92.001953125 270.999023438 96.001953125 270.999023438 c 0
 109.333984375 270.999023438 120.666992188 266.999023438 130 258.999023438 c 0
 141.333984375 248.33203125 147 234.665039062 147 217.998046875 c 0
 147 201.998046875 152.333984375 182.998046875 163 160.998046875 c 0
 169.666992188 148.331054688 177.666992188 136.998046875 187 126.998046875 c 0
 196.333984375 116.998046875 209 108.498046875 225 101.498046875 c 0
 241 94.498046875 259 90.998046875 279 90.998046875 c 0
 279.666992188 90.998046875 280.333984375 91.3310546875 281.001953125 91.998046875 c 0
 285.66796875 95.3310546875 290.001953125 102.998046875 294.001953125 114.998046875 c 0
 303.333984375 143.665039062 308.666992188 186.998046875 310 244.998046875 c 2
 310 246.998046875 l 1
 310 267.498046875 l 2xe8
 310 279.831054688 309.666992188 312.998046875 309 366.998046875 c 0
 307.5 426.99609375 306.75 485.682617188 306.75 543.055664062 c 0
 306.75 562.182617188 306.833984375 581.163085938 307 599.998046875 c 1
 269.333984375 600.998046875 234.083984375 601.498046875 201.25 601.498046875 c 0
 168.416992188 601.498046875 138 600.998046875 110 599.998046875 c 2
 108 599.998046875 l 2
 89.333984375 599.998046875 74.666015625 604.665039062 64 613.998046875 c 0
 53.33203125 623.331054688 47.666015625 635.998046875 46.998046875 651.998046875 c 0
 46.998046875 652.665039062 46.666015625 653.33203125 45.998046875 653.999023438 c 0
 45.998046875 667.999023438 51.33203125 680.33203125 61.998046875 690.999023438 c 0
 72.666015625 701.666015625 88.33203125 707.333007812 109 708 c 0
 166.999023438 709.333007812 221.999023438 710 273.999023438 710 c 0
 377.999023438 710 463.33203125 707 529.999023438 701 c 0
 545.33203125 699.666992188 557.666015625 695.333984375 566.998046875 688.000976562 c 0
 579.666015625 678.66796875 586.666015625 665.334960938 587.998046875 648.001953125 c 0
 587.998046875 633.334960938 583.666015625 619.66796875 574.998046875 607.000976562 c 0
 570.331054688 599.66796875 563.331054688 594.000976562 553.998046875 590.000976562 c 0
 548.666015625 587.333984375 542.666015625 586.000976562 535.998046875 586.000976562 c 0
 532.666015625 586.000976562 528.998046875 586.66796875 524.998046875 588.000976562 c 0
 504.331054688 591.333984375 471.998046875 594.000976562 427.998046875 596.000976562 c 1xf0
 427.998046875 579.333984375 430.331054688 521.000976562 434.998046875 421.000976562 c 0
 436.064453125 399.131835938 436.59765625 380.036132812 436.59765625 363.713867188 c 0
 436.59765625 359.63671875 436.564453125 355.732421875 436.498046875 352.000976562 c 0
 436.166015625 333.333984375 435.998046875 321.666992188 435.998046875 317 c 0
 435.998046875 275 434.998046875 241.666992188 432.998046875 217 c 0xe8
EndSplineSet
EndChar

StartChar: K
Encoding: 75 75 43
Width: 620
GlyphClass: 2
Flags: W
HStem: -22 21G<102.233 110.899 526.054 528.903> 694.065 20G<91.5693 100.036 490.566 495.233>
VStem: 45.9004 116.999<107.028 271.001 452.999 540.271 541.723 700.529>
LayerCount: 2
Fore
SplineSet
102.899414062 -22 m 0
 101.56640625 -22 100.234375 -21.666015625 98.9013671875 -20.9990234375 c 0
 82.234375 -20.9990234375 68.5673828125 -16.666015625 57.900390625 -7.9990234375 c 0
 47.900390625 0.0009765625 42.900390625 10.66796875 42.900390625 24.0009765625 c 0
 42.900390625 26.66796875 43.2333984375 29.3349609375 43.900390625 32.001953125 c 0
 45.2333984375 53.3349609375 45.900390625 88.66796875 45.900390625 138.000976562 c 0
 45.900390625 233.333984375 43.900390625 338.666992188 39.900390625 454 c 0
 38.5673828125 496.666992188 37.900390625 525.666992188 37.900390625 541 c 0
 37.900390625 556.333007812 38.5673828125 578 39.900390625 606 c 0
 41.2333984375 634.666992188 41.900390625 652.666992188 41.900390625 660 c 1
 42.5673828125 677.333007812 48.5673828125 691 59.900390625 701 c 0
 70.4775390625 709.7109375 83.66796875 714.065429688 99.470703125 714.065429688 c 0
 100.600585938 714.065429688 101.743164062 714.043945312 102.899414062 713.999023438 c 2
 105.899414062 713.999023438 l 2
 121.899414062 713.999023438 135.899414062 710.33203125 147.899414062 702.999023438 c 0
 160.59765625 694.745117188 166.946289062 682.258789062 166.946289062 665.540039062 c 0
 166.946289062 651.19921875 166.309570312 618.120117188 164.8984375 567.999023438 c 0
 163.565429688 521.33203125 162.565429688 482.999023438 161.8984375 452.999023438 c 1
 186.565429688 472.999023438 221.8984375 501.666015625 267.8984375 538.999023438 c 0
 366.565429688 627.666015625 424.8984375 679.333007812 442.8984375 694 c 0
 454.231445312 702.666992188 465.231445312 708.666992188 475.8984375 712 c 0
 482.565429688 714 488.232421875 715 492.899414062 715 c 0
 497.56640625 715 501.899414062 714.666992188 505.899414062 714 c 0
 514.56640625 712 522.233398438 708 528.900390625 702 c 0
 538.233398438 694 542.900390625 685.333007812 542.900390625 676 c 0
 542.900390625 658 535.567382812 638.666992188 520.900390625 618 c 0
 510.900390625 605.333007812 474.900390625 569 412.900390625 509 c 1
 348.900390625 453 292.567382812 404.333007812 243.900390625 363 c 1
 269.233398438 339 309.56640625 303.333007812 364.899414062 256 c 0
 420.232421875 211.333007812 468.232421875 171 508.899414062 135 c 0
 531.56640625 113 548.233398438 95.6669921875 558.900390625 83 c 0
 570.233398438 67.6669921875 576.900390625 57 578.900390625 51 c 0
 581.567382812 42.3330078125 582.567382812 34 581.900390625 26 c 0
 581.900390625 20.6669921875 580.900390625 15.333984375 578.900390625 10.0009765625 c 0
 574.233398438 0.66796875 566.56640625 -6.6650390625 555.899414062 -11.998046875 c 0
 541.354492188 -18.05859375 531.493164062 -21.0888671875 526.313476562 -21.0888671875 c 0
 525.794921875 -21.0888671875 525.32421875 -21.05859375 524.899414062 -20.998046875 c 2
 523.899414062 -20.998046875 l 2
 505.899414062 -20.998046875 488.899414062 -12.6650390625 472.899414062 4.001953125 c 0
 466.232421875 12.001953125 440.899414062 35.001953125 396.899414062 73.001953125 c 0
 352.899414062 110.334960938 304.899414062 151.66796875 252.899414062 197.000976562 c 0
 215.56640625 226.333984375 185.56640625 251.000976562 162.899414062 271.000976562 c 1
 171.899414062 25.0009765625 l 2
 169.899414062 10.333984375 161.232421875 -1.3330078125 145.899414062 -10 c 0
 133.232421875 -18 118.899414062 -22 102.899414062 -22 c 0
EndSplineSet
EndChar

StartChar: L
Encoding: 76 76 44
Width: 620
GlyphClass: 2
Flags: W
HStem: -14.999 116.996<166.044 167.029 168.029 450.668>
VStem: 38.0312 127.997<95.9971 265.875> 67.3652 118.668<163.162 688.982>
LayerCount: 2
Fore
SplineSet
173.033203125 209 m 0xa0
 169.033203125 161 166.6953125 123.330078125 166.028320312 95.9970703125 c 1
 166.361328125 99.9970703125 166.6953125 101.997070312 167.029296875 101.997070312 c 0
 168.029296875 95.9970703125 l 1
 225.361328125 95.9970703125 292.361328125 99.330078125 369.029296875 105.997070312 c 0
 444.361328125 112.6640625 494.029296875 119.331054688 518.029296875 125.998046875 c 0
 521.763671875 127.064453125 525.498046875 127.59765625 529.231445312 127.59765625 c 0
 532.029296875 127.498046875 l 0
 536.697265625 127.165039062 541.364257812 125.998046875 546.03125 123.998046875 c 0
 554.697265625 120.665039062 562.03125 115.33203125 568.03125 107.999023438 c 0
 572.697265625 101.33203125 576.03125 94.33203125 578.03125 86.9990234375 c 0
 580.697265625 78.9990234375 582.03125 71.9990234375 582.03125 65.9990234375 c 0
 582.03125 50.666015625 578.03125 38.3330078125 570.03125 29 c 0
 562.03125 19.6669921875 548.364257812 13.333984375 529.03125 10.0009765625 c 0
 483.03125 1.333984375 409.864257812 -4.9990234375 309.53125 -8.9990234375 c 0
 209.197265625 -12.9990234375 137.365234375 -14.9990234375 94.03125 -14.9990234375 c 0
 77.365234375 -14.9990234375 63.365234375 -9.33203125 52.03125 2.0009765625 c 0
 42.65625 11.3759765625 37.96875 23.38671875 37.96875 38.03515625 c 0
 37.96875 39.01171875 37.990234375 40.0009765625 38.03125 41.0009765625 c 2
 38.03125 50.0009765625 l 2xc0
 38.03125 54.0009765625 41.865234375 90.333984375 49.53125 159.000976562 c 0
 57.19921875 227.66796875 62.69921875 293.66796875 66.03125 357.000976562 c 0
 66.919921875 369.88671875 67.365234375 384.697265625 67.365234375 401.432617188 c 0
 67.365234375 409.806640625 67.25390625 418.663085938 67.03125 428.000976562 c 0
 67.03125 452.66796875 66.36328125 523.66796875 65.03125 641.000976562 c 2
 65.03125 642.000976562 l 2
 65.697265625 662.66796875 71.865234375 678.500976562 83.53125 689.500976562 c 0
 95.19921875 700.500976562 109.365234375 706.000976562 126.033203125 706.000976562 c 2
 129.033203125 706.000976562 l 2
 145.033203125 706.000976562 159.365234375 701.333984375 172.033203125 692.000976562 c 0
 185.396484375 681.819335938 192.079101562 667.081054688 192.079101562 647.788085938 c 0
 192.079101562 647 192.068359375 618.723632812 191.033203125 569 c 0
 189.700195312 525.666992188 188.033203125 485 186.033203125 447 c 0
 184.033203125 405 182.365234375 363 181.033203125 321 c 0
 179.700195312 294.333007812 177.033203125 257 173.033203125 209 c 0xa0
EndSplineSet
EndChar

StartChar: M
Encoding: 77 77 45
Width: 620
GlyphClass: 2
Flags: W
HStem: -10.001 21G<64.3315 77.3315 293.002 324.002>
VStem: 19.998 108<16.5645 315.532>
LayerCount: 2
Fore
SplineSet
127.998046875 63.9990234375 m 2
 127.998046875 52.9990234375 l 2
 127.998046875 34.9990234375 122.666015625 19.9990234375 111.998046875 7.9990234375 c 0
 99.998046875 -4.0009765625 85.6650390625 -10.0009765625 68.998046875 -10.0009765625 c 2
 67.998046875 -10.0009765625 l 2
 60.6650390625 -10.0009765625 53.998046875 -8.66796875 47.998046875 -6.0009765625 c 0
 39.3310546875 -2.0009765625 32.3310546875 5.33203125 26.998046875 15.9990234375 c 0
 22.3310546875 27.9990234375 19.998046875 43.9990234375 19.998046875 63.9990234375 c 0
 19.998046875 72.666015625 20.998046875 86.9990234375 22.998046875 106.999023438 c 0
 24.998046875 126.33203125 27.3310546875 151.999023438 29.998046875 183.999023438 c 0
 33.3310546875 217.999023438 36.998046875 258.33203125 40.998046875 304.999023438 c 0
 44.998046875 352.33203125 47.998046875 389.665039062 49.998046875 416.998046875 c 0
 58.6650390625 512.998046875 66.33203125 579.331054688 72.9990234375 615.998046875 c 0
 77.666015625 639.331054688 82.666015625 655.6640625 87.9990234375 664.997070312 c 0
 95.9990234375 678.997070312 108.33203125 689.330078125 124.999023438 695.997070312 c 0
 138.999023438 701.330078125 152.999023438 703.998046875 166.999023438 703.998046875 c 2
 172.999023438 703.998046875 l 2
 189.666015625 703.998046875 203.333984375 701.6640625 214 696.997070312 c 0
 228.666992188 690.997070312 238.666992188 680.997070312 244 666.997070312 c 0
 252.666992188 637.6640625 262 589.331054688 272 521.998046875 c 0
 282 454.665039062 292.666992188 377.665039062 304 290.998046875 c 0
 306.666992188 271.665039062 308.666992188 254.33203125 310 238.999023438 c 1
 314.666992188 286.999023438 319.333984375 331.666015625 324.001953125 372.999023438 c 0
 330.66796875 428.33203125 339.66796875 483.665039062 351.001953125 538.998046875 c 0
 362.333984375 594.331054688 372.001953125 636.997070312 380.001953125 666.997070312 c 0
 383.333984375 676.997070312 391.001953125 685.331054688 403.001953125 691.998046875 c 0
 413.66796875 697.998046875 425.001953125 701.665039062 437.001953125 702.998046875 c 0
 444.333984375 704.331054688 450.501953125 704.831054688 455.501953125 704.498046875 c 0
 460.501953125 704.165039062 464.66796875 703.998046875 468.001953125 703.998046875 c 2
 471.001953125 703.998046875 l 1
 486.501953125 703.998046875 l 2
 490.833984375 703.998046875 496.666992188 702.998046875 504 700.998046875 c 0
 511.333984375 699.665039062 517.5 697.665039062 522.5 694.998046875 c 0
 527.5 692.331054688 532.333984375 688.331054688 537 682.998046875 c 0
 541.666992188 676.998046875 544.666992188 669.998046875 546 661.998046875 c 0
 548.666992188 641.998046875 556.333984375 544.998046875 569.001953125 370.998046875 c 0
 581.66796875 197.665039062 590.66796875 99.6650390625 596.001953125 76.998046875 c 0
 598.66796875 63.6650390625 600.001953125 51.33203125 600.001953125 39.9990234375 c 0
 600.001953125 30.666015625 598.001953125 22.666015625 594.001953125 15.9990234375 c 0
 588.66796875 6.666015625 579.66796875 -0.0009765625 567.001953125 -4.0009765625 c 0
 559.66796875 -6.0009765625 552.001953125 -7.16796875 544.001953125 -7.5009765625 c 0
 536.001953125 -7.833984375 527.66796875 -6.0009765625 519.001953125 -2.0009765625 c 0
 503.66796875 4.666015625 492.334960938 18.3330078125 485.001953125 39 c 0
 471.669921875 79 459.669921875 234 449.001953125 504 c 1
 440.334960938 452.666992188 434.334960938 404 431.001953125 358 c 0
 424.334960938 282 415.334960938 210 404.001953125 142 c 0
 392.669921875 74 383.669921875 32.3330078125 377.001953125 17 c 0
 367.001953125 1 343.001953125 -7 305.001953125 -7 c 2
 300.001953125 -7 l 2
 286.001953125 -7 273.669921875 -5 263.001953125 -1 c 0
 250.334960938 3.6669921875 242.334960938 10.333984375 239.001953125 19.0009765625 c 0
 230.334960938 51.0009765625 216.001953125 124.000976562 196.001953125 238.000976562 c 0
 182.669921875 316.000976562 170.001953125 391.66796875 158.001953125 465.000976562 c 1
 156.669921875 451.66796875 155.001953125 427.66796875 153.001953125 393.000976562 c 2
 149.001953125 340.000976562 l 1
 143.001953125 253.000976562 l 2
 141.001953125 225.66796875 138.669921875 197.000976562 136.001953125 167.000976562 c 0
 134.001953125 144.333984375 131.669921875 120.666992188 129.001953125 96 c 0
 128.334960938 82 127.998046875 71.33203125 127.998046875 63.9990234375 c 2
EndSplineSet
EndChar

StartChar: N
Encoding: 78 78 46
Width: 620
GlyphClass: 2
Flags: W
HStem: -11.998 21G<80.1675 98.501 484.167 512.167>
VStem: 39.501 108<6.53685 180.455> 47.501 107<79.7041 486> 473.834 106.665<187.325 656.813>
LayerCount: 2
Fore
SplineSet
152.500976562 486 m 1xb0
 153.833984375 456 154.500976562 431.002929688 154.500976562 411.002929688 c 0xb0
 154.500976562 389.669921875 154.16796875 359.669921875 153.500976562 321.002929688 c 0
 152.833984375 283.669921875 151.833984375 237.669921875 150.500976562 183.002929688 c 0
 148.500976562 128.3359375 147.500976562 93.6689453125 147.500976562 79.001953125 c 2
 147.500976562 52.001953125 l 1
 147.500976562 44.001953125 l 2
 147.500976562 26.001953125 142.16796875 12.001953125 131.500976562 2.001953125 c 0
 120.16796875 -7.3310546875 106.500976562 -11.998046875 90.5009765625 -11.998046875 c 0
 69.833984375 -11.998046875 55.833984375 -5.998046875 48.5009765625 6.001953125 c 0
 42.5009765625 17.3349609375 39.5009765625 33.66796875 39.5009765625 55.0009765625 c 0xd0
 39.5009765625 68.333984375 40.5009765625 120.000976562 42.5009765625 210.000976562 c 0
 45.833984375 348.66796875 47.5009765625 444.000976562 47.5009765625 496.000976562 c 0
 47.5009765625 547.333984375 46.833984375 594.666992188 45.5009765625 638 c 2
 45.5009765625 647 l 2
 45.5009765625 657 47.16796875 666 50.5009765625 674 c 0
 55.833984375 683.333007812 63.1669921875 690 72.5 694 c 0
 85.8330078125 701.333007812 100.833007812 705 117.5 705 c 0
 120.833007812 705 124.5 704.666992188 128.5 704 c 0
 143.166992188 704 155.833984375 701.666992188 166.500976562 697 c 0
 181.16796875 691 191.500976562 681 197.500976562 667 c 0
 212.833984375 624.333007812 254.500976562 545.333007812 322.500976562 430 c 0
 380.500976562 332.666992188 430.500976562 251.333984375 472.500976562 186.000976562 c 1
 473.389648438 224.213867188 473.833984375 270.274414062 473.833984375 324.18359375 c 0
 473.833984375 351.158203125 473.72265625 380.096679688 473.5 411.000976562 c 0
 472.166992188 529.000976562 469.166992188 607.000976562 464.5 645.000976562 c 0
 463.833007812 649.000976562 463.5 653.000976562 463.5 657.000976562 c 0
 463.5 669.000976562 467.833007812 679.66796875 476.5 689.000976562 c 0
 487.166992188 699.66796875 501.166992188 705.000976562 518.5 705.000976562 c 0
 534.5 705.000976562 547.5 702.333984375 557.5 697.000976562 c 0
 562.833007812 694.333984375 566.5 690.333984375 568.5 685.000976562 c 0
 570.5 679.66796875 572.166992188 675.000976562 573.5 671.000976562 c 0
 574.833007812 666.333984375 576.166015625 659.333984375 577.499023438 650.000976562 c 0
 579.499023438 638.66796875 580.499023438 585.334960938 580.499023438 490.001953125 c 2
 580.499023438 448.001953125 l 2
 580.499023438 364.668945312 579.499023438 278.668945312 577.499023438 190.001953125 c 0
 576.166015625 132.668945312 573.833007812 90.001953125 570.5 62.001953125 c 0
 567.833007812 35.3349609375 564.833007812 18.3349609375 561.5 11.001953125 c 0
 552.166992188 -4.998046875 529.833984375 -13.3310546875 494.500976562 -13.998046875 c 2
 490.500976562 -13.998046875 l 2
 477.833984375 -13.998046875 466.500976562 -11.6650390625 456.500976562 -6.998046875 c 0
 444.500976562 -1.6650390625 436.500976562 5.001953125 432.500976562 13.001953125 c 0
 425.833984375 26.3349609375 408.500976562 55.66796875 380.500976562 101.000976562 c 0
 351.16796875 148.333984375 322.16796875 193.666992188 293.500976562 237 c 0
 263.500976562 286.333007812 231.833984375 341.333007812 198.500976562 402 c 0
 180.500976562 432 165.16796875 460 152.500976562 486 c 1xb0
EndSplineSet
EndChar

StartChar: O
Encoding: 79 79 47
Width: 620
GlyphClass: 2
Flags: W
HStem: -23.9951 108<215.601 368.091> 612.006 105.995<250.497 392.922>
VStem: 40.9688 121<154.456 486.5> 458.969 120.062<178.33 537.54>
LayerCount: 2
Fore
SplineSet
231.96875 94.005859375 m 0
 243.96875 87.3388671875 257.635742188 84.0048828125 272.96875 84.0048828125 c 0
 310.96875 84.0048828125 344.635742188 92.337890625 373.96875 109.004882812 c 0
 389.30078125 117.004882812 402.96875 128.171875 414.96875 142.504882812 c 0
 426.96875 156.837890625 436.30078125 173.337890625 442.96875 192.004882812 c 0
 445.635742188 199.337890625 448.46875 217.837890625 451.46875 247.504882812 c 0
 454.46875 277.171875 456.96875 312.671875 458.96875 354.004882812 c 0
 459.302734375 360.004882812 459.46875 366.004882812 459.46875 372.004882812 c 0
 459.46875 378.004882812 459.302734375 384.004882812 458.96875 390.004882812 c 0
 458.96875 418.671875 457.635742188 447.338867188 454.96875 476.005859375 c 0
 450.96875 515.338867188 436.635742188 548.005859375 411.96875 574.005859375 c 0
 387.96875 599.338867188 358.46875 612.005859375 323.46875 612.005859375 c 0
 288.46875 612.005859375 258.96875 600.672851562 234.96875 578.005859375 c 0
 210.30078125 554.005859375 192.30078125 520.672851562 180.96875 478.005859375 c 0
 168.30078125 430.005859375 161.96875 375.005859375 161.96875 313.005859375 c 0
 161.96875 274.338867188 163.96875 240.338867188 167.96875 211.005859375 c 0
 170.635742188 194.338867188 174.96875 177.838867188 180.96875 161.505859375 c 0
 186.96875 145.172851562 193.96875 131.505859375 201.96875 120.505859375 c 0
 209.96875 109.505859375 219.96875 100.672851562 231.96875 94.005859375 c 0
573.96875 480 m 0
 577.34375 438.375 579.03125 397.172851562 579.03125 356.392578125 c 0
 579.03125 324.67578125 578.010742188 293.213867188 575.96875 262.005859375 c 0
 573.30078125 222.672851562 568.634765625 192.33984375 561.967773438 171.006835938 c 0
 553.30078125 139.673828125 542.30078125 112.673828125 528.967773438 90.0068359375 c 0
 515.634765625 67.33984375 500.80078125 48.6728515625 484.46875 34.005859375 c 0
 468.135742188 19.3388671875 448.302734375 7.671875 424.96875 -0.9951171875 c 0
 401.63671875 -9.662109375 378.13671875 -15.662109375 354.46875 -18.9951171875 c 0
 330.802734375 -22.328125 303.635742188 -23.9951171875 272.96875 -23.9951171875 c 0
 225.635742188 -23.328125 183.302734375 -10.6611328125 145.96875 14.005859375 c 0
 111.302734375 39.3388671875 84.96875 72.671875 66.96875 114.004882812 c 0
 49.63671875 154.004882812 40.96875 197.337890625 40.96875 244.004882812 c 2
 40.96875 249.004882812 l 1
 40.96875 266.004882812 l 2
 40.96875 295.337890625 41.13671875 318.670898438 41.46875 336.00390625 c 0
 41.802734375 353.336914062 42.96875 376.669921875 44.96875 406.002929688 c 0
 48.96875 463.3359375 60.63671875 516.668945312 79.96875 566.001953125 c 1
 79.96875 567.000976562 l 1
 97.96875 611.66796875 129.302734375 648.000976562 173.96875 676.000976562 c 0
 221.96875 704.000976562 276.302734375 718.000976562 336.96875 718.000976562 c 0
 367.63671875 718.000976562 396.96875 712.333984375 424.96875 701.000976562 c 0
 452.96875 690.333984375 477.302734375 675.166992188 497.96875 655.5 c 0
 518.63671875 635.833007812 535.63671875 611 548.96875 581 c 0
 562.302734375 551 570.635742188 517.333007812 573.96875 480 c 0
EndSplineSet
EndChar

StartChar: P
Encoding: 80 80 48
Width: 620
GlyphClass: 2
Flags: W
HStem: -18.9971 21G<117.72 134.72> 218 105.918<180.556 383.305> 605.004 105.999<184.183 400.508>
VStem: 65.0537 129.999<-2.55739 224.218> 65.0537 113.996<32.1765 93.9443 96.7622 226 328.472 599.255> 454.055 115.995<391.836 558.239>
LayerCount: 2
Fore
SplineSet
188.049804688 109 m 0xec
 192.716796875 61 195.052734375 35.3369140625 195.052734375 32.00390625 c 0
 195.052734375 15.3369140625 186.719726562 2.669921875 170.052734375 -5.9970703125 c 0
 156.719726562 -14.6640625 142.38671875 -18.9970703125 127.053710938 -18.9970703125 c 0
 108.38671875 -18.9970703125 93.0537109375 -13.6640625 81.0537109375 -2.9970703125 c 0
 70.38671875 6.3359375 65.0537109375 18.6689453125 65.0537109375 34.001953125 c 0xf4
 65.0537109375 36.6689453125 65.38671875 41.001953125 66.0537109375 47.001953125 c 0
 66.720703125 56.3349609375 67.0537109375 72.3349609375 67.0537109375 95.001953125 c 0
 67.0537109375 132.334960938 66.38671875 183.66796875 65.0537109375 249.000976562 c 0
 62.38671875 359.66796875 60.7197265625 425.334960938 60.052734375 446.001953125 c 0
 59.830078125 463.56640625 59.71875 481.538085938 59.71875 499.91796875 c 0
 59.71875 536.650390625 60.1630859375 575.01171875 61.0517578125 615.001953125 c 1
 60.384765625 609.668945312 59.7177734375 610.3359375 59.05078125 617.002929688 c 1
 59.05078125 611.669921875 58.7177734375 611.669921875 58.05078125 617.002929688 c 0
 52.05078125 625.669921875 49.3837890625 634.336914062 50.05078125 643.00390625 c 2
 50.05078125 651.00390625 l 2
 52.05078125 661.00390625 56.7177734375 670.00390625 64.05078125 678.00390625 c 0
 71.3837890625 686.00390625 79.716796875 691.00390625 89.0498046875 693.00390625 c 0
 113.716796875 698.336914062 150.383789062 702.669921875 199.05078125 706.002929688 c 0
 250.383789062 709.3359375 286.383789062 711.002929688 307.05078125 711.002929688 c 0
 359.05078125 711.002929688 405.383789062 703.002929688 446.05078125 687.002929688 c 0
 483.383789062 670.3359375 513.216796875 645.168945312 535.549804688 611.501953125 c 0
 557.8828125 577.834960938 569.3828125 538.001953125 570.049804688 492.001953125 c 1
 570.049804688 454.668945312 563.716796875 419.168945312 551.049804688 385.501953125 c 0
 538.3828125 351.834960938 521.049804688 322.66796875 499.049804688 298.000976562 c 0
 477.049804688 273.333984375 448.716796875 253.666992188 414.049804688 239 c 0
 380.25390625 224.970703125 344.017578125 217.956054688 305.341796875 217.956054688 c 0
 303.583007812 217.956054688 301.818359375 217.970703125 300.049804688 218 c 0
 251.3828125 218 211.049804688 220.666992188 179.049804688 226 c 1
 181.049804688 188 184.049804688 149 188.049804688 109 c 0xec
176.052734375 334.00390625 m 1
 199.88671875 327.28125 227.3671875 323.91796875 258.485351562 323.91796875 c 0
 261.313476562 323.91796875 264.170898438 323.9453125 267.05859375 324.000976562 c 0
 287.05859375 324.000976562 305.391601562 325.333984375 322.05859375 328.000976562 c 0
 338.725585938 330.66796875 353.05859375 334.000976562 365.05859375 338.000976562 c 0
 377.05859375 342.000976562 387.55859375 347.333984375 396.55859375 354.000976562 c 0
 405.55859375 360.66796875 413.225585938 367.334960938 419.55859375 374.001953125 c 0
 425.891601562 380.668945312 431.224609375 388.501953125 435.557617188 397.501953125 c 0
 439.890625 406.501953125 443.223632812 414.668945312 445.556640625 422.001953125 c 0
 447.889648438 429.334960938 449.72265625 438.16796875 451.055664062 448.500976562 c 0
 452.388671875 458.833984375 453.221679688 467.333984375 453.5546875 474.000976562 c 0
 453.887695312 480.66796875 454.0546875 488.334960938 454.0546875 497.001953125 c 0
 454.0546875 513.668945312 450.721679688 528.3359375 444.0546875 541.002929688 c 0
 437.387695312 553.669921875 429.0546875 563.836914062 419.0546875 571.50390625 c 0
 409.0546875 579.170898438 397.221679688 585.670898438 383.5546875 591.00390625 c 0
 369.887695312 596.336914062 356.720703125 600.00390625 344.053710938 602.00390625 c 0
 331.38671875 604.00390625 319.053710938 605.00390625 307.053710938 605.00390625 c 0
 283.720703125 605.00390625 242.053710938 602.670898438 182.053710938 598.00390625 c 1
 179.38671875 518.00390625 177.719726562 464.336914062 177.052734375 437.00390625 c 0
 176.385742188 400.336914062 176.052734375 366.00390625 176.052734375 334.00390625 c 1
EndSplineSet
EndChar

StartChar: Q
Encoding: 81 81 49
Width: 620
GlyphClass: 2
Flags: W
HStem: -24 21G<280 307> 612 106<246.162 389.668>
VStem: 35.999 120.952<161.037 483.098> 247.999 106<138.764 207.502> 457.999 118.145<137.38 526.522>
LayerCount: 2
Fore
SplineSet
554.001953125 -204 m 0
 545.334960938 -209.333007812 536 -212 526 -212 c 0
 521.333007812 -212 516 -211.333007812 510 -210 c 0
 494.666992188 -206 482.333984375 -197.666992188 473.000976562 -185 c 0
 462.333984375 -172.333007812 445.166992188 -150 421.5 -118 c 0
 397.833007812 -86 375 -53.6669921875 353 -21 c 1
 335.666992188 -23 317 -24 297 -24 c 0
 263 -24 231.666992188 -19 203 -9 c 0
 174.333007812 0.3330078125 150.333007812 13.666015625 131 30.9990234375 c 0
 111.666992188 48.33203125 95 68.33203125 81 90.9990234375 c 0
 54.3330078125 134.999023438 39.666015625 187.666015625 36.9990234375 248.999023438 c 0
 36.33203125 266.33203125 35.9990234375 282.999023438 35.9990234375 298.999023438 c 0
 35.9990234375 403.666015625 49.666015625 491.333007812 76.9990234375 562 c 1
 94.9990234375 606.666992188 126.666015625 644 171.999023438 674 c 0
 219.999023438 703.333007812 273.666015625 718 332.999023438 718 c 0
 396.33203125 718 449.33203125 699 491.999023438 661 c 0
 512.666015625 642.333007812 529.833007812 617.5 543.5 586.5 c 0
 557.166992188 555.5 566.333984375 520 571.000976562 480 c 0
 574.4296875 449.14453125 576.143554688 413.879882812 576.143554688 374.208984375 c 0
 576.143554688 367.594726562 576.096679688 360.858398438 576.000976562 354 c 0
 576.000976562 269.333007812 571.66796875 206.333007812 563.000976562 165 c 0
 549.000976562 97 518.000976562 47 470.000976562 15 c 1
 491.333984375 -14.3330078125 517.333984375 -48 548.000976562 -86 c 0
 566.66796875 -109.333007812 576.000976562 -121.333007812 576.000976562 -122 c 0
 581.333984375 -130 584.000976562 -138.333007812 584.000976562 -147 c 0
 584.000976562 -149.666992188 583.66796875 -152 583.000976562 -154 c 0
 581.66796875 -164 578.334960938 -173.666992188 573.001953125 -183 c 0
 567.001953125 -192.333007812 560.668945312 -199.333007812 554.001953125 -204 c 0
259 114 m 0
 251.666992188 131.333007812 247.999023438 147 247.999023438 161 c 0
 247.999023438 182.333007812 256.666015625 199 273.999023438 211 c 0
 283.999023438 218.333007812 294.666015625 222.333007812 305.999023438 223 c 0
 315.33203125 223 324.33203125 220 332.999023438 214 c 0
 341.666015625 208 348.666015625 198.666992188 353.999023438 186 c 0
 365.33203125 156.666992188 381.33203125 125 401.999023438 91 c 1
 423.999023438 108.333007812 438.999023438 134 446.999023438 168 c 0
 448.999023438 177.333007812 451.166015625 197 453.499023438 227 c 0
 455.83203125 257 457.33203125 294.666992188 457.999023438 340 c 2
 457.999023438 356 l 2
 457.999023438 395.333007812 455.666015625 433 450.999023438 469 c 0
 444.999023438 513.666992188 430.33203125 549 406.999023438 575 c 0
 384.33203125 599.666992188 355.165039062 612 319.498046875 612 c 0
 283.831054688 612 253.998046875 600.333007812 229.998046875 577 c 0
 205.331054688 553 187.331054688 518.666992188 175.998046875 474 c 0
 163.299804688 425.112304688 156.951171875 374.108398438 156.951171875 320.98828125 c 0
 156.951171875 318.331054688 156.966796875 315.66796875 156.999023438 313 c 0
 156.999023438 293 157.666015625 272.333007812 158.999023438 251 c 1
 161.666015625 214.333007812 169.333007812 181.5 182 152.5 c 0
 194.666992188 123.5 211 100.666992188 231 84 c 0
 247.666992188 70.6669921875 266 63 286 61 c 1
 274 82.3330078125 265 100 259 114 c 0
EndSplineSet
EndChar

StartChar: R
Encoding: 82 82 50
Width: 620
GlyphClass: 2
Flags: W
HStem: -18.9961 21G<96.1675 116.501 511.501 527.167> 694.002 20G<93.8325 110.499>
VStem: 46.501 118.999<129 609.003> 51.167 123.334<-2.55641 249.432> 51.5 115.001<371.653 607.007> 51.5 104.999<34.426 251 369.003 497.376> 451.501 116.998<408.488 493.809>
LayerCount: 2
Fore
SplineSet
163.500976562 449.00390625 m 0xca
 162.16796875 431.670898438 159.83203125 405.3359375 156.499023438 370.002929688 c 1xc6
 161.83203125 369.3359375 168.83203125 369.002929688 177.499023438 369.002929688 c 0
 186.166015625 369.002929688 196.833007812 369.669921875 209.5 371.002929688 c 0
 238.833007812 372.3359375 263.5 373.668945312 283.5 375.001953125 c 0
 334.166992188 379.001953125 370.833984375 384.334960938 393.500976562 391.001953125 c 0
 405.500976562 395.001953125 416.16796875 399.668945312 425.500976562 405.001953125 c 0
 434.833984375 410.334960938 441.500976562 416.16796875 445.500976562 422.500976562 c 0
 449.500976562 428.833984375 451.500976562 436.333984375 451.500976562 445.000976562 c 0
 451.500976562 461.000976562 444.66796875 476.833984375 431.000976562 492.500976562 c 0
 417.333984375 508.16796875 399.500976562 522.334960938 377.500976562 535.001953125 c 0
 355.500976562 547.668945312 330.333984375 559.3359375 302.000976562 570.002929688 c 0
 273.66796875 580.669921875 247.834960938 589.002929688 224.501953125 595.002929688 c 0
 201.168945312 601.002929688 180.501953125 605.669921875 162.501953125 609.002929688 c 1
 163.834960938 566.3359375 165.16796875 529.3359375 166.500976562 498.002929688 c 0
 166.500976562 484.669921875 165.500976562 468.336914062 163.500976562 449.00390625 c 0xca
165.5 129 m 0xe2
 171.5 74.3330078125 174.500976562 42.669921875 174.500976562 34.0029296875 c 0xd2
 174.500976562 16.669921875 166.833984375 3.3369140625 151.500976562 -5.99609375 c 0
 138.833984375 -14.6630859375 124.500976562 -18.99609375 108.500976562 -18.99609375 c 2
 104.500976562 -18.99609375 l 2
 87.833984375 -18.3291015625 73.833984375 -12.99609375 62.5009765625 -2.99609375 c 0
 51.833984375 6.3369140625 46.5009765625 18.669921875 46.5009765625 34.0029296875 c 2
 46.5009765625 42.0029296875 l 2xe2
 49.16796875 75.3359375 50.5 103.3359375 50.5 126.002929688 c 0
 50.5 132.002929688 50.66796875 145.169921875 51.0009765625 165.502929688 c 0
 51.1123046875 172.274414062 51.1669921875 179.895507812 51.1669921875 188.3671875 c 0xd2
 51.1669921875 205.334960938 50.9453125 225.712890625 50.5 249.502929688 c 0
 49.8330078125 285.169921875 49.5 307.502929688 49.5 316.502929688 c 0
 49.5 325.502929688 50.1669921875 343.3359375 51.5 370.002929688 c 0xc6
 52.5 393.002929688 53 414.752929688 53 435.252929688 c 0
 53 455.752929688 52.5 475.002929688 51.5 493.002929688 c 0xca
 50.8330078125 515.002929688 49.16796875 544.66796875 46.5009765625 582.000976562 c 0
 43.833984375 619.333984375 42.4990234375 642.002929688 42.4990234375 650.002929688 c 2
 42.4990234375 655.002929688 l 2
 42.4990234375 656.3359375 42.166015625 657.668945312 41.4990234375 659.001953125 c 0
 41.4990234375 671.001953125 46.9990234375 683.168945312 57.9990234375 695.501953125 c 0
 68.9990234375 707.834960938 84.166015625 714.001953125 103.499023438 714.001953125 c 0
 117.499023438 714.001953125 129.166015625 711.334960938 138.499023438 706.001953125 c 1
 196.499023438 703.334960938 250.499023438 696.16796875 300.499023438 684.500976562 c 0
 350.499023438 672.833984375 392.499023438 658.333984375 426.499023438 641.000976562 c 0
 459.166015625 623.66796875 486.166015625 604.000976562 507.499023438 582.000976562 c 0
 528.83203125 560.000976562 544.33203125 537.66796875 553.999023438 515.000976562 c 0
 563.666015625 492.333984375 568.499023438 469.333984375 568.499023438 446.000976562 c 0
 568.499023438 394.000976562 547.83203125 355.000976562 506.499023438 329.000976562 c 0
 493.166015625 321.000976562 478.833007812 314.000976562 463.5 308.000976562 c 0
 447.5 302.66796875 428.666992188 297.834960938 407 293.501953125 c 0
 385.333007812 289.168945312 366.833007812 286.168945312 351.5 284.501953125 c 0
 336.166992188 282.834960938 323.5 281.66796875 313.5 281.000976562 c 1
 372.166992188 251.000976562 424.5 217.333984375 470.5 180.000976562 c 0
 523.166992188 134.66796875 557.833984375 95.0009765625 574.500976562 61.0009765625 c 0
 577.16796875 53.66796875 578.500976562 46.66796875 578.500976562 40.0009765625 c 0
 578.500976562 33.333984375 577.500976562 27.0009765625 575.500976562 21.0009765625 c 0
 570.833984375 9.0009765625 563.166992188 -0.666015625 552.5 -7.9990234375 c 0
 543.166992188 -14.666015625 532.833984375 -17.9990234375 521.500976562 -17.9990234375 c 0
 501.500976562 -17.9990234375 484.16796875 -7.9990234375 469.500976562 12.0009765625 c 0
 458.833984375 25.333984375 443.000976562 42.1669921875 422.000976562 62.5 c 0
 401.000976562 82.8330078125 375.500976562 105.333007812 345.500976562 130 c 0
 315.500976562 154.666992188 281.500976562 179 243.500976562 203 c 0
 212.833984375 222.333007812 183.166992188 238.333007812 154.5 251 c 1
 156.5 217.666992188 160.166992188 177 165.5 129 c 0xe2
EndSplineSet
EndChar

StartChar: S
Encoding: 83 83 51
Width: 620
GlyphClass: 2
Flags: W
HStem: -29 108.995<184.656 365.49> 620.998 102.998<260.853 525.886>
VStem: 34.96 10.0801<80.1222 81> 65.0439 127.998<475.646 569.182> 461.045 123.995<155.55 280.464>
LayerCount: 2
Fore
SplineSet
45.0400390625 73 m 1
 38.318359375 87.0537109375 34.9599609375 99.705078125 34.9599609375 110.958984375 c 0
 34.9599609375 115.76953125 35.2177734375 120.87109375 36.04296875 124.99609375 c 0
 40.04296875 140.329101562 49.3759765625 151.662109375 64.04296875 158.995117188 c 0
 72.7099609375 162.995117188 79.376953125 165.495117188 84.0439453125 166.495117188 c 0
 88.7109375 167.495117188 92.8779296875 167.995117188 96.544921875 167.995117188 c 2
 105.044921875 167.995117188 l 2
 113.044921875 167.328125 120.544921875 163.995117188 127.544921875 157.995117188 c 0
 134.544921875 151.995117188 141.377929688 144.328125 148.044921875 134.995117188 c 0
 159.377929688 118.328125 175.544921875 104.995117188 196.544921875 94.9951171875 c 0
 217.544921875 84.9951171875 241.377929688 79.9951171875 268.044921875 79.9951171875 c 0
 284.044921875 79.9951171875 301.044921875 81.9951171875 319.044921875 85.9951171875 c 0
 337.044921875 89.9951171875 354.544921875 96.162109375 371.544921875 104.495117188 c 0
 388.544921875 112.828125 403.711914062 122.328125 417.044921875 132.995117188 c 0
 430.377929688 143.662109375 441.044921875 155.995117188 449.044921875 169.995117188 c 0
 457.044921875 183.995117188 461.044921875 198.995117188 461.044921875 214.995117188 c 0
 461.044921875 223.662109375 460.377929688 231.495117188 459.044921875 238.495117188 c 0
 457.711914062 245.495117188 455.211914062 252.995117188 451.544921875 260.995117188 c 0
 447.877929688 268.995117188 443.044921875 276.328125 437.044921875 282.995117188 c 0
 431.044921875 289.662109375 422.377929688 296.495117188 411.044921875 303.495117188 c 0
 399.711914062 310.495117188 386.211914062 316.662109375 370.544921875 321.995117188 c 0
 354.877929688 327.328125 335.2109375 332.328125 311.543945312 336.995117188 c 0
 287.876953125 341.662109375 261.876953125 345.329101562 233.543945312 347.99609375 c 0
 205.2109375 350.663085938 179.7109375 356.99609375 157.043945312 366.99609375 c 0
 135.7109375 376.99609375 118.543945312 389.49609375 105.543945312 404.49609375 c 0
 92.5439453125 419.49609375 82.5439453125 435.329101562 75.5439453125 451.99609375 c 0
 68.5439453125 468.663085938 65.0439453125 485.330078125 65.0439453125 501.997070312 c 0
 65.0439453125 525.330078125 69.2109375 547.663085938 77.5439453125 568.99609375 c 0
 85.876953125 590.329101562 98.5439453125 610.49609375 115.543945312 629.49609375 c 0
 132.543945312 648.49609375 153.376953125 664.99609375 178.043945312 678.99609375 c 0
 203.376953125 692.99609375 233.709960938 703.99609375 269.04296875 711.99609375 c 0
 304.375976562 719.99609375 342.375976562 723.99609375 383.04296875 723.99609375 c 0
 403.04296875 723.99609375 430.375976562 722.329101562 465.04296875 718.99609375 c 0
 497.04296875 715.663085938 519.375976562 711.663085938 532.04296875 706.99609375 c 0
 547.375976562 701.663085938 558.708984375 692.663085938 566.041992188 679.99609375 c 0
 571.375 670.663085938 574.041992188 660.330078125 574.041992188 648.997070312 c 0
 574.041992188 634.330078125 570.041992188 622.997070312 562.041992188 614.997070312 c 0
 555.375 608.330078125 547.375 604.330078125 538.041992188 602.997070312 c 0
 533.375 602.330078125 529.375 601.997070312 526.041992188 601.997070312 c 0
 522.708984375 601.997070312 519.041992188 602.330078125 515.041992188 602.997070312 c 0
 507.708984375 603.6640625 500.041992188 605.331054688 492.041992188 607.998046875 c 0
 480.708984375 610.665039062 471.708984375 612.665039062 465.041992188 613.998046875 c 0
 457.708984375 615.331054688 446.041992188 616.831054688 430.041992188 618.498046875 c 0
 414.041992188 620.165039062 395.375 620.998046875 374.041992188 620.998046875 c 0
 342.041992188 620.998046875 312.375 616.831054688 285.041992188 608.498046875 c 0
 257.708984375 600.165039062 235.541992188 588.33203125 218.541992188 572.999023438 c 0
 201.541992188 557.666015625 193.041992188 540.666015625 193.041992188 521.999023438 c 0
 193.041992188 500.666015625 203.375 482.666015625 224.041992188 467.999023438 c 0
 246.708984375 452.666015625 279.041992188 443.999023438 321.041992188 441.999023438 c 0
 362.375 439.999023438 399.375 434.33203125 432.041992188 424.999023438 c 0
 464.041992188 415.666015625 489.208984375 403.999023438 507.541992188 389.999023438 c 0
 525.875 375.999023438 541.208007812 359.499023438 553.541015625 340.499023438 c 0
 565.874023438 321.499023438 574.20703125 302.999023438 578.540039062 284.999023438 c 0
 582.873046875 266.999023438 585.040039062 247.666015625 585.040039062 226.999023438 c 0
 585.040039062 196.33203125 579.540039062 167.33203125 568.540039062 139.999023438 c 0
 557.540039062 112.666015625 542.373046875 88.8330078125 523.040039062 68.5 c 0
 503.70703125 48.1669921875 481.040039062 30.6669921875 455.040039062 16 c 0
 427.040039062 1.3330078125 397.040039062 -9.6669921875 365.040039062 -17 c 0
 332.373046875 -24.3330078125 298.706054688 -28.3330078125 264.0390625 -29 c 0
 210.706054688 -29 164.373046875 -19 125.040039062 1 c 0
 87.0400390625 20.3330078125 60.70703125 44.3330078125 46.0400390625 73 c 0
 45.373046875 81 45.0400390625 81 45.0400390625 73 c 1
EndSplineSet
EndChar

StartChar: T
Encoding: 84 84 52
Width: 620
GlyphClass: 2
Flags: W
HStem: -13.002 21G<306.002 327.668> 591 110<388.266 570.528> 622 92<49.4397 239.029>
VStem: 243.002 135.998<346.537 596> 256.002 136.998<4.95311 342.594>
LayerCount: 2
Fore
SplineSet
366 1 m 0xc8
 352 -8.3330078125 336.334960938 -13.001953125 319.001953125 -13.001953125 c 2
 315.001953125 -13.001953125 l 2
 297.001953125 -13.001953125 282.001953125 -7.3349609375 270.001953125 3.998046875 c 0
 259.334960938 13.3310546875 254.001953125 25.998046875 254.001953125 41.998046875 c 0
 254.001953125 44.6650390625 254.334960938 48.83203125 255.001953125 54.4990234375 c 0
 255.66796875 60.166015625 256.001953125 73.3330078125 256.001953125 94 c 0xc8
 256.001953125 140 253.834960938 222.333007812 249.501953125 341 c 0
 245.16796875 459.666992188 243.001953125 544 243.001953125 594 c 2
 243.001953125 600 l 1
 157.66796875 604 108.66796875 607 96.001953125 609 c 0
 79.333984375 611.666992188 65.66796875 616 55 622 c 0
 41 630.666992188 34 642.666992188 34 658 c 2
 34 661 l 2
 34 675 39 687.666992188 49 699 c 0
 58.333984375 709 70.666015625 714 86 714 c 0xb0
 90 714 94.33203125 713.666992188 99 713 c 0
 135 707 277.666992188 703 527 701 c 0
 546.33203125 701 561 696 571 686 c 0
 581 676 586 664 586 650 c 0
 586 634.666992188 581 621 571 609 c 0
 561 597 547 591 529 591 c 0
 528.33203125 591 478.33203125 592.666992188 379 596 c 1xd0
 380.33203125 465.333007812 385 281.333007812 393 44 c 0
 391 25.3330078125 382 11 366 1 c 0xc8
EndSplineSet
EndChar

StartChar: U
Encoding: 85 85 53
Width: 620
GlyphClass: 2
Flags: W
HStem: -28.9971 114.999<221.955 389.214> 689.002 20G<85.938 104.271 525.272 537.606>
VStem: 29.7275 118.544<176.994 688.531> 472.771 117.501<180.084 691.435>
LayerCount: 2
Fore
SplineSet
460.272460938 17 m 0
 442.272460938 7 423.268554688 -1.6640625 403.268554688 -8.9970703125 c 0
 383.935546875 -16.330078125 365.102539062 -21.4970703125 346.76953125 -24.4970703125 c 0
 328.436523438 -27.4970703125 309.103515625 -28.9970703125 288.770507812 -28.9970703125 c 0
 268.4375 -28.9970703125 246.9375 -26.1640625 224.270507812 -20.4970703125 c 0
 201.603515625 -14.830078125 178.603515625 -5.330078125 155.270507812 8.0029296875 c 0
 133.270507812 21.3359375 113.603515625 38.1689453125 96.2705078125 58.501953125 c 0
 78.9375 78.8349609375 64.6044921875 104.834960938 53.271484375 136.501953125 c 0
 41.9384765625 168.168945312 35.60546875 203.668945312 34.2724609375 243.001953125 c 0
 31.2421875 352.708007812 29.7275390625 437.065429688 29.7275390625 496.07421875 c 0
 29.7275390625 501.969726562 29.7421875 507.612304688 29.7724609375 513.001953125 c 0
 30.10546875 572.334960938 30.9384765625 615.66796875 32.271484375 643.000976562 c 0
 32.9384765625 663.66796875 39.271484375 679.834960938 51.271484375 691.501953125 c 0
 63.271484375 703.168945312 77.6044921875 709.001953125 94.271484375 709.001953125 c 0
 114.271484375 709.001953125 128.938476562 702.334960938 138.271484375 689.001953125 c 0
 144.938476562 679.001953125 148.271484375 665.334960938 148.271484375 648.001953125 c 0
 148.271484375 430.668945312 149.938476562 299.668945312 153.271484375 255.001953125 c 0
 154.604492188 236.334960938 157.104492188 219.66796875 160.771484375 205.000976562 c 0
 164.438476562 190.333984375 169.938476562 175.333984375 177.271484375 160.000976562 c 0
 184.604492188 144.66796875 193.604492188 131.834960938 204.271484375 121.501953125 c 0
 214.938476562 111.168945312 228.438476562 102.668945312 244.771484375 96.001953125 c 0
 261.104492188 89.3349609375 279.604492188 86.001953125 300.271484375 86.001953125 c 0
 348.271484375 86.001953125 387.104492188 100.168945312 416.771484375 128.501953125 c 0
 446.438476562 156.168945312 463.271484375 200.001953125 467.271484375 260.001953125 c 0
 469.271484375 287.334960938 470.938476562 318.334960938 472.271484375 353.001953125 c 0
 472.604492188 376.3359375 472.771484375 397.8359375 472.771484375 417.501953125 c 0
 472.771484375 437.168945312 472.604492188 455.001953125 472.271484375 471.001953125 c 0
 471.604492188 538.334960938 471.271484375 577.16796875 471.271484375 587.500976562 c 2
 471.271484375 634.000976562 l 2
 471.271484375 649.333984375 472.604492188 662.500976562 475.271484375 673.500976562 c 0
 477.938476562 684.500976562 482.60546875 692.66796875 489.272460938 698.000976562 c 0
 495.939453125 703.333984375 502.272460938 706.666992188 508.272460938 708 c 0
 514.272460938 709.333007812 521.272460938 710 529.272460938 710 c 0
 545.939453125 710 559.439453125 704 569.772460938 692 c 0
 580.10546875 680 585.60546875 664.333007812 586.272460938 645 c 0
 588.939453125 594.333007812 590.272460938 537.166015625 590.272460938 473.499023438 c 0
 590.272460938 409.83203125 588.939453125 339.33203125 586.272460938 261.999023438 c 0
 584.939453125 231.999023438 580.772460938 203.83203125 573.772460938 177.499023438 c 0
 566.772460938 151.166015625 557.772460938 128.333007812 546.772460938 109 c 0
 535.772460938 89.6669921875 522.939453125 72 508.272460938 56 c 0
 493.60546875 40 477.60546875 27 460.272460938 17 c 0
EndSplineSet
EndChar

StartChar: V
Encoding: 86 86 54
Width: 620
GlyphClass: 2
Flags: W
HStem: -12 21G<308.503 325.499> 691.001 20G<71.501 79.501>
LayerCount: 2
Fore
SplineSet
316.499023438 -12 m 2
 308.502929688 -11.9990234375 l 2
 292.502929688 -11.9990234375 278.8359375 -9.666015625 267.502929688 -4.9990234375 c 0
 252.169921875 1.0009765625 241.169921875 11.0009765625 234.502929688 25.0009765625 c 0
 204.502929688 95.66796875 163.169921875 205.000976562 110.502929688 353.000976562 c 0
 59.8359375 502.333984375 31.1689453125 593.333984375 24.501953125 626.000976562 c 0
 21.8349609375 639.333984375 20.16796875 651.666992188 19.5009765625 663 c 0
 19.5009765625 671.666992188 21.833984375 679.666992188 26.5009765625 687 c 0
 31.833984375 695.666992188 40.5009765625 702.333984375 52.5009765625 707.000976562 c 0
 59.833984375 709.66796875 67.5009765625 711.000976562 75.5009765625 711.000976562 c 0
 83.5009765625 711.000976562 91.833984375 709.333984375 100.500976562 706.000976562 c 0
 115.833984375 699.333984375 127.166992188 685.333984375 134.5 664.000976562 c 0
 138.5 649.333984375 172.166992188 549.000976562 235.5 363.000976562 c 0
 264.833007812 278.333984375 287.5 214.000976562 303.5 170.000976562 c 1
 329.5 240.66796875 363.5 335.66796875 405.5 455.000976562 c 2
 479.5 664.000976562 l 2
 487.5 684.66796875 499.5 698.334960938 515.5 705.001953125 c 0
 524.166992188 708.334960938 532.666992188 710.16796875 541 710.500976562 c 0
 549.333007812 710.833984375 557.166015625 709.666992188 564.499023438 707 c 0
 573.83203125 703.666992188 581.83203125 698.666992188 588.499023438 692 c 0
 594.499023438 684.666992188 598.499023438 676 600.499023438 666 c 2
 600.499023438 660 l 2
 600.499023438 648 597.83203125 635 592.499023438 621 c 0
 577.83203125 587 543.499023438 494 489.499023438 342 c 0
 432.166015625 188 395.499023438 83 379.499023438 27 c 0
 375.499023438 15.6669921875 369.166015625 6.6669921875 360.499023438 0 c 0
 349.166015625 -8 334.499023438 -12 316.499023438 -12 c 2
EndSplineSet
EndChar

StartChar: W
Encoding: 87 87 55
Width: 620
GlyphClass: 2
Flags: W
HStem: -11 21G<437.49 459.157> 693.053 20.9482G<74.1577 87.4912 302.415 320.876 328.824 336.824 538.117 546.31>
VStem: 21.4912 112.001<400.659 693.625> 491.49 107.019<369.179 695.466>
LayerCount: 2
Fore
SplineSet
491.490234375 632 m 0
 491.490234375 638 491.15625 644.333007812 490.489257812 651 c 0
 490.489257812 669.666992188 495.822265625 684.666992188 506.489257812 696 c 0
 517.225585938 707.368164062 530.35546875 713.052734375 545.87890625 713.052734375 c 0
 546.741210938 713.052734375 547.611328125 713.03515625 548.489257812 713 c 0
 581.834960938 713 598.508789062 689.594726562 598.508789062 642.782226562 c 0
 598.508789062 601.635742188 594.71484375 546.993164062 588.489257812 481 c 0
 580.489257812 391.666992188 576.489257812 345.333984375 576.489257812 342.000976562 c 0
 573.822265625 313.333984375 569.822265625 271.666992188 564.489257812 217 c 0
 558.489257812 161.666992188 552.822265625 118.666992188 547.489257812 88 c 0
 542.15625 58.6669921875 536.823242188 38.6669921875 531.490234375 28 c 0
 523.490234375 14 510.823242188 3.6669921875 493.490234375 -3 c 0
 479.490234375 -8.3330078125 465.823242188 -11 452.490234375 -11 c 2
 445.490234375 -11 l 2
 429.490234375 -11 415.823242188 -8.6669921875 404.490234375 -4 c 0
 389.823242188 2 379.823242188 12 374.490234375 26 c 0
 356.490234375 89.3330078125 342.490234375 174 332.490234375 280 c 2
 315.490234375 459 l 1
 308.157226562 390.333007812 300.157226562 320.333007812 291.490234375 249 c 0
 277.490234375 134.333007812 265.490234375 60 255.490234375 26 c 0
 252.157226562 16 244.157226562 8 231.490234375 2 c 0
 220.157226562 -4 208.82421875 -8 197.491210938 -10 c 0
 190.158203125 -11.3330078125 183.825195312 -11.8330078125 178.4921875 -11.5 c 0
 173.159179688 -11.1669921875 169.159179688 -11 166.4921875 -11 c 2
 162.4921875 -11 l 2
 156.4921875 -11 151.4921875 -10.6669921875 147.4921875 -10 c 0
 143.4921875 -10 137.4921875 -9.3330078125 129.4921875 -8 c 0
 122.159179688 -6.6669921875 115.826171875 -4.6669921875 110.493164062 -2 c 0
 105.16015625 0.6669921875 100.493164062 5 96.4931640625 11 c 0
 91.826171875 17 88.826171875 24 87.4931640625 32 c 1
 86.826171875 36.6669921875 83.1591796875 58.333984375 76.4921875 97.0009765625 c 0
 69.8251953125 135.000976562 65.158203125 170.000976562 62.4912109375 202.000976562 c 0
 54.4912109375 278.000976562 41.158203125 420.66796875 22.4912109375 630.000976562 c 0
 21.82421875 636.000976562 21.4912109375 642.000976562 21.4912109375 648.000976562 c 0
 21.4912109375 679.333984375 33.82421875 700.333984375 58.4912109375 711.000976562 c 0
 64.4912109375 713.000976562 70.82421875 714.000976562 77.4912109375 714.000976562 c 2
 83.4912109375 714.000976562 l 2
 91.4912109375 713.333984375 99.158203125 711.333984375 106.491210938 708.000976562 c 0
 115.158203125 705.333984375 121.825195312 700.666992188 126.4921875 694 c 0
 131.159179688 686 133.4921875 677.333007812 133.4921875 668 c 2
 133.4921875 660 l 2
 133.4921875 615.333007812 144.825195312 475.666015625 167.4921875 240.999023438 c 0
 168.825195312 224.999023438 171.158203125 204.666015625 174.491210938 179.999023438 c 1
 175.82421875 189.999023438 178.157226562 207.666015625 181.490234375 232.999023438 c 0
 191.490234375 309.666015625 197.823242188 359.333007812 200.490234375 382 c 0
 225.157226562 562.666992188 242.490234375 664.333984375 252.490234375 687.000976562 c 0
 262.10546875 703.026367188 284.6640625 711.0390625 320.166015625 711.0390625 c 0
 321.586914062 711.0390625 323.028320312 711.026367188 324.490234375 711.000976562 c 0
 326.490234375 711.000976562 328.157226562 711.333984375 329.490234375 712.000976562 c 0
 344.157226562 712.000976562 356.490234375 709.66796875 366.490234375 705.000976562 c 0
 379.157226562 700.333984375 387.157226562 693.666992188 390.490234375 685 c 0
 393.823242188 673 397.823242188 653 402.490234375 625 c 0
 410.490234375 573.666992188 418.490234375 515.666992188 426.490234375 451 c 0
 434.490234375 385.666992188 440.490234375 339.666992188 444.490234375 313 c 0
 448.490234375 281.666992188 453.823242188 246.666992188 460.490234375 208 c 1
 469.157226562 287.333007812 477.157226562 382.333007812 484.490234375 493 c 0
 489.157226562 559.666992188 491.490234375 606 491.490234375 632 c 0
EndSplineSet
EndChar

